<svg xmlns="http://www.w3.org/2000/svg" viewBox="0 0 23.49 28.9"><defs><style>.cls-1{fill:#1d1d1b;}</style></defs><g id="Layer_2" data-name="Layer 2"><g id="Layer_1-2" data-name="Layer 1"><path class="cls-1" d="M21.68,19.09A8,8,0,0,1,23,21.43a7.72,7.72,0,0,1,.47,2.66V28.9H0V24.09a7.71,7.71,0,0,1,.46-2.66,7.84,7.84,0,0,1,1.35-2.34V9.94A10.07,10.07,0,0,1,2.16,7.3a10.17,10.17,0,0,1,1-2.37,9.51,9.51,0,0,1,1.56-2A9.84,9.84,0,0,1,9.1.36,9.56,9.56,0,0,1,11.74,0a9.67,9.67,0,0,1,2.64.36,10.35,10.35,0,0,1,2.37,1,9.51,9.51,0,0,1,2,1.56,9.46,9.46,0,0,1,1.55,2,9.78,9.78,0,0,1,1,2.37,9.67,9.67,0,0,1,.36,2.64Zm-11.74,8L9,22.58v2.26a1.36,1.36,0,0,1-.11.53,1.25,1.25,0,0,1-.3.42,1.42,1.42,0,0,1-.43.29,1.31,1.31,0,0,1-.52.11.46.46,0,0,1-.32-.13.44.44,0,0,1-.13-.32c0-.16,0-.27.13-.32a1.2,1.2,0,0,1,.31-.13A1.52,1.52,0,0,0,8,25.17a.35.35,0,0,0,.14-.33V21.68A.88.88,0,0,0,7.87,21a.87.87,0,0,0-.64-.27H6.32a.87.87,0,0,0-.64.27.84.84,0,0,0-.26.64v3.16c0,.17,0,.28.13.33a1.66,1.66,0,0,0,.31.12,1.13,1.13,0,0,1,.32.13.34.34,0,0,1,.14.32.44.44,0,0,1-.13.32.48.48,0,0,1-.32.13,1.27,1.27,0,0,1-.52-.11,1.46,1.46,0,0,1-.44-.29,1.32,1.32,0,0,1-.4-.95V21.68a1.73,1.73,0,0,1,.56-1.3,1.71,1.71,0,0,1,.6-.38,1.93,1.93,0,0,1,.73-.13A5.37,5.37,0,0,1,7,18.12a5.75,5.75,0,0,0-2.07.69A6.07,6.07,0,0,0,3.3,20.14,6,6,0,0,0,2.21,22a5.73,5.73,0,0,0-.4,2.14v3Zm1.8-9.92a5.94,5.94,0,0,0,2.45-.51,6.37,6.37,0,0,0,2-1.36,6.25,6.25,0,0,0,1.36-2,6.18,6.18,0,0,0,.5-2.46V9a11.21,11.21,0,0,1-1.64-.12A6.2,6.2,0,0,1,14.9,8.5a4.74,4.74,0,0,1-1.29-.83,4.29,4.29,0,0,1-1-1.35V8.13h-.09a7.59,7.59,0,0,1-1.07-.07,4.44,4.44,0,0,1-1-.28,3.29,3.29,0,0,1-.84-.55A3,3,0,0,1,9,6.35a4.74,4.74,0,0,1-.56,1.07,4.19,4.19,0,0,1-.82.86,3.86,3.86,0,0,1-1,.55A3.44,3.44,0,0,1,5.42,9v1.78a6.17,6.17,0,0,0,.49,2.46,6.32,6.32,0,0,0,3.36,3.38A6.07,6.07,0,0,0,11.74,17.17ZM8.62,20.53c-.08-.41-.17-.81-.26-1.22s-.16-.82-.23-1.24a4.62,4.62,0,0,0-.82,1.8,1.84,1.84,0,0,1,.73.19A1.77,1.77,0,0,1,8.62,20.53Zm1.32-9.68a.83.83,0,0,1-.27.62.88.88,0,0,1-1.27,0,.83.83,0,0,1-.27-.62V9.94a.9.9,0,0,1,.26-.64.92.92,0,0,1,1.55.64ZM14.45,19a.86.86,0,0,0-.27-.63.89.89,0,0,0-.63-.26H9.94a.89.89,0,0,0-.63.26A.86.86,0,0,0,9,19a.88.88,0,0,0,.1.41c.16.37.34.75.53,1.11l.57,1.12c.12.23.23.46.33.7a6.23,6.23,0,0,0,.36.68,1.31,1.31,0,0,0,.34.36.78.78,0,0,0,.47.15.75.75,0,0,0,.46-.15,1.07,1.07,0,0,0,.34-.36,4.48,4.48,0,0,0,.36-.69c.1-.24.22-.47.33-.7l.58-1.11q.28-.56.54-1.11A.88.88,0,0,0,14.45,19Zm-2.71-4.48a1.3,1.3,0,0,0,.49-.09,2.12,2.12,0,0,0,.37-.19l.29-.19a.37.37,0,0,1,.23-.09.44.44,0,0,1,.43.43.52.52,0,0,1-.22.42,2.26,2.26,0,0,1-.5.32,3.84,3.84,0,0,1-.6.2,2.85,2.85,0,0,1-.49.07,2.72,2.72,0,0,1-.49-.07,4.69,4.69,0,0,1-.6-.2,2.12,2.12,0,0,1-.51-.32.57.57,0,0,1-.21-.42.38.38,0,0,1,.13-.3.46.46,0,0,1,.31-.13.4.4,0,0,1,.23.09l.28.19a2,2,0,0,0,.36.19A1.24,1.24,0,0,0,11.74,14.48Zm0-1.84a.88.88,0,0,1-.64-.26.86.86,0,0,1-.26-.64h1.79a.89.89,0,0,1-.26.63A.86.86,0,0,1,11.75,12.64ZM14.45,9a.84.84,0,0,1,.64.26.87.87,0,0,1,.27.64v.91a.83.83,0,0,1-.27.62.89.89,0,0,1-.64.27.86.86,0,0,1-.63-.27.83.83,0,0,1-.27-.62V9.94a.89.89,0,0,1,.9-.9Zm.91,9c-.31,1.51-.61,3-.91,4.51s-.61,3-.9,4.51h3a2,2,0,0,1-.82-.23,2.3,2.3,0,0,1-.66-.5,2.29,2.29,0,0,1-.61-1.52,2.22,2.22,0,0,1,.14-.76,2.27,2.27,0,0,1,.38-.66,2.1,2.1,0,0,1,.57-.5,2.06,2.06,0,0,1,.72-.29V20.77A4.59,4.59,0,0,0,16,19.35,4.74,4.74,0,0,0,15.36,18.07Zm1.35,8.12a1.35,1.35,0,0,0,1.35-1.35,1.31,1.31,0,0,0-.11-.52,1.35,1.35,0,0,0-.29-.44,1.48,1.48,0,0,0-.43-.29,1.35,1.35,0,0,0-.53-.1,1.3,1.3,0,0,0-.52.1,1.45,1.45,0,0,0-.43.3,1.42,1.42,0,0,0-.29.43,1.45,1.45,0,0,0,0,1.06,1.25,1.25,0,0,0,.3.42,1.39,1.39,0,0,0,.43.28A1.35,1.35,0,0,0,16.71,26.19Zm5-2.1a5.69,5.69,0,0,0-.4-2.14,6.21,6.21,0,0,0-1.09-1.82,6.27,6.27,0,0,0-1.65-1.33,5.92,5.92,0,0,0-2.08-.68,4.75,4.75,0,0,1,.59,1.6,9.66,9.66,0,0,1,.13,1.62c0,.21,0,.42,0,.63v.66a2.06,2.06,0,0,1,.72.29,2.1,2.1,0,0,1,.57.5,2.13,2.13,0,0,1,.37.66,2.17,2.17,0,0,1,.13.76,2.15,2.15,0,0,1-.16.85,2.06,2.06,0,0,1-.45.69,2.23,2.23,0,0,1-.67.49,2.32,2.32,0,0,1-.83.22h4.83Z"/></g></g></svg>