<svg xmlns="http://www.w3.org/2000/svg" viewBox="0 0 23.49 28.9"><defs><style>.cls-1{fill:#1d1d1b;}</style></defs><g id="Layer_2" data-name="Layer 2"><g id="Layer_1-2" data-name="Layer 1"><path class="cls-1" d="M17.56,16.5a7.89,7.89,0,0,1,4.26,2.78,8,8,0,0,1,1.23,2.23,7.73,7.73,0,0,1,.44,2.58V28.9H0V24.09a7.74,7.74,0,0,1,1.67-4.81,7.89,7.89,0,0,1,1.87-1.72A8,8,0,0,1,5.92,16.5a8.16,8.16,0,0,1-1.71-2.6,7.94,7.94,0,0,1-.6-3.05V8.13A7.7,7.7,0,0,1,3.9,6,7.82,7.82,0,0,1,4.72,4,8.09,8.09,0,0,1,6,2.39,8.49,8.49,0,0,1,7.64,1.11a8.06,8.06,0,0,1,9.84,1.28A8.51,8.51,0,0,1,18.76,4,8,8,0,0,1,19.58,6a8.16,8.16,0,0,1,.29,2.16v2.72a8,8,0,0,1-.6,3.06A8.22,8.22,0,0,1,17.56,16.5Zm-2.67-.18a6.24,6.24,0,0,0,1.32-1,6.31,6.31,0,0,0,1.63-2.81,6.5,6.5,0,0,0,.22-1.65V9.94h-.89V8.13H13.53a3.51,3.51,0,0,1-1.4-.29,3.63,3.63,0,0,1-1.92-1.93,3.47,3.47,0,0,1-.28-1.4,3.66,3.66,0,0,0-1.41.28,3.5,3.5,0,0,0-1.14.78A3.55,3.55,0,0,0,6.6,6.72a3.69,3.69,0,0,0-.28,1.41V9.94h-.9v.91A6.3,6.3,0,0,0,6.27,14a6.93,6.93,0,0,0,1,1.3,6.06,6.06,0,0,0,1.33,1l0,0a6.37,6.37,0,0,0,1.51.61,6.11,6.11,0,0,0,1.6.21,6.26,6.26,0,0,0,3.11-.82ZM6.32,23.49l3.62,3.6h.45c-.4-1.5-.78-3-1.13-4.51s-.73-3-1.13-4.51l-1.81,1.8,1.81,1.81ZM9.94,10.85a.83.83,0,0,1-.27.62.88.88,0,0,1-1.27,0,.83.83,0,0,1-.27-.62V9.94a.9.9,0,0,1,.26-.64.92.92,0,0,1,1.55.64Zm3.87,9.66c.09-.41.19-.82.3-1.22s.22-.81.32-1.22H12.64l-.9.89-.91-.89H9.06c.1.41.2.82.29,1.23s.2.81.33,1.21l.26.26L11.74,19l1.81,1.79Zm-2.07-6a1.3,1.3,0,0,0,.49-.09,2.12,2.12,0,0,0,.37-.19l.29-.19a.37.37,0,0,1,.23-.09.44.44,0,0,1,.43.43.52.52,0,0,1-.22.42,2.26,2.26,0,0,1-.5.32,3.84,3.84,0,0,1-.6.2,2.85,2.85,0,0,1-.49.07,2.72,2.72,0,0,1-.49-.07,4.69,4.69,0,0,1-.6-.2,2.12,2.12,0,0,1-.51-.32.57.57,0,0,1-.21-.42.38.38,0,0,1,.13-.3.46.46,0,0,1,.31-.13.4.4,0,0,1,.23.09l.28.19a2,2,0,0,0,.36.19A1.24,1.24,0,0,0,11.74,14.48Zm-.28,6.91L11,21l-1,1,.75,3Zm.28-8.75a.88.88,0,0,1-.64-.26.87.87,0,0,1-.27-.64h1.8a.89.89,0,0,1-.26.63A.86.86,0,0,1,11.74,12.64ZM12.69,25l.76-3-1-1-.42.43Zm.86,2.12,3.62-3.6-1.81-1.81,1.81-1.81c-.32-.29-.63-.58-.92-.89l-.89-.91-2.27,9Zm.9-18a.84.84,0,0,1,.64.26.87.87,0,0,1,.27.64v.91a.83.83,0,0,1-.27.62.89.89,0,0,1-.64.27.86.86,0,0,1-.63-.27.83.83,0,0,1-.27-.62V9.94a.89.89,0,0,1,.9-.9Z"/></g></g></svg>