<svg xmlns="http://www.w3.org/2000/svg" viewBox="0 0 23.25 23.27"><defs><style>.cls-1{fill:#1d1d1b;}</style></defs><g id="Layer_2" data-name="Layer 2"><g id="Layer_1-2" data-name="Layer 1"><path class="cls-1" d="M17.87,14.63a6.1,6.1,0,0,1,2.14.73,6.44,6.44,0,0,1,1.71,1.39,6.41,6.41,0,0,1,1.53,4.12v2.4H3.38L0,14.84V2.93A2.34,2.34,0,0,1,.26,1.84,2,2,0,0,1,1,1.05,2.16,2.16,0,0,1,1.51.5,1.66,1.66,0,0,1,2.07.18,2.62,2.62,0,0,1,2.7,0a5.07,5.07,0,0,1,.68,0h1A2.11,2.11,0,0,1,5.94.68a2.07,2.07,0,0,1,.44.71,2.44,2.44,0,0,1,.16.9,2,2,0,0,1,1,.62,2.11,2.11,0,0,1,.49,1,6.33,6.33,0,0,1,1-1,6.31,6.31,0,0,1,1.22-.78,6.75,6.75,0,0,1,1.37-.48,6.56,6.56,0,0,1,1.47-.16,6.51,6.51,0,0,1,3.3.89,6.9,6.9,0,0,1,1.32,1,6.6,6.6,0,0,1,1,1.32,7.17,7.17,0,0,1,.66,1.56A6.7,6.7,0,0,1,19.62,8v2.17a6.61,6.61,0,0,1-.44,2.38A6.39,6.39,0,0,1,17.87,14.63ZM4.36,6.56l2-1.83a.48.48,0,0,0,.14-.2.69.69,0,0,0,0-.24.61.61,0,0,0-.09-.35.5.5,0,0,0-.24-.19.9.9,0,0,0-.33-.09l-.36,0H5.08V2.2a.71.71,0,0,0-.19-.52.68.68,0,0,0-.52-.2H2.91a.68.68,0,0,0-.52.2.69.69,0,0,0-.21.52.74.74,0,0,0-.54.22A.79.79,0,0,0,1.46,3V7.29h2.9ZM21.79,20.87A4.63,4.63,0,0,0,21.41,19a4.79,4.79,0,0,0-2.57-2.59,4.65,4.65,0,0,0-1.9-.39H8a2,2,0,0,1-1.14-.33A3.55,3.55,0,0,1,6,14.85l-.1-.14a1.15,1.15,0,0,1-.08-.15L4.5,8h-3v6.54l2.9,7.25H21.79ZM8,10.19a5.07,5.07,0,0,0,.39,2,5.19,5.19,0,0,0,1.09,1.62,5,5,0,0,0,1.62,1.08,5.1,5.1,0,0,0,4,0,5,5,0,0,0,3.1-4.68V9.46h-.72V8H14.53a2.87,2.87,0,0,1-1.14-.23,2.82,2.82,0,0,1-.92-.62,3,3,0,0,1-.62-.93,2.87,2.87,0,0,1-.23-1.14,2.85,2.85,0,0,0-1.13.23A2.85,2.85,0,0,0,8.94,6.88,2.87,2.87,0,0,0,8.71,8V9.46H8Zm2.9.73a.67.67,0,0,1-.52-.22.69.69,0,0,1-.21-.51V9.46a.75.75,0,0,1,.73-.72.7.7,0,0,1,.51.22.69.69,0,0,1,.21.5v.73a.69.69,0,0,1-.21.51A.67.67,0,0,1,10.9,10.92Zm2.17,2.91a1.39,1.39,0,0,1-.57-.12A1.77,1.77,0,0,1,12,13.4a1.62,1.62,0,0,1-.31-.46,1.39,1.39,0,0,1-.12-.57h2.92a1.39,1.39,0,0,1-.12.57,1.62,1.62,0,0,1-.31.46,1.77,1.77,0,0,1-.46.31A1.39,1.39,0,0,1,13.07,13.83Zm0-2.19a.73.73,0,0,1-.52-.21.69.69,0,0,1-.21-.51H13.8a.69.69,0,0,1-.21.51A.73.73,0,0,1,13.07,11.64Zm2.18-.72a.74.74,0,0,1-.51-.22.73.73,0,0,1-.21-.51V9.46a.69.69,0,0,1,.21-.5.7.7,0,0,1,.51-.22.75.75,0,0,1,.73.72v.73a.69.69,0,0,1-.21.51A.67.67,0,0,1,15.25,10.92Z"/></g></g></svg>