<svg xmlns="http://www.w3.org/2000/svg" viewBox="0 0 130.35 23.24"><defs><style>.cls-1{fill:#f0d300;}.cls-2,.cls-5{fill:#82368c;}.cls-3,.cls-4{fill:none;stroke-linecap:round;stroke-width:3px;}.cls-3{stroke:#f0d300;}.cls-3,.cls-4,.cls-5{stroke-miterlimit:10;}.cls-4,.cls-5{stroke:#82368c;}</style></defs><g id="Layer_2" data-name="Layer 2"><g id="Layer_1-2" data-name="Layer 1"><circle class="cls-1" cx="11.61" cy="11.46" r="11.46"/><path class="cls-2" d="M23.2,10.83c0-.32-.06-.65-.1-1a11.81,11.81,0,0,0-.35-1.54,11.26,11.26,0,0,0-1.23-2.77,11.4,11.4,0,0,0-3-3.29A11.24,11.24,0,0,0,15.64.73,9.88,9.88,0,0,0,13.57.18C13.11.11,12.65.06,12.18,0a8.6,8.6,0,0,0-1.52,0c-.44.05-.88.1-1.32.18a11,11,0,0,0-2.62.86,11.63,11.63,0,0,0-4.34,3.5A11.49,11.49,0,0,0,.93,7.08,11.2,11.2,0,0,0,.1,10.14c0,.41-.07.81-.09,1.21A8.9,8.9,0,0,0,.08,12.9c.06.44.12.88.22,1.31a11,11,0,0,0,1,2.77,11.37,11.37,0,0,0,1.46,2.18,12.48,12.48,0,0,0,1.66,1.59,11.62,11.62,0,0,0,6.88,2.48,10.71,10.71,0,0,0,2-.13,10.87,10.87,0,0,0,1.69-.38,11.51,11.51,0,0,0,4.07-2.24,11.34,11.34,0,0,0,1.72-1.81,11.6,11.6,0,0,0,1.72-3.17,10.18,10.18,0,0,0,.52-2c.06-.34.08-.7.12-1.05l0-.39v-.81ZM11.61,22.22a10.6,10.6,0,1,1,10.61-10.6A10.59,10.59,0,0,1,11.61,22.22Z"/><path class="cls-2" d="M18.18,8.11a.52.52,0,0,1-.47-.34A1.72,1.72,0,0,0,16.25,6.6a2.1,2.1,0,0,0-1.35.21,1.76,1.76,0,0,0-.79,1,.51.51,0,0,1-.5.35.52.52,0,0,1-.47-.37.66.66,0,0,1,.08-.48,2.69,2.69,0,0,1,2-1.62,3.06,3.06,0,0,1,2.42.42,2.73,2.73,0,0,1,1.05,1.36A.51.51,0,0,1,18.18,8.11Z"/><path class="cls-2" d="M7.33,5.56a2.94,2.94,0,0,1,1.79.57,2.62,2.62,0,0,1,1,1.31.51.51,0,0,1-.49.67.53.53,0,0,1-.47-.35A1.7,1.7,0,0,0,7.78,6.62a2.16,2.16,0,0,0-1.26.1,1.67,1.67,0,0,0-1,1,.53.53,0,0,1-.5.35.51.51,0,0,1-.47-.39.62.62,0,0,1,.05-.4,2.74,2.74,0,0,1,2-1.67c.24-.06.5-.07.75-.11Z"/><path class="cls-2" d="M17.11,10.61h-11a.5.5,0,0,0-.55.56c0,.47,0,.95.09,1.42a12.65,12.65,0,0,0,.22,1.35,10.75,10.75,0,0,0,1.21,3.24,6.7,6.7,0,0,0,1.7,2,4.44,4.44,0,0,0,4.87.52,5.79,5.79,0,0,0,1.77-1.46,8.9,8.9,0,0,0,1.25-2.1,12.73,12.73,0,0,0,.9-3.33,14.89,14.89,0,0,0,.11-1.64A.54.54,0,0,0,17.11,10.61Zm-.55,1.57c0,.36-.08.72-.14,1.08a10.8,10.8,0,0,1-.36,1.57,8.5,8.5,0,0,1-.77,1.81A6,6,0,0,1,14,18.24a3.67,3.67,0,0,1-1.74.89,3.59,3.59,0,0,1-3.41-1.2,7.15,7.15,0,0,1-1.36-2.14,10.06,10.06,0,0,1-.65-2.15c-.08-.42-.13-.84-.18-1.26,0-.25,0-.5-.06-.75h10C16.59,11.82,16.58,12,16.56,12.18Z"/><line class="cls-3" x1="32.17" y1="11.62" x2="128.85" y2="11.62"/><line class="cls-4" x1="32.25" y1="11.54" x2="93.99" y2="11.54"/><circle class="cls-5" cx="93.99" cy="11.54" r="5.32"/></g></g></svg>