<svg xmlns="http://www.w3.org/2000/svg" viewBox="0 0 138.84 36.08"><defs><style>.cls-1,.cls-8{fill:#1d1d1b;}.cls-2{font-size:11.76px;font-family:BebasNeue-Regular, Bebas Neue;}.cls-10,.cls-2,.cls-9{fill:#fff;}.cls-3{letter-spacing:0em;}.cls-4{letter-spacing:-0.01em;}.cls-5{letter-spacing:0em;}.cls-6{letter-spacing:-0.05em;}.cls-7{letter-spacing:-0.03em;}.cls-10,.cls-8{stroke:#fff;stroke-miterlimit:10;}.cls-8{stroke-width:0.88px;}.cls-10{stroke-width:1.03px;}</style></defs><g id="Layer_2" data-name="Layer 2"><g id="Layer_1-2" data-name="Layer 1"><polygon class="cls-1" points="110.22 35.4 138.22 35.45 137.61 24.67 132.97 20.96 134.54 19.61 130.08 15.53 127.79 19.16 125.91 20.96 121.9 20.96 117.51 15.53 113.15 19.25 114.79 21.02 109.77 25.64 110.22 35.4"/><text class="cls-2" transform="translate(0 12.16)"><tspan class="cls-3">P</tspan><tspan x="4.59" y="0">SST! </tspan><tspan class="cls-4" x="21.97" y="0">w</tspan><tspan x="28.36" y="0">anna see some </tspan><tspan class="cls-5" x="86.08" y="0">d</tspan><tspan class="cls-6" x="90.83" y="0">at</tspan><tspan class="cls-7" x="98.75" y="0">a</tspan><tspan x="103.11" y="0">?</tspan><tspan x="33.55" y="14.12">click here</tspan></text><line class="cls-8" x1="78.6" y1="21.3" x2="103.88" y2="21.3"/><path class="cls-9" d="M127.24,21a7.88,7.88,0,0,0,1.67-1.88c.22-.38.44-.76.63-1.15s.27-.58.38-.88.14-.4.52-.13a4.08,4.08,0,0,1,.33.25c.24.15.41.37.65.52a3.85,3.85,0,0,1,.3.27,4.15,4.15,0,0,1,.66.59c.12.1.26.17.37.28l.51.51a2.54,2.54,0,0,1,.28.29c0,.15-.13.16-.21.23-.47.28-.91.6-1.38.87-.86.52-1.7,1.08-2.55,1.61a.8.8,0,0,0-.36,1.14,2.19,2.19,0,0,0,.29.39,5.1,5.1,0,0,1,.61.7l.29.29c.18.17.3.4.49.57a2.62,2.62,0,0,1,.28.3c.1.28.5.37.47.73l-.41,1-.86,2.07a9.37,9.37,0,0,1-.36.87c-.3.69-.57,1.39-.87,2.08a3,3,0,0,0-.28.9L128,35.14c0,.21-.19.45.11.61a.77.77,0,0,0,.86.18c.25,0,.33-.25.43-.44.32-.65.55-1.34.86-2a8.53,8.53,0,0,1,.36-.88c.28-.69.56-1.39.86-2.07.13-.3.23-.6.37-.89.29-.69.56-1.39.88-2.07q.15-.42.33-.84a1,1,0,0,0-.06-1c-.12-.14-.27-.26-.39-.4a5.84,5.84,0,0,0-.51-.59,1.43,1.43,0,0,0-.31-.24l-.55-.62c-.07-.13-.08-.29-.21-.4s0-.28.12-.36.51-.31.76-.48a7.49,7.49,0,0,0,1.24-.87L135,20.55c.46-.3.53-.48.38-1,0-.15-.16-.18-.24-.26l-.53-.55a.46.46,0,0,0-.34-.33l-.54-.51a.53.53,0,0,0-.37-.34,3,3,0,0,1-.6-.52c0-.21-.2-.21-.33-.28l-.62-.52c0-.19-.21-.21-.35-.26l-.61-.46a1.59,1.59,0,0,0-.25-.33c-.21-.41,0-.82,0-1.24,0-.11,0-.23,0-.35s.07-.23.22-.24a3.85,3.85,0,0,1,.49-.07c.45-.07.9-.17,1.34-.28a2.85,2.85,0,0,0,.89-.35,8.41,8.41,0,0,0,1.62-.8,1.31,1.31,0,0,0,.65-1.47c.05-.14-.06-.2-.16-.26L135,9.53c0-.18-.22-.15-.34-.2L133.84,9c-.1-.19-.31-.08-.45-.16l-.77-.2a.72.72,0,0,0-.55-.14l-1-.2a.37.37,0,0,0-.35-.07c-.28,0-.55-.07-.82-.08s-.26-.1-.23-.28a.28.28,0,0,0-.09-.34,4.27,4.27,0,0,1-.27-1c0-.13,0-.26-.09-.34a4.27,4.27,0,0,1-.27-1.05c.07-.18-.07-.3-.13-.44l-.2-.86c0-.16,0-.35-.15-.45l-.27-1a.27.27,0,0,0-.12-.34l-.34-.76c-.06-.15-.07-.31-.24-.38a3,3,0,0,0-.62-.56c-.15-.25-.42-.14-.64-.22l-1,.08c-.34-.06-.55.18-.78.37-.66.59-.66.59-1.32,0a.23.23,0,0,0-.26-.16,4.73,4.73,0,0,0-1-.29c-.14-.14-.29-.09-.44,0a2.08,2.08,0,0,0-1.57,1.27c-.1.22-.21.44-.32.66a2.12,2.12,0,0,0-.37.79c-.15.54-.29,1.09-.43,1.64a5.68,5.68,0,0,1-.18.71c-.17.54-.27,1.09-.43,1.64,0,.23-.1.46-.17.69s-.12.55-.49.56l-.86.12c-.48.08-1,.19-1.42.3-.22,0-.43.12-.65.16a8,8,0,0,0-2.1.89c-.23.2-.55.33-.6.69a1.2,1.2,0,0,0,0,1.12.4.4,0,0,0,.24.28l.71.52c0,.18.23.12.35.17l.87.35c.14.19.37.09.55.16l.84.2a.32.32,0,0,0,.36.08l1.13.18a.29.29,0,0,0,.35.08,5.33,5.33,0,0,1,1,.1,1.5,1.5,0,0,0,.55.19c.4,0,.79.08,1.19.1a3.52,3.52,0,0,1,1,0,3.83,3.83,0,0,0,.68,0c.16,0,.31,0,.47,0h3.35a6,6,0,0,0,1.12,0,2.57,2.57,0,0,1,.83,0c.43,0,.86-.11,1.3-.1s.44-.05.35.4,0,.67-.11,1a3.78,3.78,0,0,1-.14.65,7.93,7.93,0,0,1-.77,2,5.43,5.43,0,0,1-2.8,2.78,3.68,3.68,0,0,1-1.57.29,1.71,1.71,0,0,1-.45,0,4.24,4.24,0,0,1-.91-.25l-.37-.17a2.69,2.69,0,0,1-.68-.43,3.85,3.85,0,0,0-.3-.27,1.93,1.93,0,0,1-.56-.58,1.59,1.59,0,0,1-.28-.36,4,4,0,0,1-.42-.68l-.24-.48a8.67,8.67,0,0,1-.36-.83,2,2,0,0,1-.14-.47,8,8,0,0,1-.21-.81,1.7,1.7,0,0,0-.18-.44.82.82,0,0,0-.89-.25,11,11,0,0,0-2.13,1.67c-1,.92-2.09,1.83-3,2.84a2,2,0,0,0-.37.53.31.31,0,0,0,.1.44l.62.49c0,.19.22.15.33.21l.7.44a1.12,1.12,0,0,0,.34.31c.24.16.5.29.74.46s.25.17.39.24.45.29.67.44l.3.19c.45.28.46.29.13.69s-.73.82-1.09,1.24a3.35,3.35,0,0,0-.87,1.17,1,1,0,0,0,0,.38c.1.3.22.59.34.88a2,2,0,0,1,.17.4c.12.28.23.56.36.84.06.13.1.26.16.39.1.31.26.59.37.89a.57.57,0,0,0,.22.29,5.23,5.23,0,0,1,.38.95.32.32,0,0,0,.16.35,4.4,4.4,0,0,1,.35.87c-.06.17,0,.26.16.35l.28.7c.08.17,0,.41.23.52l.3.76c.08.15,0,.36.19.45s.19.53.41.73.19.22.35.16a.79.79,0,0,0,.72-.53,1.11,1.11,0,0,0,0-.6c-.12-.29-.24-.59-.38-.88-.06-.13-.1-.27-.16-.4s-.18-.44-.28-.66-.16-.38-.23-.57-.22-.47-.3-.73a3.39,3.39,0,0,1-.24-.55c-.1-.22-.18-.45-.28-.68s-.11-.3-.18-.45-.21-.52-.34-.77-.11-.3-.18-.45-.22-.57-.34-.85a1.84,1.84,0,0,1-.17-.38c-.11-.28-.22-.57-.35-.84a.37.37,0,0,1,.06-.47c.45-.5.86-1,1.34-1.51.27-.32.56-.62.82-.95a.84.84,0,0,0,0-1.18,3.21,3.21,0,0,0-.3-.21c-.27-.13-.5-.31-.75-.46a2,2,0,0,1-.39-.25c-.23-.13-.45-.29-.68-.43a2.29,2.29,0,0,1-.29-.18c-.24-.16-.49-.29-.73-.45l-.38-.26a8,8,0,0,1-.69-.43c-.24-.16-.11-.28,0-.41a27.75,27.75,0,0,1,2.59-2.26c.63-.5.63-.5.87.21.07.16.16.32.23.48l.37.74c.08.14.16.27.25.4s.29.45.45.67a2.43,2.43,0,0,1,.26.3,5,5,0,0,0,.54.59l.29.28a1.26,1.26,0,0,1,.48.49c.42.21,2,.82,2,.82a3.76,3.76,0,0,0,.93.15h.63a5.39,5.39,0,0,0,1.19-.2"/><path class="cls-9" d="M138.76,30.14v1.31c.13.15.07.29,0,.44v1.3a.36.36,0,0,1,0,.44l0,1.31a.49.49,0,0,1-.52.51.79.79,0,0,1-.79-.42c-.17-.19,0-.39,0-.59-.08-1,0-2,0-3,0-.72,0-1.44,0-2.16a16.11,16.11,0,0,0-.11-2.3,1.84,1.84,0,0,1-.05-.52c0-.14,0-.27-.06-.4a3.82,3.82,0,0,0-.3-.94c-.06-.13-.12-.26-.19-.38a3,3,0,0,0-.56-.66c-.11-.08-.2-.18-.31-.27s-.48-.31-.75-.43-2.39-1.69-2.5-1.79a.74.74,0,0,1-.19-.89.65.65,0,0,1,.35-.28c.3-.16,2.69,1.58,3,1.68s.37,0,.44.24l.68.46a.67.67,0,0,1,.36.34l.53.62c.19,0,.2.22.24.37l.37.76c.19.1.09.31.16.45l.19.94a.34.34,0,0,1,.06.36l0,1.3c.13.15.07.29,0,.44v1.31C138.89,29.85,138.83,30,138.76,30.14Z"/><path class="cls-9" d="M109.41,29.47v-1.3c-.14-.15-.07-.3,0-.44l.18-1.48c-.09-.25.08-.42.18-.61A5.35,5.35,0,0,1,112,22.93c.28-.16,2.07-1.77,2.37-1.92.14-.1.27,0,.4,0a.78.78,0,0,1,.37.91.87.87,0,0,1-.56.53,10.8,10.8,0,0,0-3.37,3.39,2.64,2.64,0,0,0-.23.82c-.07.29,0,.59-.11.88a2.07,2.07,0,0,0,0,.61v6.61a1.77,1.77,0,0,1-.1.72.84.84,0,0,1-.55.52c-.18.13-.31.05-.44-.08a.92.92,0,0,1-.35-.79c-.14-.14-.07-.29,0-.43V33.4c-.14-.15-.07-.29,0-.44v-1.3c-.14-.15-.07-.3,0-.44V29.91C109.27,29.77,109.34,29.62,109.41,29.47Z"/><path class="cls-10" d="M123.77,35.4h0a1,1,0,0,1-1-1l-.88-11.92a1,1,0,0,1,1-1h1.75a1,1,0,0,1,1,1l-.87,11.92A1,1,0,0,1,123.77,35.4Z"/></g></g></svg>