<svg xmlns="http://www.w3.org/2000/svg" viewBox="0 0 136.05 36.08"><defs><style>.cls-1{fill:#575756;}.cls-2{font-size:11.76px;font-family:BebasNeue-Regular, Bebas Neue;}.cls-2,.cls-5,.cls-6,.cls-7{fill:#1d1d1b;}.cls-3{letter-spacing:0em;}.cls-4{letter-spacing:0em;}.cls-5,.cls-7{stroke:#1d1d1b;stroke-miterlimit:10;}.cls-5{stroke-width:0.88px;}.cls-7{stroke-width:1.03px;}</style></defs><g id="Layer_2" data-name="Layer 2"><g id="Layer_1-2" data-name="Layer 1"><polygon class="cls-1" points="107.43 35.4 135.44 35.45 134.83 24.67 130.18 20.96 131.75 19.61 127.3 15.53 125.01 19.16 123.13 20.96 119.12 20.96 114.73 15.53 110.37 19.25 112.01 21.02 106.99 25.64 107.43 35.4"/><text class="cls-2" transform="translate(0 12.16)"><tspan class="cls-3">P</tspan><tspan x="4.59" y="0">SST! need help </tspan><tspan class="cls-4" x="61.87" y="0">t</tspan><tspan x="66.11" y="0">o decide?</tspan><tspan x="30.77" y="14.12">click here</tspan></text><line class="cls-5" x1="75.82" y1="21.3" x2="101.1" y2="21.3"/><path class="cls-6" d="M124.46,21a7.88,7.88,0,0,0,1.67-1.88c.22-.38.44-.76.63-1.15s.27-.58.38-.88.14-.4.52-.13a4.08,4.08,0,0,1,.33.25c.23.15.41.37.65.52a3.85,3.85,0,0,1,.3.27,4.64,4.64,0,0,1,.66.59c.12.1.26.17.37.28l.51.51a2.54,2.54,0,0,1,.28.29c0,.15-.14.16-.21.23-.47.28-.91.6-1.38.87-.86.52-1.7,1.08-2.56,1.61a.81.81,0,0,0-.36,1.14,2.25,2.25,0,0,0,.3.39,5.1,5.1,0,0,1,.61.7c.1.09.19.19.29.29s.3.4.49.57a4,4,0,0,1,.28.3c.1.28.5.37.47.73l-.41,1-.86,2.07a7.32,7.32,0,0,1-.37.87c-.29.69-.56,1.39-.86,2.08a3,3,0,0,0-.28.9l-.71,1.74c0,.21-.19.45.11.61a.77.77,0,0,0,.86.18c.25,0,.33-.25.43-.44.31-.65.54-1.34.86-2a6.77,6.77,0,0,1,.36-.88c.28-.69.56-1.39.86-2.07.13-.3.23-.6.36-.89.3-.69.57-1.39.88-2.07.11-.28.22-.56.34-.84a1,1,0,0,0-.07-1c-.12-.14-.26-.26-.38-.4a5.84,5.84,0,0,0-.51-.59,1.28,1.28,0,0,0-.32-.24l-.54-.62c-.07-.13-.09-.29-.22-.4s0-.28.13-.36.51-.31.75-.48a7.17,7.17,0,0,0,1.25-.87l1.89-1.22c.46-.3.53-.48.38-1,0-.15-.16-.18-.24-.26l-.54-.55a.43.43,0,0,0-.33-.33l-.54-.51a.55.55,0,0,0-.37-.34A3,3,0,0,1,130,17c0-.21-.2-.21-.33-.28l-.62-.52c0-.19-.21-.21-.35-.26l-.61-.46a1.59,1.59,0,0,0-.25-.33c-.21-.41,0-.82,0-1.24,0-.11,0-.23,0-.35s.08-.23.22-.24a4.29,4.29,0,0,1,.5-.07c.45-.07.9-.17,1.34-.28a2.7,2.7,0,0,0,.88-.35,8.49,8.49,0,0,0,1.63-.8,1.31,1.31,0,0,0,.65-1.47c0-.14-.06-.2-.16-.26l-.65-.58c0-.18-.22-.15-.34-.2L131.06,9c-.1-.19-.31-.08-.45-.16l-.78-.2a.69.69,0,0,0-.54-.14l-1-.2a.39.39,0,0,0-.36-.07c-.27,0-.54-.07-.81-.08s-.26-.1-.23-.28a.28.28,0,0,0-.09-.34,3.87,3.87,0,0,1-.27-1c0-.13,0-.26-.09-.34a3.87,3.87,0,0,1-.27-1.05c.07-.18-.07-.3-.14-.44l-.2-.86c0-.16,0-.35-.14-.45l-.27-1a.27.27,0,0,0-.13-.34l-.33-.76c-.06-.15-.07-.31-.25-.38a2.71,2.71,0,0,0-.61-.56c-.15-.25-.43-.14-.64-.22l-1,.08c-.35-.06-.55.18-.78.37-.66.59-.66.59-1.32,0a.24.24,0,0,0-.26-.16,4.89,4.89,0,0,0-1-.29c-.15-.14-.29-.09-.44,0A2.08,2.08,0,0,0,117,1.35c-.11.22-.22.44-.32.66a2.12,2.12,0,0,0-.37.79c-.15.54-.29,1.09-.43,1.64-.06.24-.1.48-.18.71-.17.54-.28,1.09-.43,1.64,0,.23-.1.46-.17.69S115,8,114.62,8l-.86.12c-.48.08-1,.19-1.43.3-.21,0-.42.12-.64.16a8.16,8.16,0,0,0-2.11.89c-.23.2-.54.33-.59.69a1.2,1.2,0,0,0,0,1.12.41.41,0,0,0,.23.28l.72.52c0,.18.23.12.35.17l.87.35c.14.19.37.09.55.16l.84.2a.31.31,0,0,0,.35.08l1.14.18a.29.29,0,0,0,.35.08,5.24,5.24,0,0,1,1,.1,1.62,1.62,0,0,0,.56.19c.4,0,.79.08,1.19.1a3.42,3.42,0,0,1,1,0,4,4,0,0,0,.69,0c.15,0,.31,0,.46,0h3.36a6,6,0,0,0,1.12,0,2.57,2.57,0,0,1,.83,0c.43,0,.86-.11,1.3-.1s.44-.05.34.4a7.08,7.08,0,0,1-.11,1,3,3,0,0,1-.13.65,8.31,8.31,0,0,1-.77,2,5.45,5.45,0,0,1-2.81,2.78,3.61,3.61,0,0,1-1.56.29,1.71,1.71,0,0,1-.45,0,4.24,4.24,0,0,1-.91-.25l-.38-.17a2.83,2.83,0,0,1-.67-.43,3.85,3.85,0,0,0-.3-.27,1.93,1.93,0,0,1-.56-.58,1.59,1.59,0,0,1-.28-.36,4,4,0,0,1-.42-.68q-.14-.24-.24-.48a8.67,8.67,0,0,1-.36-.83,2,2,0,0,1-.15-.47c-.07-.27-.15-.54-.2-.81a2.14,2.14,0,0,0-.18-.44.82.82,0,0,0-.89-.25,10.75,10.75,0,0,0-2.13,1.67c-1,.92-2.1,1.83-3,2.84a1.75,1.75,0,0,0-.37.53.31.31,0,0,0,.1.44l.62.49c0,.19.21.15.33.21l.7.44a1.12,1.12,0,0,0,.34.31c.24.16.5.29.74.46s.25.17.39.24.45.29.67.44l.3.19c.45.28.46.29.13.69s-.73.82-1.09,1.24a3.35,3.35,0,0,0-.87,1.17,1,1,0,0,0,0,.38c.1.3.22.59.34.88a2,2,0,0,1,.17.4c.12.28.22.56.36.84.06.13.1.26.15.39.11.31.27.59.38.89a.57.57,0,0,0,.22.29,4.57,4.57,0,0,1,.37.95.33.33,0,0,0,.16.35,3.89,3.89,0,0,1,.36.87c-.06.17,0,.26.16.35l.28.7c.08.17,0,.41.23.52l.3.76c.07.15,0,.36.19.45s.19.53.41.73.18.22.35.16a.79.79,0,0,0,.72-.53,1.11,1.11,0,0,0,0-.6c-.13-.29-.24-.59-.38-.88-.06-.13-.1-.27-.16-.4s-.18-.44-.28-.66-.16-.38-.23-.57-.23-.47-.3-.73a3.39,3.39,0,0,1-.24-.55c-.1-.22-.18-.45-.28-.68s-.11-.3-.18-.45-.21-.52-.34-.77-.11-.3-.18-.45-.22-.57-.34-.85a1.84,1.84,0,0,1-.17-.38c-.12-.28-.22-.57-.35-.84a.37.37,0,0,1,.06-.47c.45-.5.86-1,1.34-1.51.27-.32.56-.62.82-.95a.84.84,0,0,0,0-1.18,3.21,3.21,0,0,0-.3-.21c-.27-.13-.5-.31-.75-.46a2,2,0,0,1-.39-.25c-.23-.13-.45-.29-.68-.43a1.75,1.75,0,0,1-.29-.18c-.24-.16-.5-.29-.73-.45l-.38-.26a8,8,0,0,1-.69-.43c-.24-.16-.11-.28,0-.41a27.75,27.75,0,0,1,2.59-2.26c.63-.5.63-.5.87.21.07.16.16.32.23.48s.25.49.37.74a3.34,3.34,0,0,0,.25.4c.15.23.29.45.45.67a2.43,2.43,0,0,1,.26.3,5,5,0,0,0,.54.59l.29.28a1.26,1.26,0,0,1,.48.49c.42.21,2,.82,2,.82a3.69,3.69,0,0,0,.93.15h.62a5.47,5.47,0,0,0,1.2-.2"/><path class="cls-6" d="M136,30.14v1.31c.13.15.07.29,0,.44v1.3a.36.36,0,0,1,0,.44l0,1.31a.49.49,0,0,1-.52.51.79.79,0,0,1-.79-.42c-.17-.19,0-.39,0-.59-.08-1,0-2,0-3,0-.72,0-1.44,0-2.16a16.11,16.11,0,0,0-.11-2.3,1.84,1.84,0,0,1-.05-.52,2.57,2.57,0,0,0-.07-.4,3.13,3.13,0,0,0-.3-.94,2.64,2.64,0,0,0-.18-.38,3,3,0,0,0-.56-.66c-.11-.08-.2-.18-.31-.27s-.49-.31-.76-.43-2.38-1.69-2.49-1.79a.74.74,0,0,1-.19-.89.67.67,0,0,1,.34-.28c.31-.16,2.7,1.58,3,1.68s.37,0,.44.24l.68.46a.7.7,0,0,1,.36.34l.52.62c.2,0,.21.22.25.37l.37.76c.19.1.08.31.16.45l.19.94a.34.34,0,0,1,.06.36l0,1.3c.13.15.07.29,0,.44v1.31C136.11,29.85,136.05,30,136,30.14Z"/><path class="cls-6" d="M106.63,29.47v-1.3c-.14-.15-.08-.3,0-.44l.18-1.48c-.09-.25.08-.42.18-.61a5.33,5.33,0,0,1,2.24-2.71c.29-.16,2.08-1.77,2.38-1.92.13-.1.26,0,.4,0a.78.78,0,0,1,.37.91.87.87,0,0,1-.56.53,10.83,10.83,0,0,0-3.38,3.39,2.93,2.93,0,0,0-.22.82,8.81,8.81,0,0,0-.11.88,2.07,2.07,0,0,0,0,.61c0,2.2,0,4.4,0,6.61a2,2,0,0,1-.1.72.86.86,0,0,1-.55.52c-.18.13-.31.05-.44-.08a.92.92,0,0,1-.35-.79c-.14-.14-.07-.29,0-.43V33.4c-.14-.15-.07-.29,0-.44v-1.3c-.14-.15-.07-.3,0-.44V29.91C106.49,29.77,106.56,29.62,106.63,29.47Z"/><path class="cls-7" d="M121,35.4h0a1,1,0,0,1-1-1l-.87-11.92a1,1,0,0,1,1-1h1.75a1,1,0,0,1,1,1L122,34.43A1,1,0,0,1,121,35.4Z"/></g></g></svg>