<?xml version="1.0" encoding="utf-8"?>
<!-- Generator: Adobe Illustrator 25.2.1, SVG Export Plug-In . SVG Version: 6.00 Build 0)  -->
<svg version="1.1" id="Layer_1" xmlns="http://www.w3.org/2000/svg" xmlns:xlink="http://www.w3.org/1999/xlink" x="0px" y="0px"
	 viewBox="0 0 240.9 83.8" style="enable-background:new 0 0 240.9 83.8;" xml:space="preserve">
<style type="text/css">
	.st0{fill:#FFFFFF;}
</style>
<g>
	<g>
		<polygon points="181,68.7 224.3,68.8 223.4,52.2 216.2,46.4 218.6,44.3 211.7,38 208.2,43.6 205.3,46.4 199.1,46.4 192.3,38 
			185.5,43.8 188.1,46.5 180.3,53.6 		"/>
	</g>
	<path class="st0" d="M225.1,59.9c0-0.7,0-1.3,0-2c0.1-0.2,0.2-0.5,0-0.7c0-0.7,0-1.3,0-2c0-0.2,0.1-0.4-0.1-0.6
		c-0.1-0.5-0.2-1-0.3-1.5c-0.1-0.2,0-0.5-0.2-0.7c-0.2-0.4-0.4-0.8-0.6-1.2c-0.1-0.2-0.1-0.5-0.4-0.6c-0.3-0.3-0.5-0.6-0.8-1
		c-0.1-0.2-0.3-0.4-0.6-0.5c-0.4-0.2-0.7-0.5-1.1-0.7c-0.1-0.3-0.5-0.2-0.7-0.4c-0.2-0.1-1.3-0.9-2.4-1.5c0.5-0.3,0.9-0.6,1.4-0.9
		c0.7-0.5,0.8-0.7,0.6-1.6c0-0.2-0.2-0.3-0.4-0.4c-0.3-0.3-0.5-0.6-0.8-0.8c-0.1-0.3-0.2-0.4-0.5-0.5c-0.3-0.3-0.6-0.5-0.8-0.8
		c-0.1-0.3-0.3-0.5-0.6-0.5c-0.3-0.2-0.7-0.5-0.9-0.8c0-0.3-0.3-0.3-0.5-0.4c-0.3-0.3-0.6-0.5-1-0.8c-0.1-0.3-0.3-0.3-0.5-0.4
		c-0.3-0.2-0.6-0.5-0.9-0.7c-0.1-0.2-0.2-0.4-0.4-0.5c-0.3-0.6,0-1.3,0-1.9c0-0.2,0-0.4,0-0.6c0-0.3,0.1-0.3,0.3-0.4
		c0.3-0.1,0.5-0.1,0.8-0.1c0.7-0.1,1.4-0.3,2.1-0.4c0.5-0.1,1-0.2,1.4-0.5c0.8-0.4,1.7-0.7,2.5-1.2c0.8-0.6,1.3-1.2,1-2.3
		c0.1-0.2-0.1-0.3-0.2-0.4c-0.3-0.3-0.7-0.6-1-0.9c-0.1-0.3-0.3-0.2-0.5-0.3c-0.4-0.2-0.9-0.4-1.3-0.6c-0.2-0.3-0.5-0.1-0.7-0.2
		c-0.4-0.1-0.8-0.2-1.2-0.3c-0.2-0.2-0.5-0.2-0.8-0.2c-0.5-0.1-1.1-0.2-1.6-0.3c-0.2-0.2-0.3-0.1-0.5-0.1c-0.4,0-0.8-0.1-1.3-0.1
		c-0.3,0-0.4-0.1-0.4-0.4c0.1-0.2,0-0.4-0.1-0.5c-0.2-0.5-0.3-1.1-0.4-1.6c0-0.2,0.1-0.4-0.1-0.5c-0.2-0.5-0.4-1.1-0.4-1.6
		c0.1-0.3-0.1-0.5-0.2-0.7c-0.1-0.4-0.2-0.9-0.3-1.3c0-0.2,0.1-0.5-0.2-0.7c-0.1-0.5-0.3-1-0.4-1.5c0.1-0.2,0-0.4-0.2-0.5
		c-0.2-0.4-0.3-0.8-0.5-1.2c-0.1-0.2-0.1-0.5-0.4-0.6c-0.3-0.3-0.6-0.6-0.9-0.9c-0.2-0.4-0.7-0.2-1-0.3c-0.5,0-1.1,0.1-1.6,0.1
		c-0.5-0.1-0.9,0.3-1.2,0.6c-1,0.9-1,0.9-2,0c-0.1-0.2-0.2-0.3-0.4-0.2c-0.5-0.2-1.1-0.3-1.6-0.5c-0.2-0.2-0.4-0.1-0.7,0
		c-1.2,0.2-2,0.9-2.4,2c-0.2,0.3-0.3,0.7-0.5,1c-0.3,0.3-0.4,0.8-0.6,1.2c-0.2,0.8-0.4,1.7-0.7,2.5c-0.1,0.4-0.2,0.7-0.3,1.1
		c-0.3,0.8-0.4,1.7-0.7,2.5c-0.1,0.4-0.2,0.7-0.3,1.1c-0.1,0.4-0.2,0.9-0.8,0.9c-0.4,0.1-0.9,0.1-1.3,0.2c-0.7,0.1-1.5,0.3-2.2,0.5
		c-0.3,0.1-0.7,0.2-1,0.3c-1.1,0.3-2.3,0.7-3.2,1.4c-0.4,0.3-0.8,0.5-0.9,1.1c-0.3,0.6-0.3,1.2,0,1.7c0,0.2,0.2,0.4,0.4,0.4
		c0.4,0.3,0.7,0.5,1.1,0.8c0.1,0.3,0.4,0.2,0.5,0.3c0.4,0.2,0.9,0.4,1.3,0.5c0.2,0.3,0.6,0.1,0.8,0.3c0.4,0.1,0.9,0.2,1.3,0.3
		c0.2,0.2,0.3,0.2,0.5,0.1c0.6,0.1,1.2,0.2,1.7,0.3c0.2,0.2,0.3,0.2,0.5,0.1c0.5,0,1.1,0.1,1.6,0.2c0.3,0.1,0.5,0.3,0.9,0.3
		c0.6,0,1.2,0.1,1.8,0.2c0.5,0,1-0.1,1.5,0.1c0.3,0.1,0.7,0,1.1,0.1c0.2,0,0.5,0,0.7,0c0.1,0,0.2,0,0.2,0c1.6,0,3.3,0,4.9,0
		c0.6,0,1.2,0,1.7,0c0.4-0.1,0.8-0.1,1.3-0.1c0.7,0,1.3-0.2,2-0.2c0.7-0.1,0.7-0.1,0.5,0.6c-0.1,0.5,0,1-0.2,1.6
		c0,0.3-0.1,0.7-0.2,1c-0.3,1.1-0.6,2.2-1.2,3.2c-1,1.9-2.3,3.5-4.3,4.3c-0.8,0.3-1.6,0.5-2.4,0.5c-0.2,0-0.5,0-0.7-0.1
		c-0.5-0.1-0.9-0.2-1.4-0.4c-0.2-0.1-0.4-0.2-0.6-0.3c-0.4-0.2-0.7-0.4-1-0.7c-0.2-0.1-0.3-0.3-0.5-0.4c-0.4-0.2-0.6-0.6-0.9-0.9
		c-0.2-0.2-0.3-0.3-0.4-0.6c-0.2-0.3-0.5-0.7-0.6-1.1c-0.1-0.2-0.3-0.5-0.4-0.7c-0.2-0.4-0.4-0.8-0.6-1.3c-0.1-0.2-0.2-0.5-0.2-0.7
		c-0.1-0.4-0.2-0.8-0.3-1.3c-0.1-0.2-0.1-0.5-0.3-0.7c-0.4-0.5-0.8-0.5-1.4-0.4c-1.2,0.7-2.3,1.6-3.3,2.6c-1.6,1.4-3.2,2.8-4.7,4.4
		c-0.2,0.2-0.4,0.5-0.6,0.8c-0.2,0.3-0.1,0.5,0.1,0.7c0.3,0.3,0.6,0.5,1,0.8c0.1,0.3,0.3,0.2,0.5,0.3c0.4,0.2,0.7,0.5,1.1,0.7
		c0,0,0,0,0,0c-1,0.8-2.6,2.2-2.9,2.4c-1.7,1-2.7,2.4-3.5,4.2c-0.2,0.3-0.4,0.6-0.3,0.9c-0.1,0.8-0.2,1.5-0.3,2.3
		c-0.1,0.2-0.2,0.5,0,0.7c0,0.7,0,1.3,0,2c-0.1,0.2-0.2,0.5,0,0.7c0,0.7,0,1.3,0,2c-0.1,0.2-0.2,0.5,0,0.7c0,0.7,0,1.3,0,2
		c-0.1,0.2-0.2,0.5,0,0.7c0,0.7,0,1.3,0,2c-0.1,0.2-0.2,0.5,0,0.7c0,0.5,0.1,0.9,0.6,1.2c0.2,0.2,0.4,0.3,0.7,0.1
		c0.4-0.2,0.7-0.4,0.8-0.8c0.2-0.4,0.2-0.7,0.2-1.1c0-3.4,0-6.8,0-10.2c0-0.3,0-0.6,0.1-0.9c0.1-0.4,0.1-0.9,0.2-1.4
		c0-0.4,0.2-0.9,0.4-1.3c0.5-1.4,3.9-4.6,5.2-5.2c0.2-0.1,0.5-0.2,0.6-0.4c0.2,0.1,0.3,0.2,0.5,0.3c0.4,0.2,0.7,0.4,1,0.7
		c0.2,0.1,0.3,0.2,0.5,0.3c0.7,0.4,0.7,0.5,0.2,1.1c-0.5,0.7-1.1,1.3-1.7,1.9c-0.5,0.6-1.1,1-1.4,1.8c0,0.2,0,0.4,0,0.6
		c0.2,0.5,0.3,0.9,0.5,1.4c0.1,0.2,0.2,0.4,0.3,0.6c0.2,0.4,0.3,0.9,0.5,1.3c0.1,0.2,0.2,0.4,0.2,0.6c0.2,0.5,0.4,0.9,0.6,1.4
		c0.1,0.2,0.2,0.3,0.3,0.4c0.2,0.5,0.5,1,0.6,1.5c0,0.2,0,0.4,0.2,0.5c0.2,0.4,0.4,0.9,0.5,1.3c-0.1,0.3,0.1,0.4,0.2,0.5
		c0.1,0.4,0.3,0.7,0.4,1.1c0.1,0.3,0,0.6,0.4,0.8c0.2,0.4,0.3,0.8,0.5,1.2c0.1,0.2,0,0.5,0.3,0.7c0.3,0.4,0.3,0.8,0.6,1.1
		c0.1,0.2,0.3,0.3,0.5,0.2c0.5-0.1,0.9-0.3,1.1-0.8c0.1-0.3,0.1-0.6,0-0.9c-0.2-0.5-0.4-0.9-0.6-1.4c-0.1-0.2-0.2-0.4-0.2-0.6
		c-0.1-0.3-0.3-0.7-0.4-1c-0.1-0.3-0.2-0.6-0.3-0.9c-0.1-0.4-0.4-0.7-0.5-1.1c-0.1-0.3-0.3-0.6-0.4-0.9c-0.1-0.3-0.3-0.7-0.4-1
		c-0.1-0.2-0.2-0.5-0.3-0.7c-0.2-0.4-0.3-0.8-0.5-1.2c-0.1-0.2-0.2-0.5-0.3-0.7c-0.2-0.4-0.3-0.9-0.5-1.3c-0.1-0.2-0.2-0.4-0.3-0.6
		c-0.2-0.4-0.3-0.9-0.5-1.3c-0.1-0.3-0.1-0.5,0.1-0.7c0.7-0.8,1.3-1.6,2.1-2.3c0.4-0.5,0.9-1,1.3-1.5c0.5-0.6,0.5-1.1,0-1.8
		c-0.1-0.1-0.3-0.2-0.5-0.3c-0.4-0.2-0.8-0.5-1.2-0.7c-0.2-0.1-0.4-0.2-0.6-0.4c-0.4-0.2-0.7-0.5-1.1-0.7c-0.2-0.1-0.3-0.2-0.4-0.3
		c-0.4-0.2-0.8-0.4-1.1-0.7c-0.2-0.1-0.4-0.3-0.6-0.4c-0.4-0.2-0.7-0.4-1.1-0.7c-0.4-0.2-0.2-0.4,0-0.6c1.3-1.2,2.6-2.4,4-3.5
		c1-0.8,1-0.8,1.3,0.3c0.1,0.3,0.2,0.5,0.4,0.7c0.2,0.4,0.4,0.8,0.6,1.1c0.1,0.2,0.3,0.4,0.4,0.6c0.2,0.3,0.5,0.7,0.7,1
		c0.1,0.2,0.3,0.3,0.4,0.5c0.2,0.3,0.6,0.6,0.8,0.9c0.2,0.1,0.3,0.3,0.4,0.4c0.3,0.2,0.6,0.4,0.8,0.8c0.3,0.1,0.9,0.4,1.5,0.6
		c-0.2,0.3-0.3,0.7-0.3,1.1l1.3,18.4c0,1.3,1,2.3,2.3,2.3s2.3-1,2.3-2.2l1.4-18.5c0-0.4-0.1-0.8-0.3-1.1l2-1.2
		c1.1-0.8,1.8-1.9,2.6-2.9c0.3-0.6,0.7-1.2,1-1.8c0.2-0.4,0.4-0.9,0.6-1.4c0.2-0.6,0.2-0.6,0.8-0.2c0.2,0.1,0.3,0.3,0.5,0.4
		c0.4,0.2,0.6,0.6,1,0.8c0.2,0.1,0.3,0.3,0.5,0.4c0.4,0.3,0.7,0.6,1,0.9c0.2,0.2,0.4,0.3,0.6,0.4c0.3,0.3,0.5,0.5,0.8,0.8
		c0.1,0.2,0.3,0.3,0.4,0.5c0,0.2-0.2,0.2-0.3,0.4c-0.7,0.4-1.4,0.9-2.1,1.3c-1.3,0.8-2.6,1.7-4,2.5c-0.7,0.4-0.9,0.9-0.6,1.8
		c0.1,0.2,0.3,0.4,0.5,0.6c0.4,0.3,0.6,0.7,0.9,1.1c0.1,0.1,0.3,0.3,0.4,0.4c0.3,0.3,0.5,0.6,0.8,0.9c0.2,0.1,0.3,0.3,0.4,0.5
		c0.2,0.4,0.8,0.6,0.7,1.1c-0.2,0.5-0.4,1-0.6,1.5c-0.4,1.1-0.9,2.1-1.3,3.2c-0.2,0.5-0.3,0.9-0.6,1.4c-0.5,1.1-0.9,2.1-1.3,3.2
		c-0.2,0.5-0.4,0.9-0.4,1.4c-0.4,0.9-0.7,1.8-1.1,2.7c0,0.3-0.3,0.7,0.2,0.9c0.4,0.4,0.8,0.5,1.3,0.3c0.4-0.1,0.5-0.4,0.7-0.7
		c0.5-1,0.8-2.1,1.3-3.1c0.2-0.5,0.3-0.9,0.6-1.4c0.4-1.1,0.9-2.1,1.3-3.2c0.2-0.5,0.3-0.9,0.6-1.4c0.5-1.1,0.9-2.1,1.4-3.2
		c0.2-0.4,0.3-0.9,0.5-1.3c0.2-0.5,0.3-1.1-0.1-1.6c-0.2-0.2-0.4-0.4-0.6-0.6c-0.3-0.3-0.5-0.6-0.8-0.9c-0.1-0.1-0.3-0.3-0.5-0.4
		c-0.3-0.3-0.6-0.6-0.8-0.9c-0.1-0.2-0.1-0.5-0.3-0.6c-0.2-0.3,0-0.4,0.2-0.6c0.4-0.2,0.8-0.5,1.2-0.7c0.6-0.4,1.2-0.7,1.7-1.1
		c1.1,0.8,3.1,2.2,3.2,2.3c0.4,0.2,0.8,0.4,1.2,0.7c0.2,0.1,0.3,0.3,0.5,0.4c0.3,0.3,0.6,0.6,0.9,1c0.1,0.2,0.2,0.4,0.3,0.6
		c0.2,0.5,0.4,0.9,0.5,1.5c0,0.2,0.1,0.4,0.1,0.6c0,0.3,0,0.5,0.1,0.8c0.1,1.2,0.3,2.4,0.2,3.5c-0.1,1.1,0,2.2,0,3.3
		c0,1.5-0.1,3.1,0,4.6c0,0.3-0.2,0.6,0,0.9c0.3,0.5,0.7,0.7,1.2,0.7c0.5,0,0.8-0.3,0.8-0.8c0-0.7,0-1.3,0-2c0.1-0.2,0.2-0.5,0-0.7
		c0-0.7,0-1.3,0-2c0.1-0.2,0.2-0.5,0-0.7c0-0.7,0-1.3,0-2C225.2,60.4,225.3,60.2,225.1,59.9z"/>
</g>
<g>
	<g>
		<g>
			<path class="st0" d="M16.2,23.2H19c2,0,2.9,1.1,2.9,3.1v1.2c0,2-1,3.1-2.9,3.1h-0.9v5.1h-2V23.2z M19,28.8c0.6,0,1-0.3,1-1.2
				v-1.5c0-0.9-0.3-1.2-1-1.2h-0.9v3.8H19z"/>
			<path class="st0" d="M22.8,32.7V32h1.8v0.9c0,0.9,0.4,1.2,1,1.2c0.6,0,1-0.3,1-1.2c0-1-0.4-1.7-1.7-2.8c-1.6-1.4-2.2-2.5-2.2-3.9
				c0-2,1-3.1,2.9-3.1c1.9,0,2.8,1.1,2.8,3.1v0.5h-1.8v-0.6c0-0.9-0.4-1.2-1-1.2s-1,0.3-1,1.2c0,0.9,0.4,1.6,1.7,2.7
				c1.6,1.4,2.1,2.4,2.1,4c0,2-1,3.2-2.9,3.2S22.8,34.7,22.8,32.7z"/>
			<path class="st0" d="M29.4,32.7V32h1.8v0.9c0,0.9,0.4,1.2,1,1.2c0.6,0,1-0.3,1-1.2c0-1-0.4-1.7-1.7-2.8c-1.6-1.4-2.2-2.5-2.2-3.9
				c0-2,1-3.1,2.9-3.1c1.9,0,2.8,1.1,2.8,3.1v0.5h-1.8v-0.6c0-0.9-0.4-1.2-1-1.2s-1,0.3-1,1.2c0,0.9,0.4,1.6,1.7,2.7
				c1.6,1.4,2.1,2.4,2.1,4c0,2-1,3.2-2.9,3.2S29.4,34.7,29.4,32.7z"/>
			<path class="st0" d="M37.8,25h-2v-1.8h6V25h-2v10.7h-2V25z"/>
			<path class="st0" d="M42.9,28.4v-5.2h2v5.2l-0.2,4h-1.5L42.9,28.4z M43,33.8h1.9v1.9H43V33.8z"/>
			<path class="st0" d="M48.9,23.2h1.9l0.9,9.6h0l0.9-9.6h2.1l0.9,9.6h0l0.9-9.6h1.7L57,35.7h-2.4l-0.9-8.4h0l-0.9,8.4h-2.6
				L48.9,23.2z"/>
			<path class="st0" d="M60.5,23.2h2.6l2,12.4h-2l-0.4-2.5v0h-2.2l-0.4,2.4h-1.8L60.5,23.2z M62.6,31.6l-0.9-6.1h0l-0.9,6.1H62.6z"
				/>
			<path class="st0" d="M66.1,23.2h2.5l1.9,7.4h0v-7.4h1.7v12.4h-2l-2.3-9.1h0v9.1h-1.7V23.2z"/>
			<path class="st0" d="M73.7,23.2h2.5l1.9,7.4h0v-7.4h1.7v12.4h-2l-2.3-9.1h0v9.1h-1.7V23.2z"/>
			<path class="st0" d="M82.8,23.2h2.6l2,12.4h-2l-0.4-2.5v0h-2.2l-0.4,2.4h-1.8L82.8,23.2z M84.9,31.6L84,25.4h0l-0.9,6.1H84.9z"/>
			<path class="st0" d="M90.9,32.7V32h1.8v0.9c0,0.9,0.4,1.2,1,1.2s1-0.3,1-1.2c0-1-0.4-1.7-1.7-2.8c-1.6-1.4-2.2-2.5-2.2-3.9
				c0-2,1-3.1,2.9-3.1c1.9,0,2.8,1.1,2.8,3.1v0.5h-1.8v-0.6c0-0.9-0.4-1.2-1-1.2s-1,0.3-1,1.2c0,0.9,0.4,1.6,1.7,2.7
				c1.6,1.4,2.1,2.4,2.1,4c0,2-1,3.2-2.9,3.2S90.9,34.7,90.9,32.7z"/>
			<path class="st0" d="M97.8,23.2h5.3V25h-3.4v3.3h2.7v1.8h-2.7v3.8h3.4v1.8h-5.3V23.2z"/>
			<path class="st0" d="M104.3,23.2h5.3V25h-3.4v3.3h2.7v1.8h-2.7v3.8h3.4v1.8h-5.3V23.2z"/>
			<path class="st0" d="M113.2,32.7V32h1.8v0.9c0,0.9,0.4,1.2,1,1.2s1-0.3,1-1.2c0-1-0.4-1.7-1.7-2.8c-1.6-1.4-2.2-2.5-2.2-3.9
				c0-2,1-3.1,2.9-3.1c1.9,0,2.8,1.1,2.8,3.1v0.5h-1.8v-0.6c0-0.9-0.4-1.2-1-1.2s-1,0.3-1,1.2c0,0.9,0.4,1.6,1.7,2.7
				c1.6,1.4,2.1,2.4,2.1,4c0,2-1,3.2-2.9,3.2S113.2,34.7,113.2,32.7z"/>
			<path class="st0" d="M120,32.7v-6.5c0-2,1-3.1,3-3.1s3,1.1,3,3.1v6.5c0,2-1,3.1-3,3.1S120,34.7,120,32.7z M124,32.9v-6.8
				c0-0.9-0.4-1.2-1-1.2s-1,0.3-1,1.2v6.8c0,0.9,0.4,1.2,1,1.2S124,33.7,124,32.9z"/>
			<path class="st0" d="M127.3,23.2h2.8l1.2,8.9h0l1.2-8.9h2.8v12.4h-1.8v-9.4h0l-1.4,9.4h-1.6l-1.4-9.4h0v9.4h-1.7V23.2z"/>
			<path class="st0" d="M136.8,23.2h5.3V25h-3.4v3.3h2.7v1.8h-2.7v3.8h3.4v1.8h-5.3V23.2z"/>
			<path class="st0" d="M146.1,23.2h3c2,0,2.9,1.1,2.9,3.1v6.3c0,2-1,3.1-2.9,3.1h-3V23.2z M149,33.9c0.6,0,1-0.3,1-1.2v-6.5
				c0-0.9-0.4-1.2-1-1.2h-1v8.9H149z"/>
			<path class="st0" d="M154.8,23.2h2.6l2,12.4h-2l-0.4-2.5v0h-2.2l-0.4,2.4h-1.8L154.8,23.2z M156.9,31.6l-0.9-6.1h0l-0.9,6.1
				H156.9z"/>
			<path class="st0" d="M161.1,25h-2v-1.8h6V25h-2v10.7h-2V25z"/>
			<path class="st0" d="M166.7,23.2h2.6l2,12.4h-2l-0.4-2.5v0h-2.2l-0.4,2.4h-1.8L166.7,23.2z M168.9,31.6l-0.9-6.1h0l-0.9,6.1
				H168.9z"/>
			<path class="st0" d="M173.2,31.6c0-0.8,0.2-1.5,1-2.6c0.9-1.2,1.1-2,1.1-2.9c0-0.9-0.4-1.2-1-1.2s-1,0.3-1,1.2v1.3h-1.8v-1.2
				c0-2,1-3.1,2.9-3.1c1.9,0,2.9,1.1,2.9,3.1c0,1.1-0.3,2-1.3,3.3c-0.8,1-1,1.6-1,2.3v0.7h-1.7V31.6z M173.1,33.8h1.9v1.9h-1.9V33.8
				z"/>
			<path class="st0" d="M66.7,54.1v-6.7c0-1.9,1-3.1,2.9-3.1c1.9,0,2.9,1.1,2.9,3.1v1.3h-1.8v-1.4c0-0.8-0.4-1.2-1-1.2
				c-0.6,0-1,0.3-1,1.2v6.9c0,0.8,0.4,1.1,1,1.1c0.6,0,1-0.3,1-1.1v-1.9h1.8v1.8c0,1.9-1,3.1-2.9,3.1C67.7,57.2,66.7,56,66.7,54.1z"
				/>
			<path class="st0" d="M73.6,44.5h2v10.7h3.2V57h-5.2V44.5z"/>
			<path class="st0" d="M79.7,44.5h2V57h-2V44.5z"/>
			<path class="st0" d="M83,54.1v-6.7c0-1.9,1-3.1,2.9-3.1c1.9,0,2.9,1.1,2.9,3.1v1.3h-1.8v-1.4c0-0.8-0.4-1.2-1-1.2
				c-0.6,0-1,0.3-1,1.2v6.9c0,0.8,0.4,1.1,1,1.1c0.6,0,1-0.3,1-1.1v-1.9h1.8v1.8c0,1.9-1,3.1-2.9,3.1C84,57.2,83,56,83,54.1z"/>
			<path class="st0" d="M89.9,44.5h2v5.2l2.5-5.2h2L94,49.1l2.4,7.9h-2l-1.7-5.5L91.9,53v4h-2V44.5z"/>
			<path class="st0" d="M100.1,44.5h2v5.1h2.1v-5.1h2V57h-2v-5.6h-2.1V57h-2V44.5z"/>
			<path class="st0" d="M107.6,44.5h5.3v1.8h-3.4v3.3h2.7v1.8h-2.7v3.8h3.4V57h-5.3V44.5z"/>
			<path class="st0" d="M114,44.5h2.9c2,0,2.9,0.9,2.9,2.9v0.8c0,1.3-0.4,2.1-1.3,2.5v0c1,0.3,1.3,1.2,1.3,2.6v2.2
				c0,0.6,0,1,0.2,1.5h-2c-0.1-0.3-0.2-0.5-0.2-1.5v-2.3c0-1.2-0.3-1.5-1.2-1.5H116V57h-2V44.5z M116.7,49.9c0.7,0,1.2-0.3,1.2-1.3
				v-1c0-0.9-0.3-1.3-1-1.3H116v3.6H116.7z"/>
			<path class="st0" d="M121.2,44.5h5.3v1.8h-3.4v3.3h2.7v1.8h-2.7v3.8h3.4V57h-5.3V44.5z"/>
		</g>
	</g>
	<g>
		<line class="st0" x1="134.1" y1="49.5" x2="172.2" y2="49.5"/>
		<rect x="134.1" y="48.8" class="st0" width="38.2" height="1.3"/>
	</g>
</g>
</svg>
