<?xml version="1.0" encoding="utf-8"?>
<!-- Generator: Adobe Illustrator 25.4.1, SVG Export Plug-In . SVG Version: 6.00 Build 0)  -->
<svg version="1.1" id="Layer_1" xmlns="http://www.w3.org/2000/svg" xmlns:xlink="http://www.w3.org/1999/xlink" x="0px" y="0px"
	 viewBox="0 0 54.4 54.4" style="enable-background:new 0 0 54.4 54.4;" xml:space="preserve">
<style type="text/css">
	.st0{stroke:#FFFFFF;stroke-width:2;stroke-miterlimit:10;}
	.st1{enable-background:new    ;}
	.st2{fill:#FFFFFF;}
</style>
<g id="Layer_2_1_">
	<g id="Layer_1-2">
		<circle class="st0" cx="27.2" cy="27.2" r="26.2"/>
		<g class="st1">
			<path class="st2" d="M26,35.4c-2.1-0.4-3.2-2-3.2-4.4v-1.2h2.8v1.4c0,1.1,0.6,1.6,1.5,1.6s1.5-0.5,1.5-1.7c0-1.3-0.5-2.3-2.5-3.8
				c-2.4-1.9-3.2-3.4-3.2-5.4c0-2.3,1-3.8,3.1-4.3v-1.6h2.4v1.6c2.1,0.4,3.1,2,3.1,4.3v0.5h-2.8v-0.7c0-1.1-0.5-1.6-1.5-1.6
				s-1.5,0.5-1.5,1.6c0,1.2,0.5,2.1,2.5,3.7c2.4,1.9,3.2,3.4,3.2,5.5c0,2.4-1.1,4-3.2,4.4v1.9H26V35.4z"/>
		</g>
	</g>
</g>
</svg>
