<?xml version="1.0" encoding="utf-8"?>
<!-- Generator: Adobe Illustrator 25.4.1, SVG Export Plug-In . SVG Version: 6.00 Build 0)  -->
<svg version="1.1" id="Layer_1" xmlns="http://www.w3.org/2000/svg" xmlns:xlink="http://www.w3.org/1999/xlink" x="0px" y="0px"
	 viewBox="0 0 73.6 73.6" style="enable-background:new 0 0 73.6 73.6;" xml:space="preserve">
<style type="text/css">
	.st0{fill:#BF3100;stroke:#FFFFFF;stroke-width:2;stroke-miterlimit:10;}
	.st1{enable-background:new    ;}
	.st2{fill:#FFFFFF;}
</style>
<g id="Layer_2_1_">
	<g id="Layer_1-2">
		<circle class="st0" cx="36.8" cy="36.8" r="35.8"/>
		<g class="st1">
			<path class="st2" d="M35.2,48c-2.9-0.6-4.3-2.8-4.3-6v-1.7h3.8v1.9c0,1.6,0.8,2.2,2.1,2.2s2.1-0.7,2.1-2.3c0-1.8-0.7-3.1-3.4-5.2
				c-3.3-2.6-4.4-4.6-4.4-7.4c0-3.1,1.4-5.2,4.2-5.9v-2.2h3.3v2.2c2.8,0.6,4.3,2.8,4.3,5.9v0.7h-3.8v-1c0-1.6-0.7-2.2-2-2.2
				s-2,0.7-2,2.2c0,1.7,0.7,2.9,3.4,5.1c3.3,2.6,4.4,4.6,4.4,7.5c0,3.3-1.5,5.5-4.3,6v2.5h-3.3L35.2,48L35.2,48z"/>
		</g>
	</g>
</g>
</svg>
