<svg xmlns="http://www.w3.org/2000/svg" viewBox="0 0 227.08 108.8"><defs><style>.cls-1,.cls-5{fill:none;stroke-miterlimit:10;}.cls-1{stroke:#393e46;}.cls-2{fill:#393e46;}.cls-3{fill:#222831;}.cls-4{fill:#e30f3e;}.cls-5{stroke:#e30f3e;}</style></defs><g id="Layer_2" data-name="Layer 2"><g id="Layer_1-2" data-name="Layer 1"><polyline class="cls-1" points="221.25 7.82 213.18 19.99 226.25 0.28"/><path class="cls-2" d="M226.25.28c-3.67,2.67-8.84,5.59-13,6.74l7.37,1.79,4.52,6.09A45.19,45.19,0,0,1,226.25.28Z"/><path class="cls-2" d="M72.44,37.08,89,35.78c8.21,0,7.14,5.11,7.14,12.89v2c0,5.19-1.58,8.43-5.11,9.87v.14c4.25,1.44,5.9,5.19,5.9,10.52v4.32c0,7.77-4.1,12-12,12H72.44Zm11,20.52c3,0,4.75-1.3,4.75-5.33V49.46c0-3.6-1.23-5.18-4-5.18H80.36V57.6ZM84.9,80.28c2.66,0,4.1-1.22,4.1-5V70.92c0-4.68-1.51-6.12-5.11-6.12H80.36V80.28Z"/><path class="cls-2" d="M101.53,35.08,114,32.78c8.21,0,11,8.11,11,15.89v3.09c0,5.19-1.66,8.5-5.18,9.94v.15c4,1.22,5.25,5,5.25,10.65v8.86a14.7,14.7,0,0,0,.87,6.12h-8.07c-.43-1.3-.72-2.09-.72-6.19V72.07c0-4.68-1.37-6.19-5-6.19h-2.73v21.6h-7.92Zm10.8,23.6c3,0,4.75-1.3,4.75-5.33V49.46c0-3.6-1.22-5.18-4-5.18h-3.6v14.4Z"/><path class="cls-2" d="M131,31.78l21,4,.15,8.5H138.46V57.6h10.88v7.2H138.46V80.28h13.68v7.2h-21.6Z"/><path class="cls-2" d="M163,35.78l13-5,5.75,56.7h-7.92l-1.44-10v.15h-9l-1.44,9.86h-7.34Zm8.45,35-3.53-24.91h-.14l-3.46,24.91Z"/><path class="cls-2" d="M185,30.78l7-5,1.48,32.54L205,17.78l12-5-15,42.8,9.58,31.9h-8.28L196.64,65l-3.17,6.41V87.48h-7.92Z"/><path class="cls-3" d="M168.08,12.36h0a1.39,1.39,0,0,1,0,2.78H167a2.78,2.78,0,0,0-2,4.73l.75.75a1.37,1.37,0,0,1,.37.94A1.4,1.4,0,0,1,164.79,23a1.35,1.35,0,0,1-.94-.37l-.75-.74a2.77,2.77,0,0,0-4.73,2v1.05a1.39,1.39,0,0,1-2.78,0V23.8a2.78,2.78,0,0,0-4.74-2l-.74.75a1.39,1.39,0,0,1-2.33-1,1.35,1.35,0,0,1,.37-.94l.74-.75a2.77,2.77,0,0,0-2-4.73h-1.08a1.39,1.39,0,1,1,0-2.78h1.08a2.78,2.78,0,0,0,2-4.74l-.74-.74a1.39,1.39,0,0,1,2-2l.74.74a2.78,2.78,0,0,0,4.74-2V2.65a1.39,1.39,0,0,1,2.78,0V3.7a2.77,2.77,0,0,0,4.73,2l.75-.74a1.39,1.39,0,0,1,2,2l-.74.74a2.78,2.78,0,0,0,2,4.74Zm-10.32-.17a2.34,2.34,0,1,0-2.34,2.34A2.35,2.35,0,0,0,157.76,12.19Zm2.73,3.9a1.17,1.17,0,1,0-1.17,1.17A1.17,1.17,0,0,0,160.49,16.09Z"/><path class="cls-3" d="M0,70.62v-27c0-8.21,4.32-12.9,12.23-12.9s12.24,4.69,12.24,12.9v27c0,8.2-4.32,12.89-12.24,12.89S0,78.82,0,70.62Zm16.41.51v-28c0-3.66-1.61-5-4.18-5s-4.17,1.39-4.17,5v28c0,3.66,1.61,5.05,4.17,5.05S16.41,74.79,16.41,71.13Z"/><path class="cls-3" d="M29.59,70.62V31.5h8.06V71.2c0,3.66,1.54,5,4.1,5s4.11-1.32,4.11-5V31.5h7.76V70.62c0,8.2-4.1,12.89-12,12.89S29.59,78.82,29.59,70.62Z"/><path class="cls-3" d="M66.67,38.92l-8.43-.05,0-7.32,24.9.15,0,7.33L74.72,39l-.27,44-8.06-.05Z"/><path class="cls-3" d="M0,70.62v-27c0-8.21,4.32-12.9,12.23-12.9s12.24,4.69,12.24,12.9v27c0,8.2-4.32,12.89-12.24,12.89S0,78.82,0,70.62Zm16.41.51v-28c0-3.66-1.61-5-4.18-5s-4.17,1.39-4.17,5v28c0,3.66,1.61,5.05,4.17,5.05S16.41,74.79,16.41,71.13Z"/><path class="cls-3" d="M29.59,70.62V31.5h8.06V71.2c0,3.66,1.54,5,4.1,5s4.11-1.32,4.11-5V31.5h7.76V70.62c0,8.2-4.1,12.89-12,12.89S29.59,78.82,29.59,70.62Z"/><path class="cls-3" d="M66.67,38.92l-8.43-.05,0-7.32,24.9.15,0,7.33L74.72,39l-.27,44-8.06-.05Z"/><path class="cls-4" d="M74.75,38.25,91.29,37c8.21,0,7.15,5.11,7.15,12.88v2c0,5.18-1.59,8.42-5.12,9.86v.15c4.25,1.44,5.91,5.18,5.91,10.51V76.7c0,7.78-4.11,12-12,12H74.75Zm11,20.52c3,0,4.76-1.29,4.76-5.33V50.63c0-3.6-1.23-5.18-4-5.18H82.67V58.77ZM87.2,81.45c2.67,0,4.11-1.22,4.11-5V72.09c0-4.68-1.51-6.12-5.11-6.12H82.67V81.45Z"/><path class="cls-4" d="M103.83,36.25,116.29,34c8.21,0,11,8.11,11,15.88v3.1c0,5.18-1.66,8.5-5.19,9.94V63c4,1.22,5.26,5,5.26,10.66v8.85a14.87,14.87,0,0,0,.86,6.12h-8.06c-.43-1.29-.72-2.08-.72-6.19V73.24c0-4.68-1.37-6.19-5-6.19h-2.74v21.6h-7.92Zm10.8,23.6c3,0,4.76-1.29,4.76-5.33V50.63c0-3.6-1.23-5.18-4-5.18h-3.6v14.4Z"/><path class="cls-4" d="M133.29,33l21,4,.16,8.49H140.77V58.77h10.87V66H140.77V81.45h13.68v7.2h-21.6Z"/><path class="cls-4" d="M165.29,37l13-5L184,88.65h-7.92l-1.44-10v.14h-9l-1.44,9.86H156.9Zm8.46,35L170.22,47h-.15L166.62,72Z"/><path class="cls-4" d="M187.29,32l7-5,1.49,32.53L207.29,19l12-5L204.35,56.75l9.57,31.9h-8.28l-6.7-22.46-3.16,6.41V88.65h-7.92Z"/><polyline class="cls-5" points="221.65 9.3 213.58 21.46 226.66 1.75"/><path class="cls-4" d="M226.66,1.75a45.19,45.19,0,0,1-13,6.74l7.37,1.8,4.51,6.09C224.94,12.07,225.62,6.18,226.66,1.75Z"/><path class="cls-3" d="M197.87,94.8h3.32c2.28,0,3.26,1.06,3.26,3.22v.56c0,1.44-.44,2.34-1.42,2.74v0c1.18.4,1.64,1.44,1.64,2.92v1.2c0,2.16-1.14,3.32-3.34,3.32h-3.46Zm3.06,5.7c.82,0,1.32-.36,1.32-1.48v-.78c0-1-.34-1.44-1.12-1.44h-1.06v3.7Zm.4,6.3c.74,0,1.14-.34,1.14-1.38V104.2c0-1.3-.42-1.7-1.42-1.7h-1v4.3Z"/><path class="cls-3" d="M206,94.8h6v2h-3.8v3.7h3v2h-3v4.3H212v2h-6Z"/><path class="cls-3" d="M214.93,96.8h-2.3v-2h6.8v2h-2.3v12h-2.2Z"/><path class="cls-3" d="M221.27,94.8h3l2.28,14h-2.2l-.4-2.78v0h-2.5l-.4,2.74h-2Zm2.4,9.36-1-6.92h0l-1,6.92Z"/></g></g></svg>