<svg xmlns="http://www.w3.org/2000/svg" viewBox="0 0 25.03 37.49"><defs><style>.cls-1{fill:red;}.cls-2{fill:#393e46;}</style></defs><g id="Layer_2" data-name="Layer 2"><g id="Layer_1-2" data-name="Layer 1"><path class="cls-1" d="M24.14.27c-.35,2.23-.82,4.4-1.28,6.58l-.76,3.24-.85,3.19c-.29,1.07-.46,2.18-.67,3.28a8.28,8.28,0,0,1-1.25,3,14.7,14.7,0,0,1-2.23,2.61,12.07,12.07,0,0,1-3.24,2.18l-.64-.27a11.92,11.92,0,0,1-.67-3.85,14.56,14.56,0,0,1,.34-3.41,8.08,8.08,0,0,1,1.32-3c.64-.91,1.33-1.81,1.89-2.75l1.72-2.83,1.82-2.79C20.89,3.63,22.13,1.79,23.5,0Z"/><path class="cls-2" d="M23.62,23.61h0a1.39,1.39,0,0,1,0,2.78H22.57a2.78,2.78,0,0,0-2,4.74l.75.74a1.43,1.43,0,0,1,.36.94,1.38,1.38,0,0,1-1.38,1.39,1.35,1.35,0,0,1-.94-.37l-.75-.74a2.78,2.78,0,0,0-4.74,2V36.1a1.39,1.39,0,1,1-2.77,0V35.05a2.78,2.78,0,0,0-4.74-2l-.74.74a1.39,1.39,0,0,1-2-2l.74-.74a2.78,2.78,0,0,0-2-4.74H1.39a1.39,1.39,0,0,1,0-2.78H2.47a2.77,2.77,0,0,0,2-4.73l-.74-.75a1.35,1.35,0,0,1-.38-.94,1.39,1.39,0,0,1,2.34-1l.74.74a2.78,2.78,0,0,0,4.74-2v-1a1.39,1.39,0,1,1,2.77,0v1a2.78,2.78,0,0,0,4.74,2l.75-.74a1.37,1.37,0,0,1,.94-.37,1.39,1.39,0,0,1,1,2.33l-.75.75a2.77,2.77,0,0,0,2,4.73Z"/></g></g></svg>