<svg xmlns="http://www.w3.org/2000/svg" viewBox="0 0 378.88 647.89"><defs><style>.cls-1{fill:#ffa600;}.cls-1,.cls-2,.cls-3,.cls-4,.cls-5,.cls-6,.cls-7,.cls-8,.cls-9{stroke:#1d1d1b;stroke-miterlimit:10;}.cls-1,.cls-2,.cls-3,.cls-4,.cls-5,.cls-6,.cls-7{stroke-width:10px;}.cls-2{fill:#ac2401;}.cls-3{fill:#fdecc9;}.cls-4,.cls-8{fill:none;}.cls-5{fill:#5c3a2c;}.cls-6{fill:#857f7d;}.cls-7,.cls-9{fill:#1d1d1b;}.cls-8,.cls-9{stroke-width:14px;}</style></defs><g id="Layer_2" data-name="Layer 2"><g id="Layer_1-2" data-name="Layer 1"><path class="cls-1" d="M73.74,370l-1.16,62.26L47.63,419l-8.19-8.64A115.73,115.73,0,0,1,73.74,370Z"/><path class="cls-2" d="M72.58,432.25l-1.51,80.68-1.13-.39-16.4-5.73L36.77,500.9A19.26,19.26,0,0,1,25.9,482.78Q36.78,450.91,47.63,419Z"/><path class="cls-3" d="M70.77,518.62q-10,15.81-20.06,31.64a38.1,38.1,0,0,1-14.12-16.39c-7-15.6-1-30.54,0-33l16.95,5.91,16.4,5.73C70.22,514.56,70.49,516.59,70.77,518.62Z"/><line class="cls-4" x1="73.74" y1="432.87" x2="72.58" y2="432.25"/><path class="cls-5" d="M168,616.16v26.73H47.58a16,16,0,0,1-4.3-10c-.14-8,7.15-16,18.28-18.64Z"/><path class="cls-2" d="M168,540v50.18L61.49,589.12q-.08-23.67-.14-47.32c.5-29.56,25-53.29,53.8-53C143,489,166.6,511.49,168,540Z"/><path class="cls-1" d="M168,590.19v26L61.56,614.21q0-12.54-.07-25.09Z"/><path class="cls-1" d="M282,504H71.59q0-32.56,1.07-67,1.26-39.14,3.87-75.88L232,353.53Q257,428.74,282,504Z"/><path class="cls-2" d="M284.26,574.72A675.89,675.89,0,0,1,164.11,588.4,676.33,676.33,0,0,1,41,580.07Q56.3,542,71.59,504H282Q283.11,539.33,284.26,574.72Z"/><path class="cls-5" d="M270.65,615.44v26.73H150.2a16,16,0,0,1-4.3-10c-.14-8,7.15-16,18.28-18.64Z"/><path class="cls-2" d="M270.65,539.29v50.18L164.11,588.4q-.08-23.67-.14-47.32c.5-29.56,25-53.29,53.8-53.05C245.62,488.25,269.22,510.77,270.65,539.29Z"/><path class="cls-1" d="M270.65,589.47v26l-106.47-2q0-12.54-.07-25.09Z"/><path class="cls-1" d="M297.87,414.52,290.35,419l-33.06,19.84-46.11-1.63-9.08-.32c-1.45-3.36-10.39-25,.65-47.4,1.86-3.76,11-22.3,31.82-27.27,22.75-5.43,40.58,9.88,43.83,12.66C295.71,389.78,297.58,410.27,297.87,414.52Z"/><path class="cls-2" d="M312.81,493.25a113.06,113.06,0,0,1-14.52,7.65,111.25,111.25,0,0,1-78.33,4l-8.78-67.69,46.11,1.63L290.35,419Z"/><path class="cls-3" d="M298.29,500.9V532c-.77,1.29-13.16,21.29-36.3,21.7-17.08.31-28.35-10.26-30.6-12.47q-3.76-17.55-7.54-35.1a111.23,111.23,0,0,0,74.44-5.19Z"/><line class="cls-4" x1="298.29" y1="500.9" x2="298.29" y2="500.89"/><path class="cls-3" d="M244.76,373.89c-14.7,1-29.92,1.63-45.62,1.86a882.72,882.72,0,0,1-109.46-5.2L49.23,327.74l-5.41-22.67-4.38-63.36A72.87,72.87,0,0,1,69.66,189c13.94-1,28.94-1.63,44.88-1.56,14,.06,27.34.64,39.8,1.56l14.86,14.17a240.14,240.14,0,0,0,53.57,27.5l-6,67.53,9.49,41.13Z"/><path class="cls-5" d="M361.66,358.2a882.11,882.11,0,0,1-116.9,15.69l-18.51-34.55-9.49-41.13,6-67.53A235.63,235.63,0,0,0,253,239.45a239.44,239.44,0,0,0,80.4,3.79Q347.51,300.72,361.66,358.2Z"/><path class="cls-5" d="M89.68,370.55C60.61,367.36,34.13,363,10.56,358.2L25.89,235.88l13.55,5.83,4.38,63.36,5.41,22.67Z"/><path class="cls-6" d="M363.93,232.22c-9.87,10.07-24.12,11-30.58,11a239.44,239.44,0,0,1-80.4-3.79,235.63,235.63,0,0,1-30.18-8.77,240.14,240.14,0,0,1-53.57-27.5L154.34,189c-12.46-.92-25.76-1.5-39.8-1.56C98.6,187.38,83.6,188,69.66,189a72.87,72.87,0,0,0-30.22,52.7l-13.55-5.83A34.26,34.26,0,0,1,5,205.48q2.12-21,4.24-42.1c5.95-16.8,18.26-43.44,44.24-62.22A100.72,100.72,0,0,1,85.57,85.64c43.22-12.19,95.82,2.6,161.7,21.13,43.32,12.18,81.63,23.34,104.21,44.16h0A63.93,63.93,0,0,1,369,177C370.2,180.35,382,213.8,363.93,232.22Z"/><path class="cls-2" d="M351.48,150.93c-22.58-20.82-60.89-32-104.21-44.16C181.39,88.24,128.79,73.45,85.57,85.64l20.7-22.78A252.41,252.41,0,0,1,182,51.29c6.19,0,13.28,0,21,.37,26.54,1.2,60.8,6.42,93.17,29.36a158.41,158.41,0,0,1,43.54,47.09A179.58,179.58,0,0,1,351.48,150.93Z"/><line class="cls-4" x1="351.48" y1="150.94" x2="351.48" y2="150.93"/><path class="cls-2" d="M340,106.21c-.1,9.17-.22,16.74-.31,21.9A158.41,158.41,0,0,0,296.17,81c-1.12-13.68-2.8-24.89-4.26-33.11-1.26-7.11-2.16-10.87-4.82-14.83-5.77-8.56-15.42-11.56-20.65-12.71C268,18.43,278.88,4.84,296.17,5c11.39.1,19.39,6.12,22.6,8.61,10.52,8.15,14.29,19,17.11,27.5C339.6,52.28,340.48,61.92,340,106.21Z"/><path class="cls-1" d="M296.17,81C263.8,58.08,229.54,52.86,203,51.66l7.91-.37,11.64-17.47A38.32,38.32,0,0,1,250,19.21l16.49,1.16c5.23,1.15,14.88,4.15,20.65,12.71,2.66,4,3.56,7.72,4.82,14.83C293.37,56.13,295.05,67.34,296.17,81Z"/><ellipse class="cls-7" cx="164.1" cy="251.51" rx="5.07" ry="7.6"/><path class="cls-8" d="M82.59,353.53V327.27a8.22,8.22,0,0,1,1.87-6.17,8.32,8.32,0,0,1,6.3-2.76h12.87"/><path class="cls-8" d="M121,318.35h23.88a6.46,6.46,0,0,1,4.24,1.21,6.91,6.91,0,0,1,2.53,5.68v28.24"/><polygon class="cls-9" points="147.58 360.22 121.34 416.56 88.51 360.27 116.85 360.27 147.58 360.22"/><ellipse class="cls-4" cx="73.74" cy="254.48" rx="4.53" ry="6.54"/></g></g></svg>