<?xml version="1.0" encoding="utf-8"?>
<!-- Generator: Adobe Illustrator 25.2.1, SVG Export Plug-In . SVG Version: 6.00 Build 0)  -->
<svg version="1.1" id="Layer_1" xmlns="http://www.w3.org/2000/svg" xmlns:xlink="http://www.w3.org/1999/xlink" x="0px" y="0px"
	 viewBox="0 0 338.9 585.2" style="enable-background:new 0 0 338.9 585.2;" xml:space="preserve">
<style type="text/css">
	.st0{fill:#FF6244;}
	.st1{fill:#1D1D1B;}
	.st2{fill:#2DB8FF;}
	.st3{fill:#754311;}
	.st4{fill:#FDECC9;}
	.st5{fill:#0A5B00;}
	.st6{fill:none;stroke:#1D1D1B;stroke-width:10;stroke-miterlimit:10;}
	.st7{fill:#00C318;}
	.st8{fill:#212D56;stroke:#1D1D1B;stroke-width:10;stroke-miterlimit:10;}
	.st9{fill:#FFA600;stroke:#1D1D1B;stroke-width:10;stroke-miterlimit:10;}
	.st10{fill:#AC2401;stroke:#1D1D1B;stroke-width:10;stroke-miterlimit:10;}
	.st11{fill:#04364D;stroke:#1D1D1B;stroke-width:10;stroke-miterlimit:10;}
	.st12{fill:#EC4600;}
	.st13{fill:#676C75;}
	.st14{fill:#2B2B2B;}
	.st15{fill:#FFAA5B;}
	.st16{fill:#8C3884;}
	.st17{fill:#006277;}
	.st18{fill:#016775;}
	.st19{fill:#DA1915;}
	.st20{fill:#DA0E15;}
	.st21{fill:#0F6BAA;}
	.st22{fill:#2A5072;}
	.st23{fill:#126F93;}
	.st24{fill:#C34A8C;}
	.st25{fill:#754311;stroke:#1D1D1B;stroke-width:10;stroke-miterlimit:10;}
	.st26{fill:#FFFDCC;}
	.st27{fill:#8FBF21;}
	.st28{fill:#212D56;}
	.st29{fill:#CC2517;}
	.st30{fill:#E52B12;}
	.st31{fill:#2D4E9D;}
	.st32{fill:#8FBF21;stroke:#1D1D1B;stroke-width:11.0185;stroke-miterlimit:10;}
	.st33{fill:#6BC8ED;}
	.st34{fill:#FFD132;}
</style>
<g>
	<path class="st12" d="M277.8,244.8c-2-3.2-2.3-8.4-3.7-9.5c-3.8-3,1-5.3-0.9-9.7l-32.6-73.8l-63-82.3c0,0-16.8-14.3-14.1-29.6
		c0,0,6.9-13.2,22.3-23.2s35.2-9.7,47-9.3C251,8,281.6,9.9,290.9,40.3s7.5,42.1,7.4,64.3c0,22.2,0,40,0,58.6s-7.5,48.3,0.3,52.5
		c7.9,4.2,14.1,6.9,20.6,14.1c6.4,7.2,16.3,18.1,6.9,16.8c-4.3-0.6-7.7,0.8-9.8,2.9c-4.6,4.5-7.5,5.4-13.2,5.3l-7.5-0.2
		c-4.1,0.2-8.1-1.1-11.3-3.6C281.6,248.9,278.9,246.5,277.8,244.8z"/>
	<path class="st1" d="M303.8,259.8c-0.3,0-0.5,0-0.8,0l-7.4-0.2c-5.2,0.2-10.3-1.4-14.4-4.7c-3.8-2.9-6.3-5.4-7.6-7.4l0-0.1
		c-1.4-2.2-2.1-4.8-2.7-6.9c-0.2-0.6-0.4-1.4-0.5-1.9c-4-3.7-2.6-8-2-9.7c0.4-1.2,0.4-1.2,0.3-1.4l-32.3-73.2l-62.3-81.4
		c-2.9-2.6-18.3-17.3-15.4-33.9l0.1-0.8l0.4-0.7c0.3-0.6,7.7-14.5,24-25.1C200.3,1.3,222.4,2,233,2.4c16.9,0.6,52.1,1.7,62.7,36.4
		c8.2,26.9,8,39.5,7.7,57c0,2.8-0.1,5.7-0.1,8.8v58.6c0,6.5-0.9,14.2-1.7,21.6c-0.9,8.3-2.7,23.8-0.5,26.6c0.9,0.5,1.8,0.9,2.7,1.4
		c6.9,3.6,12.8,6.7,19.1,13.7l0.5,0.6c8.6,9.6,13.6,15.8,10.8,21.1c-1,2-3.4,4.2-8.8,3.4c-3.2-0.4-5,0.9-5.6,1.5
		C314.7,258.1,310.7,259.8,303.8,259.8z M295.5,249.6l7.7,0.2c4.4,0.1,6-0.4,9.6-3.9c2.6-2.6,6-4.1,9.8-4.4
		c-2.1-2.7-4.9-5.9-6.7-7.9l-0.5-0.5c-5.1-5.6-10-8.2-16.3-11.5c-0.9-0.5-1.9-1-2.9-1.5c-8.2-4.4-6.6-18.5-4.6-36.4
		c0.8-7.1,1.6-14.5,1.6-20.5v-58.6c0-3.2,0.1-6.1,0.1-8.9c0.3-16.6,0.5-28.6-7.3-53.9c-7.5-24.5-30.1-28.6-53.5-29.4
		c-9.6-0.3-29.5-1-44.1,8.5c-12.1,7.9-18.6,18-20.2,20.7c-1.4,12,12.4,24,12.5,24.1l0.4,0.3l0.3,0.4l63.4,82.8l0.2,0.5l32.6,73.8
		c1.6,3.7,0.7,6.7,0.1,8.4c1.5,1.5,2.1,3.7,2.7,5.9c0.4,1.5,0.9,3.2,1.5,4.2c0.4,0.6,2,2.3,5.4,4.9c2.3,1.8,5.1,2.7,8,2.6
		L295.5,249.6z M271,239.2C271,239.2,271,239.2,271,239.2C271,239.2,271,239.2,271,239.2z"/>
</g>
<g>
	<path class="st13" d="M250.2,476.7v50.2l-106.5-1.1c0-15.8-0.1-31.6-0.1-47.3c0.5-29.6,25-53.3,53.8-53
		C225.2,425.6,248.8,448.1,250.2,476.7z"/>
	<path class="st1" d="M255.2,532l-116.5-1.2v-4.9c0-7.9,0-15.8-0.1-23.7c0-7.9,0-15.7,0-23.6c0.5-32.1,26.6-58,58.2-58
		c0.2,0,0.4,0,0.6,0c14.8,0.1,28.9,5.8,39.7,16.3c10.9,10.5,17.3,24.6,18,39.6l0,0.2V532z M148.7,520.9l96.5,1v-45
		c-0.6-12.5-6-24.1-15-32.8c-9-8.7-20.7-13.5-32.8-13.5c-0.2,0-0.3,0-0.5,0c-26.2,0-47.8,21.5-48.3,48.1c0,7.7,0,15.6,0.1,23.5
		C148.7,508.3,148.7,514.6,148.7,520.9z"/>
</g>
<g>
	<path class="st14" d="M52.2,369.6l-1.5,80.7l-1.2-0.4l-16.4-5.7l-16.8-5.9c-6.9-3.3-8.9-3.1-8.6-10.8c7.1-20.7,12.5-37.5,19.6-58.1
		c0.4-1.2,0.7-2.4,1-3.6l1.5-4.6c0.3-1.4,3-8.1,3.6-9.5c7.3-15.2,6-34.2,19.8-44.4h0.1l-1,53.8L52.2,369.6z"/>
	<path class="st1" d="M55.6,457.2l-7.7-2.6l-16.5-5.7l-17.3-6.1c-0.8-0.4-1.6-0.7-2.3-1c-5.9-2.7-9.5-4.8-9.2-14.5l0-0.7l0.2-0.7
		c3.4-9.9,6.5-19.1,9.4-27.9c3.2-9.6,6.5-19.5,10.2-30.2c0.3-1,0.6-2,0.9-3.2l0.1-0.3l1.4-4.4c0.7-2.6,3.8-10,3.8-10.1l0.1-0.2
		c2.4-5,3.8-10.7,5.3-16.2c2.8-11,5.8-22.5,16.1-30.1l1.3-1h6.7l0,5.1l-1,53.8l-0.1,8.5L55.6,457.2z M18.2,433.7l27.6,9.7l1.4-73.8
		l0.1-8.5l0.7-38.8c-1.7,4.1-2.9,8.7-4.2,13.6c-1.5,5.9-3.1,12.1-5.9,17.9c-0.8,1.8-3,7.4-3.3,8.5l-0.1,0.4l-1.4,4.4
		c-0.3,1.2-0.6,2.5-1.1,3.8c-3.7,10.7-7,20.6-10.2,30.1c-2.9,8.7-5.9,17.6-9.2,27.3c0,2.1,0.2,2.6,0.2,2.7c0.3,0.3,1.9,1,3.1,1.6
		C16.7,433,17.4,433.3,18.2,433.7z"/>
</g>
<g>
	<path class="st15" d="M50.3,456c-6.7,10.5-5.8,23.6-12.5,34.1c-6.2-4-18.7-12.1-21.7-18.9c-7-15.6-1-30.5,0-33l16.9,5.9l16.4,5.8
		C49.8,451.9,50.1,453.9,50.3,456z"/>
	<path class="st1" d="M39.3,497l-4.2-2.7c-10.4-6.7-20.4-13.9-23.6-21.1c-7.1-15.8-2.4-31-0.1-36.9l1.8-4.4l4.5,1.6l16.9,5.9
		l19.1,6.8l0.6,2.8c0.4,2.2,0.8,4.4,1,6.6l0.2,1.7l-0.9,1.5c-2.9,4.6-4.2,9.9-5.6,15.6c-1.5,6.2-3.1,12.6-6.9,18.5L39.3,497z
		 M19.2,444.6c-1.6,6-2.8,15.2,1.4,24.6c1.8,4.2,9.6,9.9,15.3,13.7c1.4-3.4,2.3-7.1,3.3-11c1.4-5.7,2.8-11.5,6-17
		c-0.1-0.4-0.1-0.8-0.2-1.2l-13.6-4.8L19.2,444.6z"/>
</g>
<g>
	
		<rect x="47.8" y="369.3" transform="matrix(0.4793 -0.8776 0.8776 0.4793 -297.1699 238.8857)" class="st1" width="10" height="1.3"/>
</g>
<g>
	<path class="st16" d="M147.6,553.5v26.7H27.2c-2.6-2.7-4.1-6.3-4.3-10c-0.1-8,7.1-16,18.3-18.6L147.6,553.5z"/>
	<path class="st1" d="M152.6,585.2H25.1l-1.5-1.5c-3.4-3.5-5.4-8.2-5.7-13.2l0-0.2c-0.1-10.8,9-20.5,22.2-23.5l0.6-0.1l0.6,0
		l111.3,2V585.2z M29.6,575.2h113v-16.8l-100.8-1.8c-9.1,2.3-13.9,8.4-13.9,13.4C28,571.9,28.6,573.7,29.6,575.2z"/>
</g>
<g>
	<ellipse class="st4" cx="131.5" cy="312.4" rx="65.4" ry="25"/>
	<path class="st1" d="M131.5,342.4c-34.1,0-70.4-10.5-70.4-30s36.3-30,70.4-30s70.4,10.5,70.4,30S165.6,342.4,131.5,342.4z
		 M131.5,292.4c-37.4,0-60.4,11.6-60.4,20s23,20,60.4,20s60.4-11.6,60.4-20S168.9,292.4,131.5,292.4z"/>
</g>
<g>
	<path class="st13" d="M147.6,477.4v50.2l-106.5-1.1C41,510.7,41,494.9,41,479.2c0.5-29.6,25-53.3,53.8-53
		C122.6,426.3,146.2,448.8,147.6,477.4z"/>
	<path class="st1" d="M152.6,532.7l-116.5-1.2l0-4.9C36,510.7,36,494.7,36,479.2c0.5-32.1,26.6-58,58.2-58c0.2,0,0.4,0,0.6,0
		c14.8,0.1,28.9,5.8,39.7,16.3c10.9,10.5,17.3,24.6,18,39.6l0,0.2V532.7z M46.1,521.6l96.5,1v-45c-0.6-12.5-6-24.1-15-32.8
		c-9-8.7-20.7-13.5-32.8-13.5c-0.2,0-0.3,0-0.5,0c-26.2,0-47.8,21.5-48.3,48.1C46,493.1,46,507.4,46.1,521.6z"/>
</g>
<g>
	<polyline class="st13" points="135.9,442.2 203.4,442.2 210.5,476.2 40.9,476.2 40.9,442.2 112.3,442.2 	"/>
	<polygon class="st1" points="216.8,481.3 35.8,481.3 35.8,437.1 112.3,437.1 112.3,447.3 46,447.3 46,471.1 204.2,471.1 
		199.3,447.3 135.9,447.3 135.9,437.1 207.5,437.1 	"/>
</g>
<g>
	<path class="st16" d="M147.6,527.5v26l-106.5-2c0-8.4,0-16.7-0.1-25.1L147.6,527.5z"/>
	<path class="st1" d="M152.6,558.6l-116.5-2.2v-4.9c0-8.6,0-16.7-0.1-25l-0.1-5.1l116.7,1.2V558.6z M46.1,546.6l96.5,1.8v-16
		l-96.6-1C46.1,536.5,46.1,541.6,46.1,546.6z"/>
</g>
<g>
	<path class="st13" d="M107.4,441.3H51.2c0-21.7,0.4-44,1.1-67c0.7-21.6,1.7-42.6,3-63.1c0.3-4.3,0.6-8.6,0.9-12.8l13.1,9.5
		l21.3,2.1c18,0.4,17.5,2.4,30.1,2.4l21.1-1.1c8.5,0,6.3-1.1,17.9,1.1l3.6,0.8c11.3-4.8,19.2-0.5,22.5-12.4l2.4-8.8l23.4-1.1
		c16.7,50.2,33.3,100.3,50,150.4H139"/>
</g>
<g>
	<path class="st16" d="M250.2,552.8v26.7H129.8c-2.6-2.7-4.1-6.3-4.3-10c-0.1-8,7.1-16,18.3-18.6L250.2,552.8z"/>
	<path class="st1" d="M255.2,584.5H127.7l-1.5-1.5c-3.4-3.5-5.4-8.2-5.7-13.2l0-0.2c-0.1-10.8,9-20.5,22.2-23.5l0.6-0.1l0.6,0
		l111.3,2V584.5z M132.2,574.5h113v-16.8l-100.8-1.8c-9.1,2.3-13.9,8.4-13.9,13.4C130.6,571.2,131.2,573,132.2,574.5z"/>
</g>
<g>
	<path class="st16" d="M250.2,526.8v26l-106.5-2c0-8.4,0-16.7-0.1-25.1L250.2,526.8z"/>
	<path class="st1" d="M255.2,557.9l-116.5-2.2v-4.9c0-8.6,0-16.7-0.1-25l-0.1-5.1l116.7,1.2V557.9z M148.7,545.9l96.5,1.8v-16
		l-96.6-1C148.7,535.8,148.7,540.9,148.7,545.9z"/>
</g>
<g>
	<path class="st14" d="M264.7,356.3l10.9,55.3c0.5,3.6,7.3,24.5,2.3,26.7c-24.8,10.8-52.6,12.2-78.3,4l-8.2-63.4l-0.2-1.4l0,0
		c-0.9-5.8-11.4-40.8-0.4-63.2c1.9-3.8,2.6-9.6,23.4-14.5c22.8-5.4,28.9,5,32.1,7.7c15.4,13.3,16.4,40.2,17.5,45.7
		c0.2,0.8,0.4,1.5,0.6,2.2L264.7,356.3z"/>
	<path class="st1" d="M233.4,452.6c-11.9,0-23.8-1.8-35.3-5.5l-3-1l-8.8-67.9c-0.1-0.6-0.4-2-0.8-3.6c-1.3-5.6-3.6-16-4.4-27.4
		c-1-14.3,0.8-26.1,5.2-35.2c0.2-0.3,0.3-0.6,0.4-1c2.5-5.7,6.7-11.6,26.3-16.2c22.7-5.4,31.6,3.8,35.5,7.8c0.4,0.4,0.8,0.8,1,1
		c14.6,12.6,17.5,35.4,18.7,45.2c0.2,1.4,0.3,2.6,0.4,3.2c0.2,0.6,0.3,1.2,0.5,1.8l0.4,1.4l10.9,55.6c0.1,0.5,0.5,2.2,0.9,3.8
		c3.5,14,5.7,25-1.5,28.2C265.1,449.3,249.3,452.6,233.4,452.6z M204.1,438.5c23.3,6.7,48.2,5.2,70.6-4.2c0.3-2.4-0.7-8.1-3-17.1
		c-0.6-2.4-0.9-3.7-1.1-4.7l-10.8-54.9l-0.3-0.8c-0.2-0.8-0.4-1.5-0.6-2.4l-0.1-0.2c-0.2-1-0.4-2.3-0.6-4.1
		c-1.1-8.6-3.6-28.7-15.3-38.8c-0.5-0.5-1.1-1-1.7-1.6c-3.3-3.4-8.8-9.1-26-5c-16.5,3.9-18.2,7.8-19.5,10.6
		c-0.2,0.5-0.4,0.9-0.6,1.3c-8.7,17.7-2.4,45.4,0,55.9c0.4,1.9,0.8,3.3,0.9,4.3l0.2,1.5L204.1,438.5z"/>
</g>
<g>
	<path class="st17" d="M277.9,438.2v31.1c-0.8,1.3-13.1,21.3-36.3,21.7c-17.1,0.3-28.3-10.3-30.6-12.5c-2.5-11.7-5-23.4-7.5-35.1
		c14.7,4,30,5.1,45.1,3C258.7,445.1,268.5,442.3,277.9,438.2z"/>
	<path class="st1" d="M240.9,496c-16.3,0-27.9-8.7-33.3-13.9l-1.1-1.1l-9.5-44.6l7.9,2.2c14.3,3.9,28.8,4.9,43.1,2.9
		c9.5-1.2,18.9-3.9,28-7.8l7-3.1v40.2l-0.7,1.2c-2.4,3.9-15.8,23.7-40.5,24.1C241.4,496,241.1,496,240.9,496z M215.6,475.9
		c4.8,4.3,13.8,10.3,26,10.1c17.7-0.3,28.4-13.9,31.4-18.2v-22.2c-7.8,2.8-15.7,4.8-23.7,5.8c-13,1.8-26.1,1.4-39.2-1.3L215.6,475.9
		z"/>
</g>
<g>
	<path class="st15" d="M224.3,311.2c-14.7,1-29.9,1.6-45.6,1.9c-36.6,0.5-73.1-1.2-109.5-5.2l-40.4-42.8l-5.4-22.7L19,179.1
		c1.9-21.1,13-40.4,30.2-52.7c13.9-1,28.9-1.6,44.9-1.6c14,0.1,27.3,0.6,39.8,1.6l14.9,14.2c16.6,11.4,34.6,20.6,53.6,27.5l-6,67.5
		l9.5,41.1L224.3,311.2z"/>
	<path class="st1" d="M166.4,318.2c-32.8,0-65.6-1.8-97.8-5.3l-1.8-0.2l-42.6-45.1l-5.8-24.4L14,179l0-0.4
		c2-22.6,13.8-43.1,32.3-56.3l1.1-0.8l1.4-0.1c14.9-1.1,30.1-1.6,45.3-1.6c14.8,0.1,27.9,0.6,40.2,1.6l1.8,0.1l15.9,15.1
		c16,11,33.6,20,52.1,26.7l3.6,1.3l-6.3,70.5l9.2,39.7l21.7,40.7l-7.7,0.5c-14.2,1-29.2,1.6-45.8,1.9
		C174.7,318.2,170.6,318.2,166.4,318.2z M71.6,303.1c35.2,3.8,71.2,5.5,107.1,5c13.5-0.3,25.8-0.7,37.6-1.4l-15.1-28.2l-9.8-42.5
		l5.7-64.5c-18.2-6.9-35.3-15.9-51.1-26.7l-0.3-0.2l-13.9-13.2c-11.5-0.9-23.9-1.3-37.7-1.4c-14.4,0-28.9,0.5-43.1,1.5
		c-15.4,11.5-25.1,28.8-27,47.9l4.3,62.5l5,21L71.6,303.1z"/>
</g>
<g>
	<ellipse class="st1" cx="53.3" cy="191.8" rx="9.5" ry="11.5"/>
</g>
<g>
	<path class="st17" d="M133.9,126.4l-22.5,23.3l-4.1,19.4l5.3,22.8l-1.2,18.2l9.2,12.3l-8.6,22.9l4.1,10.6l17.8,5.5L120.6,272v14.3
		l4.9,8.2l8.4,8.8l9.8,9.9h19.6l27.5,1c0,0,27.5-10.8,36.4-23.3c9-12.5,6.9-30.2,6.9-37.7s0.4-25.9,0.2-38.1
		c-0.2-12.3,3.7-32,0.1-40.9c-3.7-8.9-4.3-27.2-14.6-34.7c-10.2-7.5-15.2-14.2-29.1-14.6C176.9,124.4,143.9,116,133.9,126.4z"/>
	<path class="st1" d="M191.7,319.2l-28.4-1h-21.6l-11.3-11.4l-8.9-9.3l-5.9-9.9v-18.1l7.8-6.2l-11.1-3.4l-5.7-14.6l8.3-22.1
		l-8.7-11.6l1.3-19.3l-5.4-23.2l4.6-21.9l23.5-24.3c9.2-9.6,30.5-6.7,47.6-4.5c5,0.7,9.8,1.3,13,1.4c12.8,0.4,19.4,5.7,26.4,11.3
		c1.7,1.4,3.5,2.8,5.5,4.2c8.7,6.3,11.4,18,13.6,27.5c0.8,3.6,1.6,7,2.6,9.3c2.8,7,1.9,18,1,28.6c-0.4,5.2-0.8,10.2-0.8,14.2
		c0.1,8.1,0,18.9-0.1,27.6c-0.1,4.3-0.1,8.1-0.1,10.6c0,1,0,2.2,0.1,3.5c0.3,9.3,0.8,25-7.9,37.1c-9.6,13.5-37.5,24.6-38.6,25
		L191.7,319.2z M145.8,308.2l17.7,0l26.4,1c7.9-3.2,26.9-12.3,33.2-21.2c6.8-9.4,6.3-22.9,6.1-31c0-1.5-0.1-2.8-0.1-3.8
		c0-2.6,0-6.4,0.1-10.7c0.1-8.6,0.2-19.3,0.1-27.3c-0.1-4.5,0.4-9.7,0.8-15.1c0.7-9,1.6-19.2-0.3-24c-1.3-3-2.2-6.8-3.1-10.8
		c-1.9-8.2-4.1-17.6-9.8-21.7c-2.1-1.6-4-3.1-5.8-4.5c-6.7-5.3-11.1-8.9-20.5-9.1c-3.8-0.1-8.5-0.8-14-1.5
		c-13.3-1.8-33.3-4.5-39,1.5l0,0L116,152.1l-3.6,16.9l5.2,22.4l-1.1,17.1l9.7,13l-8.9,23.7l2.5,6.6l24.5,7.6l-18.8,15v10.5l3.9,6.5
		l8,8.4L145.8,308.2z"/>
</g>
<g>
	<path class="st18" d="M118.8,232.2l20.2-3.4h18.3l14.3-8.1c0,0,2.7,0,3.6-7.1c0.9-7.1,4.7-17.1,4.7-17.1l7.1-7.7l8.2-7.5l6-1.4
		l21.1,1.4l12.3-0.1v24.1l-0.6,22.4l-6.9-0.4L216,237.8l-12.6,16.3L190.8,272l-16.6,18.9l-10.8,22.3l-25.8-0.8l-8.2-13.9l-5.9-7.6
		l-2.7-18.9l-0.1-13.7l-4.4-2.5l-4.1-10.6L118.8,232.2z"/>
	<path class="st1" d="M166.5,318.3l-31.8-1l-9.4-16l-6.5-8.4l-2.9-20.9l-0.1-10.8l-3.4-2l-5.5-14.3l8.8-17.2l23.1-3.9H156l13.5-7.7
		c0.2-0.5,0.5-1.4,0.7-3.2c1-7.6,4.8-17.8,5-18.2l0.3-0.9l8.1-8.7l9.2-8.4l8-1.9l21.7,1.4l17.2-0.1l0,29.3l-0.7,27.6l-9.9-0.6
		l-9.2,8.7l-12.3,15.9l-12.9,18.2l-16.2,18.4L166.5,318.3z M140.5,307.5l19.8,0.6l9.7-20l16.9-19.2l12.6-17.9l12.8-16.6l13-12.3
		l3.9,0.2l0.5-17.2v-19l-7.4,0.1l-20.5-1.4l-4,0.9l-7.1,6.5l-6.3,6.8c-0.9,2.5-3.4,9.8-4.1,15.1c-1,8-4.4,10.5-6.7,11.2l-14.8,8.4
		h-19.2l-17.3,2.9l-4.4,8.8l2.7,6.9l5.4,3.1l0.1,16.2l2.5,17.3l5.4,7.1L140.5,307.5z"/>
</g>
<g>
	<path class="st1" d="M144.2,210.4c-1.5,0-3-0.2-4.8-0.4c-0.5-0.1-0.9-0.1-1.5-0.2c-8.7-1.1-10.2-9.7-10.9-13.4
		c-0.1-0.5-0.2-1.1-0.3-1.3l-0.1-0.3c-0.7-2.7-0.3-8.6,0-11.9l0.1-0.5c0.6-3.5,2.6-14.2,13.9-15c0.4,0,0.7-0.1,1.1-0.1
		c4.2-0.3,9.9-0.7,14.3,3.1c3.1,2.7,4.8,6.8,5.2,12.5c0.2,2.7,0.4,4.9,0.6,6.6c0.8,7.3,0.9,10.4-5.8,15.8
		C151.3,209.4,147.9,210.4,144.2,210.4z M136.3,192.3c0.2,0.7,0.4,1.5,0.5,2.4c0.6,3.1,1.2,5.1,2.3,5.3c0.5,0.1,1,0.1,1.5,0.2
		c4.7,0.6,5.4,0.7,9.2-2.5c2.2-1.7,2.4-2.2,2.4-2.3c0.2-0.6-0.1-2.6-0.3-4.6c-0.2-1.8-0.5-4.1-0.7-7c-0.2-2.8-0.8-4.8-1.8-5.6
		c-1.3-1.1-4.4-0.9-7-0.7c-0.4,0-0.8,0.1-1.2,0.1c-1.7,0.1-3.5,0.2-4.7,6.6C136.3,187.5,136.2,191.2,136.3,192.3z"/>
</g>
<g>
	<ellipse class="st19" cx="143.7" cy="188.9" rx="5.1" ry="7.6"/>
	<path class="st20" d="M143.7,201.5c-5.7,0-10.1-5.5-10.1-12.6s4.4-12.6,10.1-12.6c5.7,0,10.1,5.5,10.1,12.6
		S149.4,201.5,143.7,201.5z M143.7,187.8c-0.1,0.3-0.1,0.7-0.1,1.1s0,0.8,0.1,1.1c0.1-0.3,0.1-0.7,0.1-1.1S143.8,188.1,143.7,187.8z
		"/>
</g>
<g>
	<path class="st21" d="M169,122.3c-5.3-0.6-7,15.4-4.3,22.7c2.6,7.3,2.4,15.2,4.3,22s3.5,10,15.1,10.5s22.5,4.2,30.4,3.7
		c7.9-0.6,22.4,1.5,19.9-7.1s-6.1-33.1-14.6-34.7c-8.5-1.7-7.9-12.3-16.3-11.7c-8.4,0.6-12.6-2.7-18.9-2.9
		C178.3,124.6,169,122.3,169,122.3z"/>
	<path class="st1" d="M213,186.2c-4.3,0-9-0.8-13.9-1.7c-4.9-0.9-10-1.8-15.2-2c-13.6-0.6-17.2-5-19.7-14.1
		c-0.9-3.3-1.4-6.8-1.8-10.1c-0.5-4.1-1.1-7.9-2.4-11.6c-2.6-7-2-20.5,2.4-26.1c1.9-2.4,4.5-3.6,7.2-3.2l0.6,0.1
		c0.1,0,8.9,2.2,14.6,2.4c3.3,0.1,5.9,0.8,8.5,1.6c3,0.8,5.9,1.6,9.9,1.4c7.2-0.5,10.6,4.3,12.8,7.5c1.8,2.5,2.8,3.9,4.8,4.3
		c9.2,1.7,13.1,15.4,16.8,31.7c0.6,2.7,1.1,4.9,1.6,6.5c1.2,4.1,0,6.9-1.2,8.5c-3.6,4.8-10.9,4.8-18,4.9c-1.9,0-3.6,0-5.1,0.1
		C214.3,186.2,213.6,186.2,213,186.2z M169.8,127.6c-1.2,3-2.1,11-0.4,15.7c1.7,4.6,2.3,9.2,2.9,13.6c0.4,3.1,0.8,6.1,1.6,8.8
		c1.5,5.4,1.8,6.5,10.5,6.9c5.9,0.3,11.5,1.3,16.5,2.2c5.1,0.9,9.8,1.8,13.4,1.5c1.7-0.1,3.6-0.1,5.7-0.2c2.8,0,7.7,0,9.7-0.7
		c-0.5-1.8-1.1-4.2-1.7-6.9c-1.2-5.1-2.6-11.4-4.5-16.5c-2.5-6.9-4.5-7.6-4.5-7.6c-6.1-1.2-9-5.3-11.1-8.4c-2.2-3.1-2.6-3.4-3.9-3.3
		c-5.7,0.4-9.9-0.8-13.3-1.7c-2.2-0.6-4.1-1.1-6.1-1.2C179.5,129.6,173,128.3,169.8,127.6z"/>
</g>
<g>
	<path class="st22" d="M156.4,313.1c0,0,14.6-18,17.8-22.3c3.1-4.2,16.5-16.2,16.6-18.9s11.6-14.2,12.7-17.9s12.6-12.1,12.6-16.3
		s8.6-5.2,11.1-10.5c2.5-5.2,7.2,7.5,6.9,25.8s-0.9,31.5-6.9,37.7s-9.3,15.7-16.4,16.5c-7.1,0.8-8,7.9-20.1,6.8
		C178.7,313.1,156.4,313.1,156.4,313.1z"/>
	<path class="st1" d="M193.1,319.1c-0.9,0-1.9,0-2.9-0.1c-11.6-0.9-33.6-0.9-33.8-0.9h-10.5l6.6-8.1c0.1-0.2,14.6-18,17.7-22.1
		c1.4-1.9,4.1-4.7,7.3-7.9c2.8-2.8,7.3-7.4,8.4-9.2c0.5-2.6,2.8-5.4,7.2-10.8c1.9-2.3,5.1-6.2,5.6-7.4c0.8-2.6,3.1-5.1,6.8-8.8
		c1.7-1.8,4.9-5,5.6-6.4c0.2-4.7,4.3-7.1,7.2-8.8c1.8-1,3.8-2.2,4.3-3.4c1.8-3.7,5-4.4,7.2-3.9c9.5,2.2,9.3,28.9,9.3,31.9
		c-0.3,20-1.1,33.6-8.3,41.1c-1.7,1.8-3.3,4.1-4.9,6.3c-3.6,5.1-7.6,10.9-14.6,11.7c-1.5,0.2-2.4,0.8-4.3,2.1
		C204.2,316.4,200.3,319.1,193.1,319.1z M166.8,308.2c7.5,0.1,17.4,0.3,24.3,0.8c5.5,0.5,7.5-0.9,10.2-2.8c2.2-1.5,4.9-3.5,9-3.9
		c2.5-0.3,4.9-3.8,7.5-7.5c1.8-2.5,3.6-5.2,5.9-7.5c4.6-4.8,5.2-17.8,5.5-34.3c0.1-8.3-0.8-14.5-1.7-18.4c-1.4,1-2.8,1.9-4,2.6
		c-0.7,0.4-1.8,1-2.3,1.5c-0.5,4.1-4.1,7.8-8.4,12.1c-1.6,1.6-3.9,4-4.4,4.9c-0.8,2.6-3.4,5.8-7.4,10.7c-1.8,2.2-4.4,5.3-5.1,6.6
		c-0.5,3-3.4,6.2-11.1,14c-2.7,2.7-5.4,5.5-6.4,6.9C176.4,296.2,171.2,302.8,166.8,308.2z M185.8,271.7
		C185.8,271.7,185.8,271.7,185.8,271.7C185.8,271.7,185.8,271.7,185.8,271.7z M185.8,271.7L185.8,271.7L185.8,271.7z M208.3,255.4
		C208.3,255.4,208.3,255.5,208.3,255.4C208.3,255.5,208.3,255.4,208.3,255.4z M198.7,252.6C198.7,252.6,198.7,252.6,198.7,252.6
		C198.7,252.6,198.7,252.6,198.7,252.6z M221.1,237.7C221.1,237.7,221.1,237.7,221.1,237.7C221.1,237.7,221.1,237.7,221.1,237.7z
		 M211.2,237.1L211.2,237.1L211.2,237.1z"/>
</g>
<g>
	<polygon class="st1" points="161.4,277 120.6,277 120.6,267 151.4,267 151.4,258.7 115.5,258.7 115.5,248.7 161.4,248.7 	"/>
</g>
<g>
	<path class="st12" d="M19,163.6l30.2-37.2h106.1l48.2,1.3l22.6,18.1l8.6,35.5l-0.5,87.5l-6.9,22.1c0,0,6,12.5,23,0
		c17.1-12.5,22.8-19.6,23.5-33.1s0.7-63.7,0-76.4s-1.5-62.5-2.9-70.9c-1.8-11.2-2.1-25.4-15.7-36.8c-13.5-11.4-37.6-32.3-56.1-32.3
		s-32-1.2-52.4-2.6c-20.4-1.4-25,3.7-43,4.2c-10.9,0.3-60.5,9.5-76.9,59C21,119.2,18.8,161.1,19,163.6z"/>
	<path class="st1" d="M236.8,301.5c-1.4,0-2.7-0.2-4-0.5c-6.9-1.7-9.7-7.3-10-7.9l-0.9-1.8l7.3-23.3l0.5-86.1l-8.1-33.2l-20-16
		l-46.5-1.3H51.6l-36.6,45L14,164c-0.2-2.5,2-45.5,8-63.6c16.4-49.6,65.6-62,81.5-62.4c7.3-0.2,12.1-1.2,17.2-2.2
		c6.8-1.4,13.9-2.8,26.2-2c3.2,0.2,6.2,0.4,9.1,0.6c15.4,1.1,27.5,1.9,42.9,1.9c19.7,0,43.7,20.3,58,32.4l1.3,1.1
		c13.4,11.2,15.3,24.8,16.8,35.7c0.2,1.4,0.4,2.8,0.6,4.2c0.9,5.3,1.5,24,2.2,47.9c0.3,10.3,0.5,19.1,0.8,23.5
		c0.7,12.9,0.7,63.2,0,76.9c-0.8,16.2-8.6,24.5-25.5,36.9C247.3,299.3,241.8,301.5,236.8,301.5z M232.8,290c0.6,0.5,1.4,1.1,2.5,1.3
		c2.9,0.7,7.2-0.9,12-4.4c16.5-12,20.9-18.1,21.5-29.3c0.7-13.2,0.7-63.5,0-75.9c-0.2-4.5-0.5-13.4-0.8-23.8
		c-0.5-17.5-1.2-41.5-2-46.6c-0.2-1.4-0.4-2.9-0.6-4.4c-1.4-10.1-2.9-20.6-13.3-29.4l-1.3-1.1c-12.4-10.5-35.5-30-51.5-30
		c-15.8,0-28.1-0.9-43.6-2c-2.9-0.2-5.9-0.4-9.1-0.6c-11-0.8-16.8,0.4-23.6,1.8c-5.3,1.1-10.8,2.2-19,2.4
		c-4.3,0.1-18.9,2.2-34.2,10.5C51,68.6,38.1,83.7,31.5,103.6c-3.5,10.3-5.7,30.8-6.7,44.9l22-27.1l108.6,0l49.9,1.3l25.2,20.2
		l9.1,37.8l0,0.6l-0.5,88.2L232.8,290z"/>
</g>
<g>
	<path class="st23" d="M236,205c7.8-6.3,36-10,36,5.4s1.3,26.9-13.1,32s-24.7,1.6-24.7,1.6L236,205z"/>
	<path class="st1" d="M243.4,250.2c-6.4,0-10.5-1.3-10.8-1.4l-3.6-1.2l2.1-45l1.7-1.4c7.2-5.8,25.4-9,35.5-4.1
		c5.6,2.7,8.6,7.4,8.6,13.4c0,1.2,0,2.4,0,3.5c0.1,14.1,0.2,27.3-16.4,33.2C253.9,249.5,248,250.2,243.4,250.2z M239.4,239.9
		c3.7,0.4,10.1,0.5,17.8-2.3c9.5-3.4,9.9-9.3,9.8-23.7c0-1.2,0-2.4,0-3.6c0-2.1-0.9-3.4-3-4.4c-6-2.9-17.7-1-23.2,1.8L239.4,239.9z"
		/>
</g>
<g>
	<path class="st24" d="M109.7,250.9c-5.5-2.2-17.3-3.3-22,0.3s-16.3,8-19.6,8.8c-3.3,0.7,6.3,3.9,11.4,7s6.2,5.5,14.5,5.5
		s8.7,1.2,26.6-0.5c1-6.3-6.4-12.7-6.4-12.7l1.9-3.5L109.7,250.9z"/>
	<path class="st1" d="M105.6,277.9c-2.4,0-4.1-0.1-5.9-0.2c-1.7-0.1-3.4-0.2-5.7-0.2c-7.5,0-10.6-1.8-14.4-4.5
		c-0.8-0.6-1.7-1.2-2.7-1.8c-1.6-1-3.9-2.1-6-3c-5.4-2.5-8.9-4.2-8.4-8.4c0.2-1.8,1.5-4,4.5-4.7c3.1-0.8,13.9-5,17.7-7.9
		c7-5.4,21.2-3.2,26.9-1l0.6,0.3l10.4,7.9l-2.2,4c2.7,3.2,6.1,8.5,5.2,14.3l-0.6,3.8l-3.9,0.4C113.5,277.7,108.9,277.9,105.6,277.9z
		 M79.4,261.2c1,0.5,1.9,1,2.7,1.5c1.3,0.8,2.3,1.5,3.2,2.1c2.7,1.9,3.8,2.7,8.7,2.7c2.6,0,4.5,0.1,6.3,0.2
		c3.3,0.2,6.4,0.4,14.3-0.2c-1-1.7-2.5-3.4-3.7-4.5l-3-2.6l1.8-3.2l-2.4-1.8c-5.3-1.9-14.1-2-16.5-0.1
		C88,257.3,83.6,259.5,79.4,261.2z"/>
</g>
<g>
	<polyline class="st24" points="72.9,261.3 87.8,261.3 97.9,261 108.8,261.3 117.6,262.2 124.5,261.6 	"/>
	<polygon class="st1" points="117.6,264.7 108.6,263.8 97.9,263.5 87.9,263.8 72.9,263.8 72.9,258.8 87.8,258.8 97.9,258.5 
		109.1,258.8 117.6,259.7 124.3,259.1 124.7,264.1 	"/>
</g>
<g>
	<polygon class="st14" points="86.4,309.6 98.7,326.4 107.4,360.8 107.4,403.4 107.4,441.3 51.2,441.3 56.1,298.4 69.3,307.9 	"/>
	<path class="st1" d="M112.4,446.3H46l5.4-157.4l19.7,14.2l18,1.8l14.2,19.4l9.1,35.9V446.3z M56.4,436.3h46v-74.9l-8.3-32.9
		l-10.4-14.2l-16.2-1.6l-6.7-4.8L56.4,436.3z"/>
</g>
<g>
	<polyline class="st14" points="79.3,312.4 67.4,342.4 86.5,355.9 76.9,384.1 93.6,408 103.2,438.2 	"/>
	<polygon class="st1" points="98.4,439.7 89.1,410.2 71.4,384.9 80.6,357.8 61.3,344.2 74.7,310.6 83.9,314.2 73.5,340.6 92.4,354 
		82.4,383.3 98.1,405.8 108,436.7 	"/>
</g>
<g>
	<path class="st14" d="M156.4,313.1l-12,14.8l-5.3,30.9l1.9,82.4l58.6,1l-8.2-63.4l-5.6-34.3c0,0-0.8-8.6,2.1-19.5
		s2.9-10.9,2.9-10.9L156.4,313.1z"/>
	<path class="st1" d="M205.3,447.3l-69.2-1.2l-2-87.7l5.6-32.7l14.4-17.7l43.2,1.3l-4.5,17c-2.4,9.1-2,16.5-2,17.6l5.6,34.3
		L205.3,447.3z M145.9,436.3l48,0.8l-7.4-57.6l-5.6-34.6c0-0.4-0.8-9.6,2.2-21.2l1.3-4.8l-25.6-0.7l-9.6,11.9l-5,29.1L145.9,436.3z"
		/>
</g>
<g>
	<polyline class="st14" points="159.7,312.4 177.6,337.3 159.7,353.5 168.7,378.8 155.3,402.8 146.6,438.2 	"/>
	<polygon class="st1" points="151.5,439.4 141.7,437 150.6,401 163.2,378.3 153.9,352 170.9,336.6 155.6,315.3 163.8,309.5 
		184.3,338 165.5,355 174.2,379.3 160,404.6 	"/>
</g>
<g>
	<rect x="112.3" y="439.1" class="st13" width="23.6" height="10"/>
</g>
<g>
	<rect x="140.8" y="253.7" class="st1" width="6" height="16.4"/>
</g>
<g>
	<rect x="130.3" y="253.7" class="st1" width="6" height="16.4"/>
</g>
</svg>
