<?xml version="1.0" encoding="utf-8"?>
<!-- Generator: Adobe Illustrator 25.2.1, SVG Export Plug-In . SVG Version: 6.00 Build 0)  -->
<svg version="1.1" id="Layer_1" xmlns="http://www.w3.org/2000/svg" xmlns:xlink="http://www.w3.org/1999/xlink" x="0px" y="0px"
	 viewBox="0 0 389.1 620.3" style="enable-background:new 0 0 389.1 620.3;" xml:space="preserve">
<style type="text/css">
	.st0{fill:#FF6244;}
	.st1{fill:#1D1D1B;}
	.st2{fill:#2DB8FF;}
	.st3{fill:#754311;}
	.st4{fill:#FDECC9;}
	.st5{fill:#0A5B00;}
	.st6{fill:none;stroke:#1D1D1B;stroke-width:10;stroke-miterlimit:10;}
	.st7{fill:#00C318;}
	.st8{fill:#212D56;stroke:#1D1D1B;stroke-width:10;stroke-miterlimit:10;}
	.st9{fill:#FFA600;stroke:#1D1D1B;stroke-width:10;stroke-miterlimit:10;}
	.st10{fill:#AC2401;stroke:#1D1D1B;stroke-width:10;stroke-miterlimit:10;}
	.st11{fill:#04364D;stroke:#1D1D1B;stroke-width:10;stroke-miterlimit:10;}
	.st12{fill:#EC4600;}
	.st13{fill:#676C75;}
	.st14{fill:#2B2B2B;}
	.st15{fill:#FFAA5B;}
	.st16{fill:#8C3884;}
	.st17{fill:#006277;}
	.st18{fill:#016775;}
	.st19{fill:#DA1915;}
	.st20{fill:#DA0E15;}
	.st21{fill:#0F6BAA;}
	.st22{fill:#2A5072;}
	.st23{fill:#126F93;}
	.st24{fill:#C34A8C;}
	.st25{fill:#754311;stroke:#1D1D1B;stroke-width:10;stroke-miterlimit:10;}
	.st26{fill:#FFFDCC;}
	.st27{fill:#8FBF21;}
	.st28{fill:#212D56;}
	.st29{fill:#CC2517;}
	.st30{fill:#E52B12;}
	.st31{fill:#2D4E9D;}
	.st32{fill:#8FBF21;stroke:#1D1D1B;stroke-width:11.0185;stroke-miterlimit:10;}
	.st33{fill:#6BC8ED;}
	.st34{fill:#FFD132;}
</style>
<g>
	<path class="st0" d="M186.6,587.4c0-12-0.2-42.9-0.2-54.8c0.5-22.4,25-40.4,53.8-40.2c27.8,0.1,51.4,17.1,52.8,38.8v57.7"/>
	<path class="st1" d="M298,588.9h-10v-57.5c-1.3-18.7-22.7-33.9-47.8-34c-0.2,0-0.3,0-0.5,0c-25.8,0-47.8,16-48.3,35.2
		c0,5.9,0,16.6,0.1,27.2c0,10.7,0.1,21.5,0.1,27.5h-10c0-6,0-16.7-0.1-27.5c0-10.7-0.1-21.4-0.1-27.3l0-0.1
		c0.6-24.9,26.6-45.1,58.2-45.1c0.2,0,0.4,0,0.6,0c30.8,0.1,56.2,19.2,57.8,43.5l0,0.3V588.9z"/>
</g>
<g>
	<path class="st2" d="M191.6,77.9l18.9-1.2l22.1,0.6c0,0,8.6,0.3,39.3,11.8s26.7,42.5,37.9,69.8c11.2,27.3,5.1,111.7,5.1,111.7
		s0,39,0,48.1c0,122.9-25.7,32.2-44.8,20.8C250.9,328,70.9,209.6,70.5,169l8.1-45.6c3.5-13,12.7-22.6,23.9-24.6
		c2-0.3,5.6-3.5,9.5-7.1c7.5-6.9,17.1-10.9,27.3-11.4L191.6,77.9z"/>
	<path class="st1" d="M304.7,387.4c-7.6,0-13.9-10.3-21.8-23c-5.2-8.4-11.1-18-15.5-20.6c-9.1-5.4-58.9-37.8-107.2-74.6
		C96.6,220.8,65.7,188,65.5,169l0-0.5l8.2-46.4c3.9-14.8,14.8-25.8,27.7-28.2c1.5-0.7,5.6-4.4,7.2-5.9c8.3-7.7,19.2-12.2,30.5-12.7
		l52.3-2.5l19.1-1.3l22.4,0.6c1,0,10.3,0.6,40.9,12.1c24.3,9.1,29.1,29.5,33.8,49.2c1.9,7.8,3.8,15.8,6.9,23.4
		c11.4,27.7,5.9,108.3,5.5,113.8v47.9c0,54.2-4.7,66.1-12.7,68.4C306.3,387.3,305.5,387.4,304.7,387.4z M75.6,169.4
		c0.4,7.5,10.5,30.8,90.7,91.8c48,36.5,97.3,68.6,106.3,74c6.5,3.9,12.5,13.6,18.9,24c3.7,6.1,9.8,15.9,13,18
		c1.7-2.5,5.4-13.1,5.4-58.4l0-48.4c0.1-0.8,5.9-83.5-4.7-109.4c-3.4-8.3-5.4-16.7-7.4-24.9c-4.7-19.5-8.3-34.9-27.6-42.1
		c-28.8-10.8-37.6-11.4-37.7-11.4l-21.8-0.6l-18.7,1.2l-52.3,2.5c-9,0.4-17.5,4-24.2,10.1c-5.8,5.3-8.9,7.8-12,8.3
		c-9.1,1.6-16.8,9.7-19.8,20.7L75.6,169.4z"/>
</g>
<g>
	<path class="st3" d="M150.2,476.4H94c0-8.5,0.1-17,0.2-25.7c0.2-13.5,0.8-30.7,0.9-41.3c0.4-12.1,1.6-17.3,2.2-29.1
		c0.5-9.2,0.2-25,0.8-34c0.3-4.3,0.6-8.6,0.9-12.8l13.1,9.5l21.3,2.1c18,0.4,17.5,2.4,30.1,2.4l21.1-1.1c8.5,0,6.3-1.1,17.9,1.1
		l3.6,0.8c11.3-4.8,25.7,6,29-5.9l7.3-5.6l10.9-0.9c11.3,33.9-30.5,42.9-19.3,76.8c2.2,6.6,6.5,44.1,8.4,54.6
		c1.8,10,0.7,1.7,3.9,11.3l-64.5-2.1"/>
</g>
<g>
	<ellipse class="st4" cx="174.3" cy="347.5" rx="65.4" ry="25"/>
	<path class="st1" d="M174.3,377.5c-34.1,0-70.4-10.5-70.4-30s36.3-30,70.4-30s70.4,10.5,70.4,30S208.4,377.5,174.3,377.5z
		 M174.3,327.5c-37.4,0-60.4,11.6-60.4,20s23,20,60.4,20s60.4-11.6,60.4-20S211.7,327.5,174.3,327.5z"/>
</g>
<g>
	<path class="st5" d="M293,499.4v57.7l-104.3-1.5c0-12-0.2-42.9-0.2-54.8c0.5-22.4,24.5-40.4,52.8-40.2
		C268.5,460.6,291.6,477.7,293,499.4z"/>
	<path class="st1" d="M297.3,561.4l-112.9-1.6v-4.2c0-6,0-16.7-0.1-27.5c0-10.7-0.1-21.4-0.1-27.3c0.5-24.7,25.8-44.5,56.5-44.5
		c0.2,0,0.4,0,0.6,0c29.9,0.1,54.5,18.9,56,42.8l0,0.3V561.4z M193,551.3l95.7,1.4v-53.2c-1.3-19-22.6-34.6-47.5-34.6
		c-0.2,0-0.3,0-0.5,0c-25.6,0-47.5,16.4-47.9,36c0,5.8,0,16.5,0.1,27.2C192.9,536.6,192.9,545.1,193,551.3z"/>
</g>
<g>
	<path class="st7" d="M94.8,415.3c-22.3,1.4-24.7-10.8-24.7-10.8c0.4-1.2,0.7-2.4,1-3.6l1.5-4.6c1.1-4.2,2-7.2,4.1-14.3
		c2-4.8,5.5-29.4,19.3-39.6h0.1l-1,53.8l-0.1,8.5L94.8,415.3"/>
	<path class="st1" d="M91.3,420.4c-22.9,0-26-14.3-26.1-14.9l-0.2-1.3l0.4-1.2c0.3-1,0.6-2.1,0.9-3.2l0.1-0.3l1.5-4.5
		c1.1-4.1,1.9-7.1,4.1-14.3l0.2-0.5c0.3-0.7,0.8-2.6,1.3-4.6c2.5-9.8,7.3-28,19.6-37.1l1.3-1h6.7l0,5.1l-1,53.8l-0.1,8.5L99.7,420
		l-4.6,0.3C93.8,420.3,92.5,420.4,91.3,420.4z M75.4,404.3c1,1.8,4.4,5.7,14.5,6.1l0.1-5.8l0.1-8.5l0.7-39.8
		c-4,7.4-6.3,16.1-7.8,21.7c-0.6,2.5-1.1,4.3-1.6,5.6c-2.1,7-2.9,10-4,13.9l-0.1,0.2l-1.4,4.4C75.7,402.9,75.5,403.6,75.4,404.3z"/>
</g>
<g>
	<path class="st0" d="M93.1,491.1c-6.7,10.5-5.8,23.6-12.5,34.1c-6.2-4-18.7-12.1-21.7-18.9c-7-15.6,10.2-99.3,11.2-101.8l24.7,10.8
		L92.2,485C92.6,487,92.9,489,93.1,491.1z"/>
	<path class="st1" d="M82.1,532.1l-4.2-2.7c-10.4-6.7-20.4-13.9-23.6-21.1c-7.9-17.6,9.8-102.3,11.1-105.7l1.9-4.8L99.9,412
		l-2.7,72.5c0.4,2,0.7,4,0.9,6l0.2,1.7l-0.9,1.5c-2.9,4.6-4.2,9.9-5.6,15.6c-1.5,6.2-3.1,12.6-6.9,18.5L82.1,532.1z M73.5,411.4
		c-4.2,19.7-15.2,81.5-10.1,92.8c1.8,4.2,9.6,9.9,15.3,13.7c1.4-3.4,2.3-7.1,3.3-11c1.4-5.7,2.8-11.5,6-17c-0.2-1.3-0.4-2.6-0.6-4
		l-0.1-0.6l0-0.6l2.5-66.3L73.5,411.4z"/>
</g>
<g>
	
		<rect x="90.5" y="404.3" transform="matrix(0.4793 -0.8776 0.8776 0.4793 -305.6786 294.6842)" class="st1" width="10" height="1.3"/>
</g>
<g>
	<path class="st0" d="M190.4,588.6v26.7H70c-2.6-2.7-4.1-6.3-4.3-10c-0.1-8,7.1-16,18.3-18.6v-1.2c-0.1-11.6-0.2-41.8-0.2-53.3
		c0.5-21.8,25-39.3,53.8-39c27.8,0.1,51.4,16.6,52.8,37.7v56.1"/>
	<path class="st1" d="M195.4,620.3H67.8l-1.5-1.5c-3.4-3.5-5.4-8.2-5.7-13.2l0-0.2c-0.1-9.7,7.2-18.5,18.3-22.4
		c-0.1-13.2-0.2-40.5-0.2-50.8l0-0.1c0.6-24.3,26.6-43.9,58.3-43.9c0.2,0,0.4,0,0.6,0c30.8,0.1,56.2,18.7,57.8,42.4l0,0.3v56.1h-10
		V531c-1.3-18.1-22.7-32.8-47.8-32.9c-0.2,0-0.3,0-0.5,0c-25.8,0-47.8,15.5-48.3,34.1c0,11,0.1,41.4,0.2,53.2v5.2l-3.9,0.9
		c-9.5,2.2-14.4,8.5-14.4,13.6c0.1,1.9,0.7,3.6,1.7,5.2h113v-21.7h10V620.3z"/>
</g>
<g>
	<path class="st5" d="M190.4,499V555L84,553.6c-0.1-11.6-0.2-41.8-0.2-53.3c0.5-21.8,25-39.3,53.8-39
		C165.4,461.3,189,477.9,190.4,499z"/>
	<path class="st1" d="M194.7,559.4l-114.9-1.5l0-4.2c-0.1-11.8-0.2-42.4-0.2-53.4c0.5-24,26.3-43.3,57.5-43.3c0.2,0,0.4,0,0.6,0
		c30.4,0.1,55.5,18.4,57,41.7l0,0.3V559.4z M88.2,549.4l97.8,1.3v-51.6c-1.3-18.5-23.1-33.5-48.5-33.6
		c-26.4-0.2-49.1,15.8-49.5,34.8C88.1,510.2,88.1,535.7,88.2,549.4z"/>
</g>
<g>
	<path class="st0" d="M293,587.9v27.4H172.6c-2.6-2.8-4.1-6.5-4.3-10.2c-0.1-8.2,7.1-16.4,18.3-19.1l3.8-0.1h2.4"/>
	<path class="st1" d="M298,620.3H170.4l-1.5-1.6c-3.4-3.6-5.4-8.4-5.7-13.4l0-0.2c-0.1-11,9-20.9,22.2-24l0.5-0.1l4.5-0.1h2.4v10.1
		h-2.4l-3.2,0.1c-9.2,2.4-13.9,8.7-13.9,13.8c0.1,1.9,0.7,3.8,1.7,5.3h112.9v-22.3H298V620.3z"/>
</g>
<g>
	<path class="st0" d="M309.4,402.2l11.3,102.1c-0.8,1.3-13.1,21.3-36.3,21.7c-17.1,0.3-28.3-10.3-30.6-12.5
		c-2.5-11.7-17.3-89.3-19.8-101c14.7,4,16.3,1.8,31.4-0.3C275.5,410.9,300,406.3,309.4,402.2z"/>
	<path class="st1" d="M283.6,531.1c-16.3,0-27.9-8.7-33.3-13.9l-1.1-1.1l-0.3-1.5c-1.3-5.9-5.7-28.6-9.9-50.6
		c-4.2-21.9-8.6-44.6-9.9-50.4l-1.7-8l7.9,2.2c10.3,2.8,13.1,2.3,20.7,1c2.4-0.4,5.2-0.9,8.7-1.4c9.9-1.3,34-5.8,42.7-9.7l6.2-2.7
		l12.2,110.6l-0.9,1.5c-2.4,3.9-15.8,23.7-40.5,24.1C284.2,531.1,283.9,531.1,283.6,531.1z M258.3,511c4.8,4.3,13.8,10.3,25.9,10.1
		c17.4-0.3,28-13.4,31.2-17.9l-10.4-94.1c-12.3,3.8-31.6,7.2-39.1,8.1c-3.3,0.5-5.9,0.9-8.3,1.3c-6.2,1.1-10.3,1.8-17.3,0.6
		c2,10,5.2,26.7,8.4,43C252.7,482.4,256.8,503.4,258.3,511z"/>
</g>
<g>
	<path class="st0" d="M278.8,240.1c7.8-6.3,36-10,36,5.4s1.3,26.9-13.1,32s-24.7,1.6-24.7,1.6L278.8,240.1z"/>
	<path class="st1" d="M286.1,285.2c-6.4,0-10.5-1.3-10.8-1.4l-3.6-1.2l2.1-45l1.7-1.4c7.2-5.8,25.4-9,35.5-4.1
		c5.6,2.7,8.6,7.4,8.6,13.4c0,1.2,0,2.4,0,3.5c0.1,14.1,0.2,27.3-16.4,33.2C296.7,284.5,290.8,285.2,286.1,285.2z M282.2,275
		c3.7,0.4,10.1,0.5,17.8-2.3c9.5-3.4,9.9-9.3,9.8-23.7c0-1.2,0-2.4,0-3.6c0-2.1-0.9-3.4-3-4.4c-6-2.9-17.7-1-23.2,1.8L282.2,275z"/>
</g>
<g>
	<polygon class="st7" points="129.2,344.7 168.5,347.2 168.5,396.2 168.5,437 167.1,514.3 83.8,514.3 98.9,333.5 112.1,343 	"/>
	<path class="st1" d="M172,519.3H78.3l16.3-195l19.3,13.9l15.7,1.6l43.9,2.8V437L172,519.3z M89.2,509.3h73l1.3-72.3l0-85l-34.8-2.3
		l-18.4-1.8l-7.1-5.1L89.2,509.3z"/>
</g>
<g>
	<path class="st7" d="M168.5,347.2v14.3v34.7l-1.4,118.1l86.7-0.7l-19.6-99.7l-5.6-34.3c0,0-0.8-8.6,2.1-19.5s2.9-10.9,2.9-10.9
		L168.5,347.2z"/>
	<path class="st1" d="M162.1,519.3l1.4-123.2v-54.1l76.6,2.3l-4.5,17c-2.4,9.1-2,16.5-2,17.6l5.6,34l20.7,105.5L162.1,519.3z
		 M173.5,352.4v43.8l-1.3,113l75.5-0.6l-18.5-93.9l-5.6-34.6c0-0.4-0.8-9.6,2.2-21.2l1.3-4.8L173.5,352.4z"/>
</g>
<g>
	<polygon class="st0" points="112.1,343 151.9,371.2 186.4,371.2 233.6,349.2 235.1,346.3 	"/>
	<path class="st1" d="M187.5,376.2h-37.2l-54.5-38.7l147.4,4l-5.9,11.5L187.5,376.2z M153.5,366.2h31.8l33-15.4l-89.9-2.4
		L153.5,366.2z"/>
</g>
<g>
	<path class="st0" d="M176.7,161.5c-12.5-1-25.8-1.5-39.8-1.6c-16,0-31,0.6-44.9,1.6c-17.2,12.3-28.3,31.6-30.2,52.7l4.4,63.3
		l5.4,22.7L112,343c24.7,2.7,49.4,4.3,74.2,5l0.3,0.3h19.6l27.5,1c0,0,0.2-0.1,0.4-0.2c4.4,0.3,7.2-0.5,9.5-1.6
		c8-0.3,15.9-0.7,23.6-1.3l-5.2-9.8c1.6-2.1,3.1-4.4,4.8-6.7c1.3-1.2,2.4-2.5,3.3-3.8c0.2-0.3,0.5-0.7,0.7-1
		c1.6-1.9,2.7-4.4,3.6-7.3c3.9-11.1,2.6-23.4,2.6-29.4c0-0.1,0-0.2,0-0.2c0-0.7,0-1.4,0-2.1c0.1-8.3,0.4-23.8,0.2-34.8l0.2-8.4
		c0.7-11.6,2.8-25.9-0.1-33.2c0-0.1,0-0.2-0.1-0.3l-10.4-13.8c-0.2-0.3-15.9,0.3-19.5-4.6c-0.3-0.4-0.6-2.5-0.7-5.4
		c-0.8-13-11.6-23.2-24.6-23.2h-9.8L176.7,161.5z"/>
	<path class="st1" d="M234.4,354.3l-28.5-1h-21.6l-0.4-0.4c-24.4-0.7-48.8-2.3-72.6-4.9l-1.8-0.2L67,302.6l-5.8-24.4l0-0.4
		l-4.4-63.7l0-0.4c2-22.6,13.8-43.1,32.3-56.3l1.1-0.8l1.4-0.1c14.9-1.1,30.1-1.6,45.3-1.6c14.7,0.1,27.8,0.6,40,1.6l35.4,0.5l9.7,0
		c15.7,0,28.7,12.3,29.6,27.9c0.1,1.6,0.2,2.5,0.3,3.1c1.1,0.6,4.3,1.8,13.2,2.1c2.3,0.1,4.4,0.2,5.8,2.3l10.8,14.4l0.3,0.9
		c0,0.1,0,0.2,0.1,0.2c2.5,6.9,1.6,17.6,0.8,27.9c-0.2,2.4-0.4,4.7-0.5,7l-0.2,8.2c0.1,8,0,18.3-0.1,26.6c0,3.1-0.1,6-0.1,8.3
		c0,0.7,0,1.4,0,2.2l0,0.2c0,1,0,2.2,0.1,3.5c0.2,6.9,0.6,17.4-2.9,27.4c-1,3.6-2.5,6.4-4.3,8.8c-0.2,0.3-0.4,0.6-0.7,1
		c-1,1.4-2.2,2.7-3.6,4.2c-0.6,0.8-1.2,1.7-1.8,2.5c-0.3,0.4-0.6,0.9-1,1.4l7.4,13.8l-7.7,0.5c-7.1,0.5-14.8,0.9-22.8,1.2
		c-2.9,1.3-6.1,1.8-9.8,1.7L234.4,354.3z M188.6,343.3l17.7,0l26.4,1l0.5-0.2l1.2,0.1c3.7,0.3,5.6-0.4,6.8-1.1l1-0.5l1.1,0
		c5.4-0.2,10.7-0.5,15.8-0.8l-3.1-5.8l2-2.6c0.8-1.1,1.7-2.3,2.6-3.6c0.7-1,1.4-2,2.1-3l0.2-0.3l0.3-0.3c1.1-1.1,2.1-2.2,2.8-3.2
		c0.2-0.3,0.4-0.6,0.6-0.9l0.3-0.4c1.1-1.3,2-3.2,2.7-5.5l0.1-0.3c2.9-8.3,2.6-17.7,2.4-23.9c0-1.5-0.1-2.7-0.1-3.8V288
		c0-0.8,0-1.4,0-2.1c0-2.4,0.1-5.2,0.1-8.4c0.1-8.2,0.2-18.5,0.1-26.4l0-0.1l0.2-8.7c0.1-2.3,0.3-4.8,0.5-7.2
		c0.7-8.8,1.5-18.8-0.2-23.6l-8.5-11.3c-8.7-0.4-17.2-1.5-20.9-6.5c-1-1.4-1.4-3.1-1.7-8.1C241,175.2,232.4,167,222,167h-9.8
		l-35.9-0.6c-12-1-24.9-1.5-39.4-1.6c-14.4,0-28.9,0.5-43.1,1.5c-15.4,11.5-25.1,28.8-27,47.9l4.3,62.5l5,21l38.2,40.5
		c23.5,2.5,47.7,4.1,71.9,4.7l2,0.1L188.6,343.3z M272.3,210.4C272.3,210.4,272.3,210.4,272.3,210.4L272.3,210.4z M262.8,198.3
		c0,0,0.1,0.1,0.1,0.1L262.8,198.3z"/>
</g>
<g>
	<path class="st26" d="M70.5,199.4h27.6c5.9,0,11.7,1.2,17,3.6c4.1,1.8,9,4.2,12.8,6.5c8.2,4.9,17.7,6.3,28.8,0
		c11.2-6.3,35.2-12.2,47.2-10.1c10.3,1.8,23.2,8.4,24.8,20.8c0.3,2,44.8,5.9,44.4,8.2c-0.3,1.6-45.2,1.5-45.4,3.1
		c-2.3,14.7-3,26.7-17.4,25.9c-15.8-0.9-39.9,5.1-47.6-8.7c-7.7-13.7-16.2-18.5-21.4-17.2c-15.3,4-12.6,14-20.5,19.8
		c-9.9,7.2-30.5,4.5-43.5,3.2S64.2,207.1,70.5,199.4z"/>
</g>
<g>
	<path class="st7" d="M234.2,414l-0.2-1.4l0,0c-0.9-5.8-11.4-40.8-0.4-63.2c1.9-3.8,2.6-9.6,23.4-14.5c22.8-5.4,28.9,5,32.1,7.7
		c15.4,13.3,16.4,40.2,17.5,45.7c0.2,0.8,0.4,1.5,0.6,2.2l0.3,0.9l1.9,9.8C309.4,401.2,287.7,413.7,234.2,414z"/>
	<path class="st1" d="M229.8,419l-0.8-5.7c-0.1-0.6-0.4-2-0.8-3.6c-2.6-11.4-9.4-41.7,0.8-62.5c0.2-0.3,0.3-0.6,0.4-1
		c2.5-5.7,6.7-11.6,26.3-16.2c22.7-5.4,31.6,3.8,35.5,7.8c0.4,0.4,0.8,0.8,1,1c14.6,12.6,17.5,35.4,18.7,45.2
		c0.2,1.4,0.3,2.6,0.4,3.2c0.2,0.7,0.3,1.2,0.5,1.8l0.4,1.4l2.6,13.3l-3.1,1.8c-0.9,0.5-23.5,13.2-77.7,13.5L229.8,419z
		 M268.8,338.3c-3,0-6.5,0.4-10.7,1.4c-16.5,3.9-18.2,7.8-19.5,10.6c-0.2,0.5-0.4,0.9-0.6,1.3c-8.7,17.7-2.4,45.4,0,55.9
		c0.1,0.5,0.2,1,0.3,1.4c37.7-0.6,58.1-7.5,65.4-10.6l-1.1-5.7l-0.3-0.8c-0.2-0.8-0.4-1.5-0.6-2.4l-0.1-0.2c-0.2-1-0.4-2.3-0.6-4.1
		c-1.1-8.6-3.6-28.7-15.3-38.8c-0.5-0.5-1.1-1-1.7-1.6C281.6,342.2,277.9,338.3,268.8,338.3z"/>
</g>
<g>
	<ellipse class="st1" cx="183.5" cy="229.4" rx="5.1" ry="7.6"/>
	<path class="st1" d="M183.5,242c-5.7,0-10.1-5.5-10.1-12.6s4.4-12.6,10.1-12.6c5.7,0,10.1,5.5,10.1,12.6S189.1,242,183.5,242z
		 M183.5,228.3c-0.1,0.3-0.1,0.7-0.1,1.1s0,0.8,0.1,1.1c0.1-0.3,0.1-0.7,0.1-1.1S183.5,228.6,183.5,228.3z"/>
</g>
<g>
	<ellipse class="st1" cx="103.6" cy="229.4" rx="5.1" ry="7.6"/>
	<path class="st1" d="M103.6,242c-5.7,0-10.1-5.5-10.1-12.6s4.4-12.6,10.1-12.6s10.1,5.5,10.1,12.6S109.3,242,103.6,242z
		 M103.6,228.3c-0.1,0.3-0.1,0.7-0.1,1.1s0,0.8,0.1,1.1c0.1-0.3,0.1-0.7,0.1-1.1S103.7,228.6,103.6,228.3z"/>
</g>
<g>
	<path class="st2" d="M251,138.7c0,3.5,0,10.1-2,21.2c-2,11.1-10,9-13.9,18.7c-4,9.7,1.3,26.2,0,26.2c-0.9,0-7.5,0.9-14.9,0
		c-3.2-0.4-6.6-9-9.7-10.3c-3.7-1.5-7.5,6-11.5,6c-4,0-8.2-13.6-12.5-13.1c-3.3,0.4-6.8,14.8-10.2,14.8c-3.3,0-6.1-45.4-9.3-45.3
		c-6.4,0.1-13.2,45.6-19.2,45.5c-2.1,0-4.2-11-6.3-11.1c-4.9-0.2-11.4,9.4-19.5,8.4c-4.6-0.6-9.7-15.7-15.4-15.9
		c-4-0.2-8.2,14.4-12.7,14.6c-2.1,0.1,0.4-27.5-1.8-27.3c-3.1,0.3-10.2,28.2-12.5,28.2c-16.3,0.1-13.1-6-13.2-10.8
		c0-5.4,6.4-33.3,6.4-33.3s3.8-13.7,3.5-19.8"/>
	<path class="st1" d="M226.9,210.2c-2.2,0-4.7-0.1-7.3-0.4c-4-0.5-6.4-4-8.8-7.4c-0.5-0.7-1.2-1.7-1.8-2.5c-0.5,0.4-1,0.8-1.4,1.2
		c-2.2,2-5,4.4-8.7,4.5c0,0,0,0-0.1,0c-4.7,0-7.5-4.5-10.2-8.8c-0.4-0.7-1-1.6-1.5-2.4c-0.4,0.9-0.8,1.8-1.2,2.5
		c-2.5,5.3-4.8,10.4-9.8,10.4c-5.3,0-6.4-6-7.3-11.2c-0.8-4.4-1.6-10.2-2.3-15.9c-0.4-3-0.9-6.6-1.4-9.9c-1.2,3.9-2.5,8.2-3.4,11.5
		c-5.1,17.8-7.6,25.7-14,25.7c0,0-0.1,0-0.1,0c-4.5-0.1-6.2-4.5-7.8-8.9c-0.1-0.3-0.3-0.7-0.4-1.2c-0.7,0.5-1.5,1.1-2.2,1.5
		c-3.9,2.8-9.3,6.6-15.9,5.8c-4.5-0.6-7.3-4.9-10.4-9.6c-1-1.5-2.6-4-3.9-5.4c-0.7,1.1-1.6,2.6-2.2,3.6c-2.8,4.9-5.7,9.9-10.7,10.1
		c-1.4,0.1-2.9-0.5-3.9-1.5c-1.6-1.5-2.1-3.5-2.2-8.6c-2.9,8.1-4.5,11-8.4,11c-8.1,0.1-12.9-1.3-15.8-4.4c-3-3.3-2.7-7.2-2.5-9.8
		c0.1-0.6,0.1-1.2,0.1-1.6c0-5.7,5.5-29.7,6.6-34.4l0-0.2c1.4-5,3.5-14.4,3.3-18.2l10-0.4c0.3,6.5-3.1,19.3-3.6,21.2
		c-2.6,11.3-6.3,28.7-6.3,32.1c0,0.9-0.1,1.7-0.1,2.5c-0.1,0.7-0.1,1.7-0.1,2.2c0.3,0.2,1.7,0.9,5.7,1.1c1-2.3,2.4-6.3,3.4-9.2
		c4.9-14.1,6.7-18.6,11.3-19c1.5-0.1,3,0.4,4.1,1.4c2.4,2.2,2.5,5.5,2.3,17.5c0,0.1,0,0.1,0,0.2c2.3-3.7,4.8-6.6,8.7-6.4
		c5.6,0.2,9.1,5.6,12.5,10.8c1.1,1.6,2.8,4.3,3.8,5.2c0,0,0,0,0,0c2.6,0,5.5-2.1,8.3-4.1c3.2-2.3,6.5-4.6,10.3-4.4
		c3.4,0.2,5.1,2.7,6.4,6c1.4-4.1,2.9-9.3,4.1-13.4c5.2-18.2,8-26.9,14.7-27c5.3-0.1,6.4,5.9,7.3,11.1c0.8,4.3,1.6,10.1,2.3,15.7
		c0.5,3.4,1,7.7,1.6,11.4c2-4.1,4.1-7.4,7.8-7.8c5.3-0.6,8.5,4.5,11.3,9c0.6,1,1.5,2.5,2.3,3.5c0.5-0.4,1.1-0.9,1.5-1.3
		c2.6-2.3,6.4-5.7,11.3-3.7c2.9,1.1,4.8,3.9,6.8,6.8c0.7,1,1.8,2.6,2.4,3.2c3,0.3,5.9,0.3,8.2,0.2c-1-6.3-2.3-16,0.7-23.5
		c2.3-5.7,5.8-8.3,8.6-10.4c2.8-2.1,4.3-3.2,5-7.3c1.9-10.6,1.9-16.9,1.9-20.3h10c0,3.7,0,10.5-2.1,22.1c-1.5,8-5.6,11-8.9,13.5
		c-2.4,1.8-4.1,3-5.3,6.2c-2.1,5.2-0.7,14.2,0,19c0.7,4.3,1,6.5-0.8,8.5c-1,1.1-2.4,1.8-3.8,1.8c-0.2,0-0.4,0-0.7,0.1
		C232.9,210,230.2,210.2,226.9,210.2z M235.1,199.8c-0.1,0-0.2,0-0.3,0C234.9,199.8,235,199.8,235.1,199.8z M141.4,196.4
		L141.4,196.4L141.4,196.4z M123.4,195.1L123.4,195.1L123.4,195.1z"/>
</g>
<g>
	<polyline class="st24" points="110.2,297.7 125.1,297.7 135.2,297.4 146.1,297.7 165.8,298.1 179,295.5 	"/>
	<polygon class="st1" points="166.3,303.1 135.2,302.4 125.1,302.7 110.2,302.7 110.2,292.7 125.1,292.7 135.2,292.4 146.3,292.7 
		165.4,293.1 178.1,290.6 180,300.4 	"/>
</g>
<g>
	<path class="st1" d="M103.5,618.9H83.1v-8.6h11.8v-5.7l-7.4-13.9c-0.7,0-1.6,0-3,0.2l-1-8.6c5.2-0.6,7.6,0,8.8,0.7l1.1,0.6
		l10.1,18.8V618.9z"/>
</g>
<g>
	<polygon class="st1" points="164.7,392.9 105.2,388.7 97.9,343 106.4,341.7 112.6,380.6 164.6,384.3 221.9,378.4 224.3,355.1 
		232.9,356 229.7,386.3 	"/>
</g>
<g>
	<path class="st24" d="M115.5,397.6C115.4,397.6,115.4,397.7,115.5,397.6c-3.4-2.1-7.9-1.5-10.6,1.5c-2.7,3.1-2.7,7.6-0.1,10.6
		c0,0,0,0-0.1,0.1c-3,3.4-2.6,8.5,0.7,11.5c3.4,3,8.5,2.6,11.5-0.7c0,0,0-0.1,0.1-0.1c0.3,0.3,0.5,0.6,0.8,0.9
		c3.4,3,8.5,2.6,11.5-0.7c3-3.4,2.6-8.5-0.7-11.5c-0.3-0.3-0.6-0.5-1-0.7c0,0,0,0,0.1-0.1c3-3.4,2.6-8.5-0.7-11.5
		C123.6,393.9,118.4,394.3,115.5,397.6z"/>
	<path class="st1" d="M123.2,425.7c-2.2,0-4.4-0.7-6.2-2c-1.6,1.1-3.5,1.8-5.5,2c-2.8,0.2-5.5-0.7-7.6-2.6c-2.1-1.9-3.4-4.4-3.5-7.2
		c-0.1-2.2,0.4-4.3,1.5-6.2c-2.2-3.8-1.7-8.7,1.2-12.1c3-3.4,7.8-4.4,11.9-2.8c1.7-1.4,3.7-2.2,5.9-2.3c2.8-0.2,5.5,0.7,7.6,2.6
		c2.1,1.9,3.4,4.4,3.5,7.2c0.1,2-0.3,4-1.3,5.7c1.7,1.8,2.7,4.1,2.9,6.6c0.2,2.8-0.7,5.5-2.6,7.6c-1.9,2.1-4.4,3.4-7.2,3.5
		C123.6,425.7,123.4,425.7,123.2,425.7z M117,416.8l1.8,2.1c0.2,0.3,0.4,0.5,0.6,0.6c1.2,1,2.6,1.5,4.2,1.4c1.5-0.1,2.9-0.8,4-1.9
		s1.5-2.6,1.4-4.2s-0.8-2.9-1.9-4c-0.2-0.2-0.4-0.3-0.7-0.5l-2.3-1.5l2-2.1c1-1.1,1.5-2.6,1.4-4.1c-0.1-1.5-0.8-2.9-1.9-4
		s-2.6-1.5-4.2-1.4c-1.5,0.1-2.9,0.8-3.9,1.9l-0.1,0.1l-1.3,1.5l-1.7-1.1c-2.4-1.5-5.6-1.1-7.4,1c-1.9,2.1-1.9,5.4-0.1,7.5l1.3,1.6
		l-1.5,1.6c-1,1.1-1.5,2.6-1.4,4.1c0.1,1.5,0.8,2.9,1.9,4c1.2,1,2.6,1.5,4.2,1.4c1.5-0.1,2.9-0.8,3.9-1.9l0.1-0.1L117,416.8z"/>
</g>
<g>
	<path class="st24" d="M101.7,448.6C101.7,448.6,101.7,448.7,101.7,448.6c-3.8,1.2-6.3,5-5.7,9c0.6,4,4.1,6.9,8,6.9c0,0,0,0.1,0,0.1
		c0.6,4.4,4.8,7.5,9.2,6.9c4.4-0.6,7.5-4.8,6.9-9.2c0,0,0-0.1,0-0.1c0.4,0,0.8,0,1.2-0.1c4.4-0.6,7.5-4.8,6.9-9.2
		c-0.6-4.4-4.8-7.5-9.2-6.9c-0.4,0.1-0.8,0.2-1.2,0.3c0,0,0-0.1,0-0.1c-0.6-4.4-4.8-7.5-9.2-6.9C104.1,440,101,444.2,101.7,448.6z"
		/>
	<path class="st1" d="M112.1,474c-4.5,0-8.6-2.9-10-7.2c-4.3-0.8-7.8-4.3-8.4-8.8c-0.7-4.5,1.7-8.8,5.6-10.8c0.1-5,3.8-9.4,9-10.1
		c2.8-0.4,5.5,0.3,7.8,2c1.6,1.2,2.8,2.8,3.5,4.6c5.3-0.3,10.2,3.5,11,9c0.4,2.8-0.3,5.5-2,7.8c-1.5,2-3.6,3.4-6,3.9
		c-0.1,1.9-0.8,3.8-2.1,5.4c-1.7,2.2-4.1,3.7-6.9,4.1C113.1,474,112.6,474,112.1,474z M106.4,464.4c0.5,3.1,3.4,5.3,6.5,4.8
		c1.5-0.2,2.9-1,3.8-2.3c0.9-1.2,1.3-2.7,1.1-4.2l0-0.1l-0.4-2.7l2.8,0c0.3,0,0.6,0,0.9-0.1c1.5-0.2,2.9-1,3.8-2.3s1.3-2.8,1.1-4.3
		c-0.5-3.1-3.4-5.3-6.5-4.9c-0.2,0-0.5,0.1-0.8,0.2l-2.6,0.8l-0.4-2.9c-0.2-1.5-1-2.8-2.2-3.7c-1.2-0.9-2.7-1.3-4.3-1.1
		c-3.1,0.5-5.3,3.4-4.9,6.5l0,0.1l0.3,2l-2,0.6c-2.7,0.8-4.4,3.5-4,6.3s2.9,4.9,5.7,4.9l2.1,0L106.4,464.4z"/>
</g>
<g>
	<path class="st24" d="M137.5,445.2C137.6,445.2,137.6,445.2,137.5,445.2c-0.1,4,2.5,7.6,6.5,8.4c4,0.8,7.9-1.4,9.3-5.1
		c0,0,0.1,0,0.1,0c4.4,0.9,8.7-1.9,9.6-6.3s-1.9-8.7-6.3-9.6c0,0-0.1,0-0.1,0c0.1-0.4,0.3-0.8,0.3-1.2c0.9-4.4-1.9-8.7-6.3-9.6
		c-4.4-0.9-8.7,1.9-9.6,6.3c-0.1,0.4-0.1,0.8-0.2,1.2c0,0-0.1,0-0.1,0c-4.4-0.9-8.7,1.9-9.6,6.3
		C130.3,439.9,133.1,444.2,137.5,445.2z"/>
	<path class="st1" d="M145.7,456.1c-0.7,0-1.4-0.1-2.1-0.2c-4.4-0.9-7.7-4.6-8.2-9c-2-0.8-3.7-2.2-4.9-4c-1.5-2.3-2.1-5.1-1.5-7.9
		c0.6-2.7,2.2-5.1,4.5-6.6c1.7-1.1,3.6-1.7,5.6-1.7c1.6-5.1,6.8-8.3,12.2-7.2c2.7,0.6,5.1,2.2,6.6,4.5c1.4,2.1,1.9,4.5,1.6,7
		c1.8,0.8,3.3,2.1,4.4,3.8c1.5,2.3,2.1,5.1,1.5,7.9c-0.6,2.7-2.2,5.1-4.5,6.6c-1.8,1.2-4,1.8-6.1,1.7
		C152.8,454.2,149.4,456.1,145.7,456.1z M138,442.8l2.2,0.4l-0.1,2.1c-0.2,2.8,1.8,5.4,4.6,6c2.8,0.6,5.6-1,6.6-3.6l0.7-1.9l2.1,0.5
		c1.5,0.3,3,0,4.3-0.8c1.3-0.8,2.2-2.1,2.5-3.6c0.3-1.5,0-3-0.8-4.3c-0.8-1.3-2.1-2.1-3.6-2.5l-0.2,0l-2.7-0.6l1-2.6
		c0.1-0.3,0.2-0.6,0.2-0.8c0.3-1.5,0-3-0.8-4.3s-2.1-2.2-3.6-2.5c-3.1-0.7-6.2,1.3-6.8,4.5c-0.1,0.2-0.1,0.5-0.1,0.9l-0.2,2.7
		l-2.8-0.6c-1.5-0.3-3,0-4.3,0.8c-1.3,0.8-2.2,2.1-2.5,3.6c-0.3,1.5,0,3,0.8,4.3C135.2,441.6,136.5,442.5,138,442.8z"/>
</g>
<g>
	<path class="st24" d="M146.3,499.4C146.3,499.4,146.3,499.3,146.3,499.4c3.6,1.6,8,0.5,10.3-2.9c2.3-3.4,1.6-7.9-1.3-10.5
		c0,0,0-0.1,0.1-0.1c2.5-3.7,1.5-8.8-2.2-11.3c-3.7-2.5-8.8-1.5-11.3,2.2c0,0,0,0.1-0.1,0.1c-0.3-0.3-0.6-0.5-0.9-0.7
		c-3.7-2.5-8.8-1.5-11.3,2.2c-2.5,3.7-1.5,8.8,2.2,11.3c0.3,0.2,0.7,0.4,1.1,0.6c0,0,0,0.1-0.1,0.1c-2.5,3.7-1.5,8.8,2.2,11.3
		C138.8,504.1,143.8,503.1,146.3,499.4z"/>
	<path class="st1" d="M139.5,505.4c-2,0-4.1-0.6-5.8-1.8c-2.3-1.6-3.9-3.9-4.5-6.7c-0.4-2-0.2-4,0.5-5.8c-4.2-3.4-5.2-9.5-2.2-14
		c3-4.6,9.1-6,13.8-3.4c3.5-3.3,8.9-3.9,13-1.1c2.3,1.6,3.9,3.9,4.5,6.7c0.4,2.2,0.2,4.3-0.7,6.3c2.6,3.5,2.9,8.4,0.4,12.2
		c-2.5,3.7-7.1,5.4-11.4,4.3c-1.5,1.6-3.4,2.6-5.6,3.1C140.9,505.3,140.2,505.4,139.5,505.4z M134.7,491.7c-0.8,1.3-1.1,2.8-0.8,4.3
		c0.3,1.5,1.2,2.8,2.5,3.7c1.3,0.9,2.8,1.2,4.3,0.9c1.5-0.3,2.8-1.2,3.6-2.4l1.2-1.9l1.9,0.9c2.6,1.2,5.7,0.3,7.2-2
		c1.6-2.4,1.2-5.6-0.9-7.5l-1.5-1.4l1.2-1.8c0.8-1.3,1.1-2.8,0.8-4.3c-0.3-1.5-1.2-2.8-2.5-3.7c-2.6-1.7-6.2-1.1-8,1.5l-0.1,0.1
		l-1.5,2.3l-2-1.9c-0.2-0.2-0.5-0.4-0.7-0.5c-1.3-0.9-2.8-1.2-4.3-0.9c-1.5,0.3-2.8,1.2-3.7,2.5c-1.8,2.6-1,6.2,1.6,8
		c0.2,0.1,0.4,0.3,0.8,0.4l2.6,1.2L134.7,491.7z"/>
</g>
<g>
	<path class="st24" d="M117.6,498.7C117.6,498.7,117.5,498.7,117.6,498.7c3.2-2.4,4.3-6.7,2.5-10.4c-1.9-3.6-6.1-5.3-9.8-4
		c0,0,0-0.1,0-0.1c-2-4-6.9-5.6-10.9-3.6c-4,2-5.6,6.9-3.6,10.9c0,0,0,0.1,0,0.1c-0.4,0.1-0.8,0.3-1.1,0.5c-4,2-5.6,6.9-3.6,10.9
		c2,4,6.9,5.6,10.9,3.6c0.4-0.2,0.7-0.4,1-0.6c0,0,0,0.1,0,0.1c2,4,6.9,5.6,10.9,3.6C118,507.6,119.6,502.7,117.6,498.7z"/>
	<path class="st1" d="M110.4,512.9c-3.1,0-6.1-1.4-8.1-3.8c-2.3,0.9-4.8,1-7.2,0.3c-2.7-0.9-4.8-2.7-6.1-5.2c-1.3-2.5-1.5-5.3-0.6-8
		c0.8-2.4,2.3-4.4,4.4-5.7c-0.5-1.9-0.4-3.9,0.2-5.8c0.9-2.7,2.7-4.8,5.2-6.1c4.6-2.3,10.2-0.9,13.2,3.1c4.3-0.6,8.8,1.6,10.8,5.6
		c2,4,1.2,8.9-1.8,12c0.6,2.1,0.6,4.3,0,6.3c-0.9,2.7-2.7,4.8-5.2,6.1C113.6,512.5,111.9,512.9,110.4,512.9z M105.2,505.1
		c1.5,2.8,4.9,3.9,7.7,2.5c1.4-0.7,2.4-1.9,2.9-3.4c0.5-1.4,0.4-3-0.3-4.3l-0.1-0.1l-1-1.8l1.7-1.2c2.3-1.6,3.1-4.8,1.8-7.3
		c-1.3-2.5-4.3-3.7-7-2.8l-1.9,0.7l-1-2c-1.5-2.8-4.9-3.9-7.7-2.5c-1.4,0.7-2.4,1.9-2.9,3.4c-0.5,1.4-0.4,3,0.3,4.3l1.4,2.6
		l-2.6,0.9c-0.3,0.1-0.6,0.2-0.8,0.3c-2.8,1.4-4,4.9-2.5,7.7c0.7,1.4,1.9,2.4,3.4,2.9c1.5,0.5,3,0.4,4.4-0.3
		c0.2-0.1,0.5-0.3,0.7-0.5l2.2-1.6L105.2,505.1z"/>
</g>
<g>
	<path class="st24" d="M206.3,393.7c-3.4,3-3.7,8.1-0.7,11.5c0,0,0,0,0.1,0.1c-0.3,0.2-0.7,0.5-1,0.7c-3.4,3-3.7,8.1-0.7,11.5
		c3,3.4,8.1,3.7,11.5,0.7c0.3-0.3,0.6-0.6,0.8-0.9c0,0,0,0.1,0.1,0.1c3,3.4,8.1,3.7,11.5,0.7c3.4-3,3.7-8.1,0.7-11.5
		c0,0,0,0-0.1-0.1c2.6-3,2.6-7.5-0.1-10.6c-2.7-3.1-7.2-3.6-10.5-1.4c0,0,0-0.1-0.1-0.1C214.8,391.1,209.7,390.8,206.3,393.7z"/>
	<path class="st1" d="M210.1,422.6c-0.2,0-0.4,0-0.7,0c-2.8-0.2-5.4-1.4-7.2-3.5c-1.9-2.1-2.8-4.8-2.6-7.6c0.2-2.5,1.2-4.8,2.9-6.6
		c-0.9-1.7-1.4-3.7-1.3-5.7c0.2-2.8,1.4-5.4,3.5-7.2l0,0c3.9-3.4,9.6-3.4,13.5-0.3c4.1-1.7,8.9-0.6,11.9,2.8c3,3.4,3.4,8.3,1.2,12.1
		c1.1,1.8,1.7,4,1.5,6.2c-0.2,2.8-1.4,5.4-3.5,7.2c-2.1,1.9-4.8,2.8-7.6,2.6c-2-0.1-3.9-0.8-5.5-2
		C214.5,421.9,212.3,422.6,210.1,422.6z M207.3,403.6l0.1,0.1l1.8,2.1l-2.3,1.5c-0.3,0.2-0.5,0.3-0.7,0.5c-1.2,1-1.8,2.4-1.9,4
		s0.4,3,1.4,4.2s2.4,1.8,4,1.9c1.5,0.1,3-0.4,4.2-1.4c0.2-0.2,0.4-0.4,0.6-0.6l1.8-2.1l1.9,2.2c2.1,2.3,5.7,2.5,8.1,0.5
		c1.2-1,1.8-2.4,1.9-4c0.1-1.5-0.4-3-1.4-4.1l-0.1-0.1l-1.3-1.5l1.3-1.6c1.8-2.2,1.8-5.4-0.1-7.5c-1.9-2.1-5.1-2.6-7.4-1l-1.7,1.1
		L216,396c-2.1-2.3-5.7-2.6-8.1-0.5l0,0c-1.2,1-1.8,2.4-1.9,4C205.8,401,206.3,402.5,207.3,403.6z"/>
</g>
<g>
	<path class="st24" d="M257.5,378.5c1.1,4.4,5.5,7,9.9,5.9c0,0,0.1,0,0.1,0c0,0.4,0.1,0.8,0.2,1.2c1.1,4.4,5.5,7,9.9,5.9
		c4.4-1.1,7-5.5,5.9-9.9c-0.1-0.4-0.2-0.8-0.4-1.1c0,0,0.1,0,0.1,0c4.4-1.1,7-5.5,5.9-9.9c-1.1-4.4-5.5-7-9.9-5.9c0,0-0.1,0-0.1,0
		c-1.5-3.7-5.5-5.8-9.5-4.8c-4,1-6.5,4.7-6.1,8.7c0,0-0.1,0-0.1,0C259,369.8,256.4,374.2,257.5,378.5z"/>
	<path class="st1" d="M275.5,394.1c-4.4,0-8.4-2.8-9.9-7.1c-4.8,0.1-9.2-3.1-10.4-7.9c-0.7-2.7-0.3-5.5,1.2-7.9
		c1.1-1.9,2.8-3.3,4.8-4.2c0.4-4.4,3.5-8.2,7.9-9.3c4.4-1.1,8.9,0.8,11.3,4.5c5-0.4,9.7,2.9,11,7.9c1.2,4.8-1.2,9.7-5.4,11.9
		c0.4,2.4-0.1,4.9-1.4,7c-1.4,2.4-3.7,4.1-6.4,4.8C277.2,394,276.3,394.1,275.5,394.1z M269.5,381.5l0.3,2.7c0,0.3,0.1,0.6,0.1,0.8
		c0.4,1.5,1.3,2.8,2.6,3.5c1.3,0.8,2.9,1,4.4,0.6c1.5-0.4,2.8-1.3,3.5-2.6c0.8-1.3,1-2.9,0.6-4.4c-0.1-0.2-0.1-0.5-0.3-0.8l-1.1-2.6
		l2.9-0.6c3-0.8,4.9-3.9,4.1-7c-0.8-3.1-3.9-4.9-6.9-4.2l-0.2,0l-2,0.5l-0.8-1.9c-1.1-2.6-4-4.1-6.7-3.4c-2.7,0.7-4.6,3.3-4.3,6.1
		l0.2,2l-2.1,0.5c-1.5,0.4-2.7,1.3-3.5,2.6c-0.8,1.3-1,2.9-0.6,4.4l0,0c0.4,1.5,1.3,2.8,2.6,3.5c1.3,0.8,2.8,1,4.3,0.7l0.2,0
		L269.5,381.5z"/>
</g>
<g>
	<path class="st24" d="M224.7,441c-4.4-0.6-8.6,2.4-9.2,6.9c0,0,0,0.1,0,0.1c-0.4-0.1-0.8-0.2-1.2-0.3c-4.4-0.6-8.6,2.4-9.2,6.9
		c-0.6,4.4,2.4,8.6,6.9,9.2c0.4,0.1,0.8,0.1,1.2,0.1c0,0,0,0.1,0,0.1c-0.6,4.4,2.4,8.6,6.9,9.2c4.4,0.6,8.6-2.4,9.2-6.9
		c0,0,0-0.1,0-0.1c4,0,7.4-2.9,8-6.9c0.6-4-1.9-7.8-5.7-8.9c0,0,0-0.1,0-0.1C232.2,445.8,229.1,441.7,224.7,441z"/>
	<path class="st1" d="M221.2,475.6c-0.5,0-1,0-1.5-0.1c-4.9-0.7-8.6-4.8-8.9-9.6c-5.2-1.2-8.8-6.3-8-11.7c0.4-2.8,1.9-5.2,4.1-6.9
		c2-1.5,4.4-2.2,6.9-2.1c1.7-4.5,6.4-7.3,11.3-6.6c5.1,0.7,8.8,5.1,9,10.1c3.9,2,6.2,6.4,5.6,10.8c-0.6,4.5-4.1,8-8.4,8.8
		C229.7,472.7,225.7,475.6,221.2,475.6z M215.5,464.3c-0.4,3.1,1.7,6,4.9,6.5c3.1,0.5,6-1.7,6.5-4.8l0.3-2.2l2.1,0
		c2.8,0,5.3-2.1,5.7-4.9s-1.3-5.5-4-6.3l-2-0.6l0.3-2.2c0.4-3.1-1.7-6-4.9-6.5c-3.1-0.5-6,1.7-6.5,4.8l-0.3,2.9l-2.7-0.8
		c-0.3-0.1-0.6-0.2-0.8-0.2c-3.1-0.5-6.1,1.7-6.5,4.9c-0.5,3.1,1.7,6.1,4.9,6.5c0.2,0,0.5,0.1,0.9,0.1l2.7,0L215.5,464.3z"/>
</g>
<g>
	<path class="st24" d="M203.7,433.3c-1.5-4.2-6.2-6.4-10.4-4.9c0,0-0.1,0-0.1,0c-0.1-0.4-0.2-0.8-0.3-1.2c-1.5-4.2-6.2-6.4-10.4-4.9
		c-4.2,1.5-6.4,6.2-4.9,10.4c0.1,0.4,0.3,0.7,0.5,1.1c0,0-0.1,0-0.1,0c-4.2,1.5-6.4,6.2-4.9,10.4c1.5,4.2,6.2,6.4,10.4,4.9
		c0,0,0.1,0,0.1,0c1.9,3.5,6.1,5.2,9.9,3.8c3.8-1.4,6-5.4,5.2-9.2c0,0,0.1,0,0.1,0C203.1,442.2,205.3,437.5,203.7,433.3z"/>
	<path class="st1" d="M190.8,455.8c-3.1,0-6.2-1.4-8.2-3.9c-4.9,0.9-9.9-1.9-11.7-6.8c-1.7-4.7,0.2-9.8,4.2-12.4
		c-1.4-5.2,1.4-10.7,6.6-12.6c5.2-1.9,10.8,0.6,13.1,5.5c1.9-0.2,3.9,0.1,5.7,0.9c2.5,1.2,4.5,3.3,5.4,5.9v0
		c1.8,4.9-0.3,10.2-4.7,12.7c0.1,4.4-2.7,8.5-6.9,10C193.2,455.6,192,455.8,190.8,455.8z M184.8,446.3l1,1.8c1.3,2.5,4.4,3.7,7,2.7
		c2.7-1,4.2-3.8,3.7-6.5l-0.4-2l2.1-0.7c3-1.1,4.5-4.4,3.4-7.4l0,0c-0.5-1.4-1.6-2.6-3-3.3c-1.4-0.6-2.9-0.7-4.3-0.2l-2.7,1
		l-0.6-2.7c-0.1-0.3-0.1-0.6-0.2-0.8c-1.1-3-4.4-4.5-7.4-3.5c-3,1.1-4.5,4.4-3.5,7.4c0.1,0.2,0.2,0.5,0.4,0.8l1.3,2.4l-2.8,0.9
		c-2.9,1.1-4.5,4.4-3.4,7.3c0.5,1.4,1.6,2.6,3,3.3c1.4,0.6,2.9,0.7,4.3,0.2l0.2-0.1L184.8,446.3z"/>
</g>
<g>
	<path class="st24" d="M199.1,501.6c3.7-2.5,4.7-7.5,2.2-11.3c0,0,0-0.1-0.1-0.1c0.4-0.2,0.7-0.4,1.1-0.6c3.7-2.5,4.7-7.5,2.2-11.3
		c-2.5-3.7-7.5-4.7-11.3-2.2c-0.3,0.2-0.7,0.5-0.9,0.7c0,0,0-0.1-0.1-0.1c-2.5-3.7-7.5-4.7-11.3-2.2c-3.7,2.5-4.7,7.5-2.2,11.3
		c0,0,0,0.1,0.1,0.1c-2.9,2.7-3.6,7.1-1.3,10.5c2.3,3.4,6.6,4.5,10.2,2.8c0,0,0,0.1,0,0.1C190.3,503.1,195.4,504.1,199.1,501.6z"/>
	<path class="st1" d="M194.6,505.4c-2.8,0-5.6-1.1-7.6-3.3c-4.2,1.1-8.9-0.6-11.4-4.3c-2.5-3.7-2.3-8.7,0.4-12.2
		c-2-4.6-0.5-10.1,3.8-13c4.1-2.8,9.6-2.2,13,1.1c4.7-2.6,10.7-1.2,13.8,3.4c3,4.6,2,10.6-2.2,14c0.7,1.8,0.9,3.8,0.5,5.8
		c-0.5,2.7-2.1,5.1-4.5,6.7C198.6,504.8,196.6,505.4,194.6,505.4z M189.9,498.1c1.8,2.6,5.3,3.3,8,1.5c1.3-0.9,2.2-2.2,2.5-3.7
		c0.3-1.5,0-3-0.8-4.3l-0.1-0.1l-1.5-2.3l2.5-1.2c0.3-0.1,0.5-0.3,0.8-0.4c2.6-1.8,3.4-5.3,1.6-8c-0.9-1.3-2.2-2.2-3.7-2.5
		c-1.5-0.3-3,0-4.3,0.9c-0.2,0.1-0.4,0.3-0.7,0.5l-2.1,1.9l-1.5-2.5c-0.9-1.3-2.1-2.1-3.6-2.4c-1.5-0.3-3,0-4.3,0.9
		c-1.3,0.9-2.2,2.2-2.5,3.7c-0.3,1.5,0,3,0.8,4.3l0.1,0.1l1.2,1.7l-1.5,1.4c-2.1,1.9-2.5,5.1-0.9,7.5c1.6,2.4,4.7,3.2,7.2,2l1.9-0.9
		L189.9,498.1z"/>
</g>
<g>
	<path class="st24" d="M219.2,509.7c4,2,8.9,0.4,10.9-3.6c0,0,0-0.1,0-0.1c0.3,0.2,0.7,0.4,1,0.6c4,2,8.9,0.4,10.9-3.6
		c2-4,0.4-8.9-3.6-10.9c-0.4-0.2-0.7-0.3-1.1-0.5c0,0,0-0.1,0-0.1c2-4,0.4-8.9-3.6-10.9c-4-2-8.9-0.4-10.9,3.6c0,0,0,0.1,0,0.1
		c-3.8-1.3-8,0.4-9.8,4c-1.9,3.6-0.7,8,2.5,10.3c0,0,0,0.1,0,0.1C213.6,502.7,215.2,507.6,219.2,509.7z"/>
	<path class="st1" d="M222.9,512.9c-1.6,0-3.2-0.4-4.7-1.1c-2.5-1.3-4.3-3.4-5.2-6.1c-0.7-2.1-0.7-4.3,0-6.3c-3-3.2-3.9-8-1.8-12
		s6.5-6.2,10.8-5.6c3-4,8.5-5.4,13.2-3.1c2.5,1.3,4.3,3.4,5.2,6.1c0.6,1.9,0.7,3.9,0.2,5.8c4.6,2.8,6.3,8.8,3.8,13.7
		c-2.5,4.9-8.3,7-13.3,5C228.9,511.6,225.9,512.9,222.9,512.9z M217.7,499.9c-0.7,1.4-0.8,2.9-0.3,4.4c0.5,1.5,1.5,2.7,2.9,3.4
		c2.8,1.4,6.3,0.3,7.7-2.5l0-0.1l1.2-2.5l2.3,1.6c0.3,0.2,0.5,0.3,0.7,0.5c2.8,1.4,6.3,0.3,7.7-2.5c1.4-2.8,0.3-6.3-2.5-7.7
		c-0.2-0.1-0.5-0.2-0.8-0.3l-2.6-0.9l1.4-2.6c0.7-1.4,0.8-2.9,0.3-4.3c-0.5-1.5-1.5-2.7-2.9-3.4c-1.4-0.7-2.9-0.8-4.4-0.3
		c-1.4,0.5-2.6,1.5-3.3,2.8l-0.1,0.1l-0.9,1.8l-1.9-0.7c-2.7-0.9-5.7,0.3-7,2.8c-1.3,2.5-0.5,5.7,1.8,7.3l1.7,1.2L217.7,499.9z"/>
</g>
<g>
	<path class="st34" d="M90.6,76.2c1-7,2.6-14,5-20.7c4.4-12.3,5.8-21.7,16.1-28.4c13.2-8.5,101-8,118.8,0s38.8,4.4,46.4,16.1
		c7.6,11.7,22,56.1,27.8,69.7c5.8,13.6,23.2,19.1,36.8,22.7s41.5,48.8,13.1,49.1c-22.7,0.2-38.3,5.7-38.3,5.7s4.2-36.7-56.5-45.8
		c-20-3-59.7-7-73.5-8.9c-13.8-1.9-53.8,0-77.6,0S73,155.4,73,155.4s-2.1,27.1-15.8,19.1c-13.6-8.1-58.8-43.7-19-49.5
		C68.9,120.4,88.9,88.4,90.6,76.2z"/>
	<path class="st1" d="M310.6,197.7l0.9-7.9c0.1-1.3,2.5-32.1-52.2-40.3c-11.5-1.7-29.7-3.8-45.7-5.6c-11.7-1.3-21.9-2.5-27.7-3.3
		c-8.9-1.3-30.8-0.8-50-0.4c-9.8,0.2-19.1,0.4-26.9,0.4c-18.1,0-28.5,12.9-31.1,16.5c-0.5,5-2.7,18.4-10.7,22.6
		c-2.6,1.4-6.9,2.3-12.4-0.9c-0.4-0.2-41.1-25.7-37.2-45.2c1.4-7.3,8.2-11.9,20.1-13.6c27.8-4.1,46.5-33.4,48.1-44.5
		c1.1-7.7,2.9-15,5.3-21.7c0.8-2.1,1.4-4.2,2.1-6.1c3.1-9.4,6-18.3,16-24.8c10.2-6.6,48.8-7,60.4-7c23.5,0.1,52.5,1.8,63.2,6.6
		c6.7,3,14,4.3,21.1,5.5c11.2,1.9,21.8,3.7,27.5,12.5c5.4,8.2,13.2,29.7,20,48.7c3.4,9.3,6.3,17.3,8.2,21.8
		c4.7,10.9,18.9,16,33.5,19.8c12.4,3.3,30.9,29.7,28.9,45.6c-0.5,4-3.2,13.2-17.1,13.3c-21.5,0.2-36.5,5.4-36.7,5.4L310.6,197.7z
		 M165.4,129.7c9.1,0,16.9,0.2,21.7,0.9c5.7,0.8,15.8,2,27.5,3.3c16.1,1.8,34.4,3.9,46.1,5.7c26.7,4,45,13.6,54.5,28.6
		c3.7,5.9,5.3,11.5,5.9,15.6c6.8-1.7,18.7-4,33.6-4.1c6.7-0.1,7-3,7.2-4.6c1.4-11.2-14.3-32.8-21.6-34.7
		c-17.1-4.5-33.8-10.7-40.2-25.5c-2-4.8-5-12.9-8.4-22.3c-6-16.6-14.3-39.4-19-46.6c-3.3-5.1-11.4-6.5-20.8-8.1
		c-7.3-1.3-15.6-2.7-23.5-6.2c-16.4-7.4-102.8-7.6-114.1-0.4c-7,4.5-9,10.5-12,19.5c-0.7,2-1.4,4.2-2.2,6.4
		c-2.2,6-3.8,12.7-4.8,19.7l0,0C94.4,85,87.7,97,79,106.8c-8.1,9-21.6,20.4-40,23.1c-6.9,1-11.2,3.1-11.7,5.6
		c-1.6,7.9,18.6,26.4,32.5,34.6c1.2,0.7,2.1,1,2.7,0.7c2.6-1.3,5-9.4,5.5-15.8l0.1-1.2l0.6-1c0.6-0.9,13.9-22.1,40.2-22.1
		c7.7,0,16.9-0.2,26.7-0.4C145.8,130,156.3,129.7,165.4,129.7z"/>
</g>
<g>
	<path class="st1" d="M83.1,102.9c0,0,17.4-3.2,43.1-3.8s37-4.7,60.3-1.7c23.4,3,48.7,4.5,67.8,7.5c19.1,3,20.2,1.9,37.6,5.7
		c15.4,3.4,24.6,14.3,24.6,14.3s-22.2-18.9-20.6-27.2s-9.3-5.6-24-8.6c-10.3-2.1-45.2-6.7-65.4-9.3c-9.4-1.2-18.9-1.4-28.4-0.7
		c-9.7,0.7-22.5,1.5-31.3,1.3c-7.5-0.2-28.9,1.7-40.1,2.7c-7.9,0.7-18.7,4.7-18.7,4.7L83.1,102.9z"/>
	<path class="st1" d="M313.2,128.7c-1.6-1.4-3.8-3.3-6-5.4c-3.8-2.9-9.4-6.2-16.5-7.8c-10.2-2.3-14.6-2.8-20.7-3.5
		c-4.2-0.5-8.9-1-16.5-2.2c-10.4-1.6-22.8-2.8-35.8-4.1c-10.5-1-21.3-2-31.8-3.4c-14.2-1.8-23.5-0.9-35.3,0.2
		c-6.8,0.6-14.6,1.4-24.3,1.6c-24.9,0.6-42.1,3.7-42.3,3.7l-8.2,1.5l8.1-25.4l2.3-0.8c0.5-0.2,11.6-4.2,20-5
		c11.9-1.1,32.9-2.9,40.7-2.7c8.6,0.2,21.5-0.6,30.8-1.3c9.8-0.7,19.7-0.5,29.4,0.8c20.1,2.6,55.4,7.2,65.8,9.3
		c4.2,0.9,8.2,1.2,11.7,1.6c6.6,0.6,11.9,1.1,14.8,5c1.6,2.1,2.1,4.8,1.5,7.9c-0.2,2.5,5.6,9.9,13.1,17.2c4,3.1,6.2,5.6,6.4,5.9
		L313.2,128.7z M170.1,91.4c5.1,0,10.7,0.3,17,1.1c10.3,1.3,21.1,2.3,31.5,3.3c13.2,1.3,25.7,2.5,36.4,4.1c7.4,1.2,12,1.7,16.1,2.2
		c6.2,0.7,11,1.3,21.8,3.6c0,0,0,0,0,0c-1.6-3.2-2.5-6.3-1.9-9c0,0,0,0,0,0c-1.5-0.5-4.8-0.8-7.4-1c-3.6-0.3-8-0.7-12.8-1.7
		c-10.1-2.1-45.1-6.7-65.1-9.2c-9-1.2-18.3-1.4-27.4-0.7c-9.5,0.7-22.7,1.5-31.7,1.3c-5.2-0.1-20,0.9-39.5,2.7
		c-5.1,0.5-11.7,2.5-15.2,3.6l-1.6,5.1c7.6-1,20.1-2.3,35.7-2.6c9.3-0.2,16.6-0.9,23.6-1.5C156.5,92,162.9,91.4,170.1,91.4z"/>
</g>
<g>
	<path class="st1" d="M152,611.3c-0.5-6.9-8.4-11.9-13.1-14.3c-7.4-3.7-15.2-5.3-20.1-5.4l-16.6,15.2l-5.8-6.4l19-17.3l1.5-0.1
		c14.4-0.8,42.6,9.4,43.8,27.7L152,611.3z"/>
</g>
<g>
	<polygon class="st1" points="207,618.9 186.6,618.9 186.6,610.3 198.4,610.3 198.4,605 186.9,589.4 193.8,584.3 207,602.1 	"/>
</g>
<g>
	<path class="st1" d="M265.3,614.2c-14.4-29-40.9-24.1-46.7-22.6l-12.7,14.8l-6.5-5.6l14.4-16.7l1.2-0.4
		c0.4-0.1,38.9-12.1,58.1,26.7L265.3,614.2z"/>
</g>
</svg>
