<?xml version="1.0" encoding="utf-8"?>
<!-- Generator: Adobe Illustrator 25.2.1, SVG Export Plug-In . SVG Version: 6.00 Build 0)  -->
<svg version="1.1" id="Layer_1" xmlns="http://www.w3.org/2000/svg" xmlns:xlink="http://www.w3.org/1999/xlink" x="0px" y="0px"
	 viewBox="0 0 298.3 620.3" style="enable-background:new 0 0 298.3 620.3;" xml:space="preserve">
<style type="text/css">
	.st0{fill:#2D4E9D;}
	.st1{fill:#1D1D1B;}
	.st2{fill:#754311;}
	.st3{fill:#FDECC9;}
	.st4{fill:#2B2B2B;}
	.st5{fill:#212D56;}
	.st6{fill:#CC2517;}
	.st7{fill:#E52B12;}
	.st8{fill:#8FBF21;}
	.st9{fill:#16E9FF;}
</style>
<g>
	<path class="st0" d="M167.7,76.7l22.1,0.6c0,0,8.6,0.3,39.3,11.8s26.7,42.5,37.9,69.8c11.2,27.3,5.1,111.7,5.1,111.7
		s5.4,40.8,0,48.1s-25.7,32.2-44.8,20.8C208.1,328,28.1,209.6,27.8,169l8.1-45.6c3.5-13,12.7-22.6,23.9-24.6
		C64.4,98.1,77.6,82,83.3,81c14.7-2.5,19.6-9.9,10.2-15.5s-17-11.1-13.4-21S94.6,27.1,109,27.1c-4.4,16.1-12.7,15.5-6,20.5
		s17.1,6.2,22.6,16.1c5.5,9.9,6,14.2,23.1,14.2L167.7,76.7z"/>
	<path class="st1" d="M237.7,348.4c-4.4,0-8.9-1.1-13.4-3.8c-9.2-5.5-59.4-38.2-107.4-74.7c-27.3-20.8-49-39.1-64.6-54.5
		C31.7,195,22,180.3,21.9,169l0-0.5l8.3-46.6c4.1-15.3,14.9-26.3,28.3-28.8c1.5-0.8,5.4-4.4,8-6.8c6.9-6.4,11.4-10.3,15.8-11.1
		c5.9-1,8.7-2.6,9.8-3.5c-0.3-0.3-0.8-0.7-1.6-1.1C83,66.1,69,57.8,74.6,42.5c4.7-12.9,18.2-21.3,34.4-21.3h7.7l-2,7.4
		c-2.1,7.7-5.1,12.2-7.1,15c1.6,1,3.5,1.9,5.6,2.9c5.8,2.7,13,6.1,17.6,14.3c0.5,1,1,1.9,1.5,2.8c3.8,7.1,4.5,8.4,16.3,8.4l19.1-1.2
		l22.4,0.6c1,0,10.5,0.7,41.2,12.2c24.7,9.3,29.6,29.9,34.4,49.8c1.9,7.8,3.8,15.8,6.9,23.3c11.2,27.3,6.1,105.5,5.6,113.8
		c0.3,2.4,1.4,11.3,2,21.1c1.3,21.5-0.9,27.5-3.2,30.6C271.6,329.2,255.8,348.4,237.7,348.4z M33.7,169.4
		c0.5,7.4,10.7,30.4,90.3,91.1c47.6,36.2,97.2,68.5,106.3,74c2.2,1.3,9,5.4,21.2-3.2c7.5-5.3,13.6-13,15.9-16.1
		c2.1-3.5,1.6-23.7-1.1-43.8l-0.1-0.6l0-0.6c0-0.2,1.5-21.2,1.6-45.3c0.2-31.3-2-53.3-6.3-63.8c-3.4-8.3-5.4-16.8-7.4-25
		c-4.6-19.3-8.3-34.5-27.1-41.5c-27.9-10.4-36.8-11.4-37.5-11.4l-21.7-0.6l-19.1,1.2c-18.1,0-21.8-5.3-26.8-14.6
		c-0.4-0.8-0.9-1.7-1.4-2.6c-2.7-4.9-7.2-7-12.3-9.4c-2.9-1.4-5.9-2.8-8.7-4.8c-8.3-6.2-4-12.1-1.9-14.9c0.6-0.9,1.3-1.8,2.1-3
		c-6.8,2.1-12,6.5-14,12.2c-1.6,4.3-0.4,7.2,10.9,14c8.1,4.8,7.9,10.8,7.5,13.1c-0.7,3.8-4.2,10.5-19.6,13.2
		c-1.9,0.7-6.9,5.3-9.9,8.1c-6.2,5.8-9.9,9.1-13.7,9.7c-8.7,1.6-16.2,9.5-19.2,20.1L33.7,169.4z"/>
</g>
<g>
	<path class="st2" d="M107.4,476.4H51.2c0-8.5,0.1-17,0.2-25.7c0.2-13.5,0.8-30.7,0.9-41.3c0.4-12.1,1.6-17.3,2.2-29.1
		c0.5-9.2,0.2-25,0.8-34c0.3-4.3,0.6-8.6,0.9-12.8l13.1,9.5l21.3,2.1c18,0.4,17.5,2.4,30.1,2.4l21.1-1.1c8.5,0,6.3-1.1,17.9,1.1
		l3.6,0.8c11.3-4.8,25.7,6,29-5.9l7.3-5.6l10.9-0.9c11.3,33.9-30.5,42.9-19.3,76.8c2.2,6.6,6.5,44.1,8.4,54.6
		c1.8,10,0.7,1.7,3.9,11.3l-64.5-2.1"/>
</g>
<g>
	<ellipse class="st3" cx="131.5" cy="347.5" rx="65.4" ry="25"/>
	<path class="st1" d="M131.5,377.5c-34.1,0-70.4-10.5-70.4-30s36.3-30,70.4-30c34.1,0,70.4,10.5,70.4,30S165.6,377.5,131.5,377.5z
		 M131.5,327.5c-37.4,0-60.4,11.6-60.4,20s23,20,60.4,20s60.4-11.6,60.4-20S168.9,327.5,131.5,327.5z"/>
</g>
<g>
	<path class="st4" d="M250.2,511.8v76.1l-106.4-2c0-15.8-0.2-56.6-0.2-72.3c0.5-29.6,25-53.3,53.8-53
		C225.2,460.7,248.8,483.2,250.2,511.8z"/>
	<path class="st1" d="M255.2,593l-116.4-2.2v-4.9c0-7.9-0.1-22.1-0.1-36.2c0-14.1-0.1-28.2-0.1-36.1c0.5-32.1,26.6-58,58.2-58
		c0.2,0,0.4,0,0.6,0c14.8,0.1,28.9,5.8,39.7,16.3c10.9,10.5,17.3,24.6,18,39.6l0,0.2V593z M148.8,581l96.4,1.8v-70.9
		c-0.6-12.5-6-24.1-15-32.8c-9-8.7-20.7-13.5-32.8-13.5c-0.2,0-0.3,0-0.5,0c-26.2,0-47.8,21.5-48.3,48.1c0,7.8,0.1,21.8,0.1,35.9
		C148.7,561.2,148.8,572.8,148.8,581z"/>
</g>
<g>
	<path class="st5" d="M52,415.3c0,0-2.7,3-3.3,7.1c-1,6.1-0.8,9.7-1.6,18.6c-0.2,2.5-2,41.7-4.8,41.5c-1.7-0.1-15-6.1-26.3-9.2
		c0.3-1.6,4.8-50.2,7-56.2c1.2-3.6,2.9-8.8,4.2-12.6c0.4-1.2,0.7-2.4,1-3.6l1.5-4.6c1.1-4.2,2-7.2,4.1-14.3
		c2-4.8,5.5-29.4,19.3-39.6h0.1l-1,53.8l-0.1,8.5L52,415.3"/>
	<path class="st1" d="M42.3,487.5c-0.1,0-0.3,0-0.4,0c-1.3-0.1-2.8-0.6-8.1-2.7c-5.3-2.1-12.6-4.9-19.1-6.7l-4.4-1.2l0.8-4.4
		c0.1-0.6,0.4-3.7,0.7-7c2.7-26.8,4.9-45.5,6.5-50l1.3-3.8c1-3,2.1-6.2,2.9-8.8c0.3-1,0.6-2,0.9-3.2l0.1-0.4l1.5-4.5
		c1-3.9,1.9-6.8,3.6-12.7l0.7-2.2c0.3-0.7,0.8-2.6,1.3-4.5c2.5-9.8,7.3-28,19.7-37.2l1.3-1h6.8l-1.1,58.9L57,417.2l-1.2,1.4
		c-0.1,0.1-1.7,2.1-2.1,4.5c-0.6,3.5-0.7,6.1-0.9,9.6c-0.1,2.4-0.3,5.1-0.6,8.7c0,0.3-0.1,1.1-0.1,2.4c-2.2,38.9-4,40.5-6.1,42.3
		C44.9,487,43.6,487.5,42.3,487.5z M21.4,469.7c5.8,1.8,11.6,4.1,16,5.8c0.6,0.2,1.2,0.5,1.8,0.7c0.7-4.3,1.7-13.5,2.7-32.9
		c0.1-1.4,0.1-2.4,0.2-2.7c0.3-3.5,0.5-6.1,0.6-8.4c0.2-3.7,0.4-6.6,1-10.6c0.5-3.5,2.1-6.3,3.2-8l0.2-17.5l0.7-39.8
		c-4.1,7.4-6.3,16.1-7.8,21.7c-0.6,2.5-1.1,4.3-1.6,5.6l-0.4,1.4c-1.8,6-2.6,8.7-3.6,12.5l-0.1,0.3l-1.4,4.4
		c-0.3,1.2-0.6,2.5-1.1,3.8c-0.9,2.6-2,5.8-2.9,8.8l-1.3,4c-1.5,4.1-4.8,36.9-5.9,47.7C21.6,467.8,21.5,468.8,21.4,469.7z"/>
</g>
<g>
	<path class="st2" d="M50.3,491.1c-6.7,10.5-5.8,23.6-12.5,34.1c-6.2-4-18.7-12.1-21.7-18.9c-7-15.6-1-30.5,0-33l16.9,5.9l16.4,5.8
		C49.8,487,50.1,489,50.3,491.1z"/>
	<path class="st1" d="M39.3,532.1l-4.2-2.7c-10.4-6.7-20.4-13.9-23.6-21.1c-7.1-15.8-2.4-31-0.1-36.9l1.8-4.4l4.5,1.6l16.9,5.9
		l19.1,6.8l0.6,2.8c0.4,2.2,0.8,4.4,1,6.6l0.2,1.7l-0.9,1.5c-2.9,4.6-4.2,9.9-5.6,15.6c-1.5,6.2-3.1,12.6-6.9,18.5L39.3,532.1z
		 M19.2,479.7c-1.6,6-2.8,15.2,1.4,24.6c1.8,4.2,9.6,9.9,15.3,13.7c1.4-3.4,2.3-7.1,3.3-11c1.4-5.7,2.8-11.5,6-17
		c-0.1-0.4-0.1-0.8-0.2-1.2l-13.6-4.8L19.2,479.7z"/>
</g>
<g>
	
		<rect x="47.8" y="404.4" transform="matrix(0.4787 -0.878 0.878 0.4787 -328.0757 257.4214)" class="st1" width="10" height="1.3"/>
</g>
<g>
	<path class="st6" d="M147.6,588.6v26.7H27.2c-2.6-2.7-4.1-6.3-4.3-10c-0.1-8,7.1-16,18.3-18.6L147.6,588.6z"/>
	<path class="st1" d="M153.5,621.2H24.7l-1.7-1.8c-3.5-3.7-5.7-8.6-5.9-13.8l0-0.2c-0.1-11.2,9.3-21.2,22.8-24.4l0.7-0.2l112.9,2
		V621.2z M30.1,609.4h111.7v-15.1l-99.9-1.8c-6.5,1.7-13.1,6.6-13.1,12.5C28.9,606.6,29.3,608.1,30.1,609.4z"/>
</g>
<g>
	<path class="st4" d="M147.6,512.5v76.1l-106.4-1.9C41.1,570.9,41,530,41,514.3c0.5-29.6,25-53.3,53.8-53
		C122.6,461.4,146.2,483.9,147.6,512.5z"/>
	<path class="st1" d="M152.6,593.7l-116.4-2.1l0-4.9c-0.1-16.3-0.2-57.1-0.2-72.4c0.5-32.1,26.6-58,58.2-58c0.2,0,0.4,0,0.6,0
		c14.8,0.1,28.9,5.8,39.7,16.3c10.9,10.5,17.3,24.6,18,39.6l0,0.2V593.7z M46.2,581.8l96.4,1.7v-70.9c-0.6-12.5-6-24.1-15-32.8
		c-9-8.7-20.7-13.5-32.8-13.5c-0.2,0-0.3,0-0.5,0c-26.2,0-47.8,21.5-48.3,48.1C46,528.3,46.1,563.3,46.2,581.8z"/>
</g>
<g>
	<path class="st6" d="M250.2,587.9v26.7H129.8c-2.6-2.7-4.1-6.3-4.3-10c-0.1-8,7.1-16,18.3-18.6L250.2,587.9z"/>
	<path class="st1" d="M256.1,620.5H127.3l-1.7-1.8c-3.5-3.7-5.7-8.6-5.9-13.8l0-0.2c-0.1-11.2,9.3-21.2,22.8-24.4l0.7-0.2l112.9,2
		V620.5z M132.7,608.7h111.7v-15.1l-99.9-1.8c-6.5,1.7-13.1,6.6-13.1,12.5C131.5,605.9,131.9,607.4,132.7,608.7z"/>
</g>
<g>
	<path class="st2" d="M277.9,473.3v31.1c-0.8,1.3-13.1,21.3-36.3,21.7c-17.1,0.3-28.3-10.3-30.6-12.5c-2.5-11.7-5-23.4-7.5-35.1
		c14.7,4,30,5.1,45.1,3C258.7,480.2,268.5,477.4,277.9,473.3z"/>
	<path class="st1" d="M240.9,531.1c-16.3,0-27.9-8.7-33.3-13.9l-1.1-1.1l-9.5-44.6l7.9,2.2c14.3,3.9,28.8,4.9,43.1,2.9
		c9.5-1.2,18.9-3.9,28-7.8l7-3.1v40.2l-0.7,1.2c-2.4,3.9-15.8,23.7-40.5,24.1C241.4,531.1,241.1,531.1,240.9,531.1z M215.6,511
		c4.8,4.3,13.8,10.3,26,10.1c17.7-0.3,28.4-13.9,31.4-18.2v-22.2c-7.8,2.8-15.7,4.8-23.7,5.8c-13,1.8-26.1,1.4-39.2-1.3L215.6,511z"
		/>
</g>
<g>
	<path class="st2" d="M236,240.1c7.8-6.3,36-10,36,5.4s1.3,26.9-13.1,32s-24.7,1.6-24.7,1.6L236,240.1z"/>
	<path class="st1" d="M243.4,285.3c-6.4,0-10.5-1.3-10.8-1.4l-3.6-1.2l2.1-45l1.7-1.4c7.2-5.8,25.4-9,35.5-4.1
		c5.6,2.7,8.6,7.4,8.6,13.4c0,1.2,0,2.4,0,3.5c0.1,14.1,0.2,27.3-16.4,33.2C253.9,284.6,248,285.3,243.4,285.3z M239.4,275
		c3.7,0.4,10.1,0.5,17.8-2.3c9.5-3.4,9.9-9.3,9.8-23.7c0-1.2,0-2.4,0-3.6c0-2.1-0.9-3.4-3-4.4c-6-2.9-17.7-1-23.2,1.8L239.4,275z"/>
</g>
<g>
	<polygon class="st5" points="86.4,344.7 125.7,347.2 125.7,396.2 125.7,437 124.3,514.3 41,514.3 56.1,333.5 69.3,343 	"/>
	<path class="st1" d="M129.2,519.3H35.6l16.3-195l19.3,13.9l15.7,1.6l43.9,2.8V437L129.2,519.3z M46.4,509.3h73l1.3-72.4l0-85
		l-34.8-2.2l-18.4-1.8l-7.1-5.1L46.4,509.3z"/>
</g>
<g>
	<path class="st5" d="M125.7,347.2v14.3v34.7l-1.4,118.1l86.7-0.7l-19.6-99.7l-5.6-34.3c0,0-0.8-8.6,2.1-19.5s2.9-10.9,2.9-10.9
		L125.7,347.2z"/>
	<path class="st1" d="M119.2,519.3l1.5-123.2l0-54.1l76.6,2.4l-4.5,17c-2.4,9.1-2,16.5-2,17.6l5.6,34l20.7,105.5L119.2,519.3z
		 M130.7,352.4v43.8l-1.3,113.1l75.6-0.6l-18.5-93.9l-5.6-34.6c0-0.4-0.8-9.6,2.2-21.2l1.3-4.8L130.7,352.4z"/>
</g>
<g>
	<polygon class="st7" points="69.3,343 109.1,371.2 143.6,371.2 190.8,349.2 192.3,346.3 	"/>
	<path class="st1" d="M144.7,376.2h-37.2L53,337.6l147.4,4l-5.9,11.5L144.7,376.2z M110.7,366.2h31.8l32.9-15.4l-89.8-2.4
		L110.7,366.2z"/>
</g>
<g>
	<path class="st2" d="M133.9,161.5c-12.5-1-25.8-1.5-39.8-1.6c-16,0-31,0.6-44.9,1.6C32,173.8,20.9,193.1,19,214.2l4.4,63.3
		l5.4,22.7L69.2,343c24.7,2.7,49.4,4.3,74.2,5l0.3,0.3h19.6l27.5,1c0,0,0.2-0.1,0.4-0.2c4.4,0.3,7.2-0.5,9.5-1.6
		c8-0.3,15.9-0.7,23.6-1.3l-5.2-9.8c1.6-2.1,3.1-4.4,4.8-6.7c1.3-1.2,2.4-2.5,3.3-3.8c0.2-0.3,0.5-0.7,0.7-1
		c1.6-1.9,2.7-4.4,3.6-7.3c3.9-11.1,2.6-23.4,2.6-29.4c0-0.1,0-0.2,0-0.2c0-0.7,0-1.4,0-2.1c0.1-8.3,0.4-23.8,0.2-34.8l0.2-8.4
		c0.7-11.6,2.8-25.9-0.1-33.2c0-0.1,0-0.2-0.1-0.3L224,195.3c-0.2-0.3-15.9,0.3-19.5-4.6c-0.3-0.4-0.6-2.5-0.7-5.4
		c-0.8-13-11.6-23.2-24.6-23.2h-9.8L133.9,161.5z"/>
	<path class="st1" d="M191.9,354.3l-28.7-1h-21.6l-0.4-0.4c-24.9-0.8-49.3-2.4-72.6-5l-1.8-0.2l-42.6-45.1l-5.8-24.4L14,214.1l0-0.4
		c2-22.6,13.8-43.1,32.3-56.3l1.1-0.8l1.4-0.1c14.9-1.1,30.1-1.6,45.3-1.6c14.7,0.1,27.8,0.6,40,1.6l35.3,0.6l9.7,0
		c15.6,0,28.6,12.3,29.6,27.9l0,0.1c0,1.3,0.1,2.3,0.2,3c1.1,0.7,4.4,1.8,13.4,2.1c2.1,0.1,4.2,0.2,5.6,2.2l10.2,13.7
		c0.4,0.5,0.8,1.2,1,2.1c2.5,6.9,1.6,17.3,0.8,27.3c-0.2,2.6-0.4,5-0.6,7.4l-0.2,8.2c0.2,9.1,0,21-0.1,29.7c0,1.9-0.1,3.6-0.1,5.2
		v2.2c0,1,0,2.2,0.1,3.5c0.2,6.9,0.6,17.4-2.9,27.4c-1.2,3.8-2.6,6.6-4.4,8.7c-0.1,0.1-0.2,0.3-0.3,0.4c-0.1,0.1-0.2,0.3-0.3,0.4
		c-1.1,1.6-2.3,3.1-3.7,4.4c-0.6,0.9-1.3,1.8-1.9,2.7c-0.3,0.4-0.5,0.8-0.8,1.1l7.3,13.8l-7.6,0.6c-6.7,0.5-14.2,0.9-22.8,1.3
		c-2.9,1.2-6,1.8-9.6,1.7L191.9,354.3z M145.8,343.3l17.7,0l26.2,1l0.5-0.2l1.4,0.1c3.6,0.2,5.6-0.4,7-1.1l0.9-0.4l1,0
		c5.7-0.2,10.9-0.5,15.8-0.8l-3.1-5.8l1.9-2.5c0.8-1.1,1.6-2.2,2.5-3.4c0.7-1.1,1.5-2.1,2.3-3.2l0.3-0.4l0.3-0.3
		c1-0.9,1.8-1.9,2.6-3c0.1-0.1,0.2-0.3,0.4-0.6c0.1-0.1,0.2-0.3,0.3-0.4l0.3-0.5c1-1.2,1.8-3,2.6-5.6l0.1-0.2
		c2.9-8.3,2.6-17.7,2.4-23.9c0-1.5-0.1-2.8-0.1-3.9v-2.3c0-1.6,0-3.3,0.1-5.2c0.1-8.7,0.3-20.6,0.1-29.5l0-0.1l0.2-8.7
		c0.2-2.5,0.4-5.1,0.6-7.7c0.7-8.6,1.5-18.4-0.2-23.1l-8.5-11.4c-8.7-0.4-17.2-1.5-20.9-6.5c-0.6-0.7-1.4-1.9-1.7-8.1
		c-0.7-10.3-9.3-18.4-19.6-18.4h-9.8l-35.9-0.6c-12-1-24.9-1.5-39.4-1.6c-14.4,0-28.9,0.5-43.1,1.5c-15.4,11.5-25.1,28.8-27,47.9
		l4.3,62.5l5,21l38.2,40.5c23.1,2.5,47.3,4.1,72,4.8l2,0.1L145.8,343.3z M220,198.2C220,198.3,220,198.3,220,198.2L220,198.2z"/>
</g>
<g>
	<path class="st5" d="M191.4,414l-0.2-1.4l0,0c-0.9-5.8-11.4-40.8-0.4-63.2c1.9-3.8,2.6-9.6,23.4-14.5c22.8-5.4,28.9,5,32.1,7.7
		c15.4,13.3,16.4,40.2,17.5,45.7c0.2,0.8,0.4,1.5,0.6,2.2l0.3,0.9l1.9,9.8c0.9,6.8,2.8,12.9,5.5,26.1c0.5,2.6,5.8,13.6,5.8,46
		c-3.7,0.6-11.3,4.2-17.2,5.9c-3.5,1-21.3,3-24.8,3.3c-4.5,0.4-17.1,0-32.4-4c-0.9-3.5-9.3-49.8-9.7-52.3c-1-5.8-2.6-13.6-2.6-13.6"
		/>
	<path class="st1" d="M232.6,487.6c-6.3,0-17.4-0.9-30.4-4.3l-2.8-0.7l-0.7-2.8c-1-4.1-9.7-52.4-9.8-52.8c-0.7-4.3-1.9-10-2.3-12.3
		l-0.1,0l-0.2-1.4c-0.1-0.6-0.4-2-0.8-3.6c-1.3-5.6-3.6-16-4.4-27.4c-1-14.3,0.8-26.1,5.2-35.2c0.2-0.3,0.3-0.6,0.4-1
		c2.5-5.7,6.7-11.6,26.3-16.2c22.7-5.4,31.6,3.8,35.5,7.8c0.4,0.4,0.8,0.8,1,1c14.6,12.6,17.5,35.4,18.7,45.2
		c0.2,1.4,0.3,2.6,0.4,3.2c0.2,0.7,0.3,1.2,0.5,1.8l0.4,1.4l1.9,10.1c0.5,3.7,1.3,7.2,2.4,12.2c0.8,3.6,1.8,8,3,13.6
		c0,0.2,0.2,0.8,0.4,1.3c1.5,4.8,5.5,17.4,5.5,45.7v4.3l-4.2,0.7c-1.5,0.2-4.8,1.5-7.7,2.6c-3,1.1-6.1,2.3-9,3.2
		c-4.3,1.2-23.5,3.3-25.8,3.5C235.4,487.6,234.1,487.6,232.6,487.6z M207.7,474.4c14,3.3,24.6,3.4,27.7,3.1
		c4.1-0.4,21.1-2.3,23.9-3.1c2.5-0.7,5.3-1.8,8.1-2.9c2-0.7,3.8-1.4,5.4-2c-0.3-24.1-3.7-34.7-5-38.9c-0.3-1-0.5-1.7-0.7-2.4
		c-1.1-5.4-2.1-9.6-2.9-13.3c-1.1-4.9-2-8.8-2.6-12.9l-1.8-9.3l-0.3-0.8c-0.2-0.8-0.4-1.5-0.6-2.4l-0.1-0.2c-0.2-1-0.4-2.3-0.6-4.1
		c-1.1-8.6-3.6-28.7-15.3-38.8c-0.5-0.5-1.1-1-1.7-1.6c-3.3-3.4-8.8-9.1-26-5c-16.5,3.9-18.2,7.8-19.5,10.6
		c-0.2,0.5-0.4,0.9-0.6,1.3c-8.7,17.7-2.4,45.4,0,55.9c0.4,1.8,0.7,3.2,0.9,4.2c0.2,1,1.7,8.1,2.6,13.6
		C199.1,427.7,205.6,463.6,207.7,474.4z"/>
</g>
<g>
	<ellipse class="st1" cx="53.3" cy="226.9" rx="9.5" ry="11.5"/>
</g>
<g>
	<ellipse class="st1" cx="143.7" cy="224" rx="5.1" ry="7.6"/>
	<path class="st1" d="M143.7,236.6c-5.7,0-10.1-5.5-10.1-12.6s4.4-12.6,10.1-12.6c5.7,0,10.1,5.5,10.1,12.6S149.4,236.6,143.7,236.6
		z M143.7,222.9c-0.1,0.3-0.1,0.7-0.1,1.1s0,0.8,0.1,1.1c0.1-0.3,0.1-0.7,0.1-1.1C143.8,223.6,143.8,223.2,143.7,222.9z"/>
</g>
<g>
	<polygon class="st6" points="115,377.7 103.1,458 124.3,492.7 145.3,457.2 135.2,377.7 	"/>
	<path class="st1" d="M124.4,504.1L97,459.2l13-87.4h30.4l11,86.6L124.4,504.1z M109.2,456.8l15,24.6l15-25.4l-9.2-72.4h-10
		L109.2,456.8z"/>
</g>
<g>
	<circle class="st6" cx="126.4" cy="364.7" r="17.2"/>
	<path class="st1" d="M126.4,386.9c-12.2,0-22.2-10-22.2-22.2c0-12.2,10-22.2,22.2-22.2c12.2,0,22.2,10,22.2,22.2
		C148.6,376.9,138.6,386.9,126.4,386.9z M126.4,352.5c-6.7,0-12.2,5.5-12.2,12.2c0,6.7,5.5,12.2,12.2,12.2s12.2-5.5,12.2-12.2
		C138.6,358,133.1,352.5,126.4,352.5z"/>
</g>
<g>
	<path class="st0" d="M64.9,469.1h27.5c0,0,2.6,28.2-13.2,26.8C58.2,497.3,64.9,469.1,64.9,469.1z"/>
	<path class="st1" d="M80.3,501.8c-0.4,0-0.8,0-1.2,0c-8.5,0.4-13.4-3.1-16-6.2c-8.1-9.5-4.4-26-4-27.9l1.1-4.5h37.5l0.5,5.3
		c0.2,2,1.6,20.2-6.9,28.8C88.4,500.3,84.6,501.8,80.3,501.8z M69.9,475c-0.4,4.3-0.3,10.1,2.2,13.1c0.8,1,2.5,2.3,6.7,2l0.5,0
		l0.5,0c1.8,0.2,2.6-0.4,3.3-1c2.5-2.5,3.5-8.6,3.7-14.1H69.9z"/>
</g>
<g>
	<polygon class="st1" points="146.2,467 135.4,462.6 150.3,425 132.6,404.1 156.4,383.1 149.8,372.1 159.8,366.1 171.4,385.3 
		149,405.3 163.9,422.8 	"/>
</g>
<g>
	<polygon class="st1" points="98.5,463.1 85.7,422.6 100.4,405.3 78,385.4 92,361.9 102,367.9 93,383 116.8,404.1 98.9,425.2 
		109.7,459.5 	"/>
</g>
<g>
	<path class="st8" d="M102.5,281.7c-7.5-3.6-3.8-12.2,7.1-8.9c10.9,3.2,21.2,11.5,36,11.5C136.9,292.4,125.7,293,102.5,281.7z"/>
	<path class="st1" d="M130.4,298.2c-10.1,0-20.8-4.3-31.3-9.4c-5.9-2.8-10.4-9.4-7.6-16.4c2.3-5.8,9.6-10.5,20.5-7.2
		c4.2,1.2,8.3,3.1,12.2,4.9c6.9,3.2,13.5,6.2,21.5,6.2h20.2L151,290.1C144.7,296,137.7,298.2,130.4,298.2z"/>
</g>
<g>
	<path class="st8" d="M98,281.7c7.5-3.6,3.8-12.2-7.1-8.9c-10.9,3.2-21.2,11.5-36,11.5C63.7,292.4,74.9,293,98,281.7z"/>
	<path class="st1" d="M69.9,298.2c-8,0-14.5-2.7-20.4-8.1l-15-13.8h20.4c8,0,14.6-3,21.5-6.2c3.9-1.8,8-3.7,12.2-4.9
		c10.8-3.3,18.2,1.5,20.4,7.3c2.7,7.1-1.8,13.6-7.6,16.4C88.7,295.1,78.4,298.2,69.9,298.2z"/>
</g>
<g>
	<rect x="67" y="296.7" class="st1" width="61.8" height="8"/>
</g>
<g>
	<circle class="st9" cx="54.9" cy="226.9" r="27.4"/>
	<path class="st1" d="M54.9,259.8C36.8,259.8,22,245,22,226.9S36.8,194,54.9,194s32.9,14.8,32.9,32.9S73,259.8,54.9,259.8z
		 M54.9,205c-12.1,0-21.9,9.8-21.9,21.9s9.8,21.9,21.9,21.9s21.9-9.8,21.9-21.9S67,205,54.9,205z"/>
</g>
<g>
	<path class="st1" d="M16.3,285.2c-3,0-5.8-1.3-7.9-3.9c-7.1-8.5-5.3-29.6,6.8-41.2l7.7,7.9c-6,5.8-7.8,14.5-7.6,20.2
		c0.2,3.4,1,5.2,1.4,5.9c0.1-0.1,0.2-0.1,0.4-0.2c2.2-2.8,8.2-17.7,12.4-30.2l10.4,3.5c-7.1,20.8-12.5,32.7-16.2,35.4
		C21.3,284.3,18.7,285.2,16.3,285.2z M16.9,273.9L16.9,273.9L16.9,273.9z"/>
</g>
<g>
	<path class="st1" d="M54.9,258.3c-17.3,0-31.4-14.1-31.4-31.4s14.1-31.4,31.4-31.4s31.4,14.1,31.4,31.4S72.2,258.3,54.9,258.3z
		 M54.9,203.5c-12.9,0-23.4,10.5-23.4,23.4s10.5,23.4,23.4,23.4s23.4-10.5,23.4-23.4S67.8,203.5,54.9,203.5z"/>
</g>
<g>
	<ellipse class="st1" cx="59.7" cy="224" rx="5.1" ry="7.6"/>
	<path class="st1" d="M59.7,236.6c-5.7,0-10.1-5.5-10.1-12.6s4.4-12.6,10.1-12.6c5.7,0,10.1,5.5,10.1,12.6S65.4,236.6,59.7,236.6z
		 M59.7,222.9c-0.1,0.3-0.1,0.7-0.1,1.1s0,0.8,0.1,1.1c0.1-0.3,0.1-0.7,0.1-1.1C59.8,223.6,59.8,223.2,59.7,222.9z"/>
</g>
</svg>
