<?xml version="1.0" encoding="utf-8"?>
<!-- Generator: Adobe Illustrator 25.2.1, SVG Export Plug-In . SVG Version: 6.00 Build 0)  -->
<svg version="1.1" id="Layer_1" xmlns="http://www.w3.org/2000/svg" xmlns:xlink="http://www.w3.org/1999/xlink" x="0px" y="0px"
	 viewBox="0 0 389.1 620.3" style="enable-background:new 0 0 389.1 620.3;" xml:space="preserve">
<style type="text/css">
	.st0{fill:#FF6244;}
	.st1{fill:#1D1D1B;}
	.st2{fill:#66FF1B;}
	.st3{fill:#754311;}
	.st4{fill:#FDECC9;}
	.st5{fill:#562200;}
	.st6{fill:#00C318;}
	.st7{fill:#FFFDCC;}
	.st8{fill:#FFD132;}
	.st9{fill:#FF791F;}
	.st10{fill:#C34A8C;}
</style>
<g>
	<path class="st0" d="M186.6,587.4c0-12-0.2-42.9-0.2-54.8c0.5-22.4,25-40.4,53.8-40.2c27.8,0.1,51.4,17.1,52.8,38.8v57.7"/>
	<path class="st1" d="M298,588.9h-10v-57.5c-1.3-18.7-22.7-33.9-47.8-34c-0.1,0-0.3,0-0.4,0c-25.8,0-47.9,16.1-48.4,35.3
		c0,5.9,0,16.6,0.1,27.2c0.1,10.7,0.1,21.5,0.1,27.5h-10c0-6-0.1-16.8-0.1-27.5c0-10.7-0.1-21.4-0.1-27.3l0-0.1
		c0.6-24.9,26.7-45.1,58.3-45.1c0.2,0,0.3,0,0.5,0c30.8,0.1,56.2,19.2,57.8,43.5l0,0.3V588.9z"/>
</g>
<g>
	<path class="st2" d="M191.6,77.9l18.9-1.2l22.1,0.6c0,0,8.6,0.3,39.3,11.8s26.7,42.5,37.9,69.8c11.2,27.3,5.1,111.7,5.1,111.7
		s0,39,0,48.1c0,122.9-25.7,32.2-44.8,20.8C250.9,328,70.9,209.6,70.5,169l8.1-45.6c3.5-13,12.7-22.6,23.9-24.6
		c2-0.3,5.6-3.5,9.5-7.1c7.5-6.9,17.1-10.9,27.3-11.4L191.6,77.9z"/>
	<path class="st1" d="M304.8,387.4c-7.6,0-13.9-10.3-21.7-23c-5.2-8.4-11.1-18-15.5-20.6c-9.2-5.5-59.3-38.1-107.3-74.7
		C96.7,220.8,65.7,188,65.5,169l0-0.5l8.3-46.5c4-15,14.7-25.8,27.7-28.2c1.5-0.7,5.6-4.4,7.1-5.9c8.3-7.6,19.1-12.2,30.4-12.7
		l52.3-2.4l19.1-1.2l22.3,0.6c1,0,10.3,0.7,40.9,12.1c24.3,9.1,29.2,29.5,33.9,49.2c1.9,7.8,3.8,15.8,6.9,23.4
		c11.4,27.7,5.9,108.3,5.5,113.8v47.9c0,54.2-4.7,66.1-12.7,68.4C306.4,387.3,305.6,387.4,304.8,387.4z M75.5,169.4
		c0.5,9,13.2,32.8,90.8,91.8c47.7,36.3,97.3,68.6,106.4,74c6.5,3.9,12.5,13.6,18.9,24c3.7,6.1,9.8,15.9,13,17.9
		c1.7-2.5,5.4-13.1,5.4-58.4l0-48.5c0.1-0.8,5.9-83.5-4.7-109.4c-3.4-8.3-5.4-16.7-7.4-24.9c-4.7-19.5-8.4-34.9-27.7-42.2
		c-28-10.5-37.2-11.4-37.8-11.5l-21.8-0.6l-18.8,1.2l-52.3,2.4c-9,0.4-17.6,4-24.1,10.1c-5.8,5.3-8.9,7.8-12.1,8.4
		c-9.1,1.6-16.8,9.8-19.8,20.8L75.5,169.4z M101.4,93.9C101.4,93.9,101.4,93.9,101.4,93.9C101.4,93.9,101.4,93.9,101.4,93.9z"/>
</g>
<g>
	<path class="st3" d="M150.2,476.4H94c0-8.5,0.1-17,0.2-25.7c0.2-13.5,0.8-30.7,0.9-41.3c0.4-12.1,1.6-17.3,2.2-29.1
		c0.5-9.2,0.2-25,0.8-34c0.3-4.3,0.6-8.6,0.9-12.8l13.1,9.5l21.3,2.1c18,0.4,17.5,2.4,30.1,2.4l21.1-1.1c8.5,0,6.3-1.1,17.9,1.1
		l3.6,0.8c11.3-4.8,25.7,6,29-5.9l7.3-5.6l10.9-0.9c11.3,33.9-30.5,42.9-19.3,76.8c2.2,6.6,6.5,44.1,8.4,54.6
		c1.8,10,0.7,1.7,3.9,11.3l-64.5-2.1"/>
</g>
<g>
	<ellipse class="st4" cx="174.3" cy="347.5" rx="65.4" ry="25"/>
	<path class="st1" d="M174.3,377.5c-34.1,0-70.4-10.5-70.4-30s36.3-30,70.4-30c34.1,0,70.4,10.5,70.4,30S208.4,377.5,174.3,377.5z
		 M174.3,327.5c-37.4,0-60.4,11.6-60.4,20s23,20,60.4,20s60.4-11.6,60.4-20S211.7,327.5,174.3,327.5z"/>
</g>
<g>
	<path class="st5" d="M293,499.4v57.7l-104.3-1.5c0-12-0.2-42.9-0.2-54.8c0.5-22.4,24.5-40.4,52.8-40.2
		C268.5,460.6,291.6,477.7,293,499.4z"/>
	<path class="st1" d="M297.3,561.5l-112.9-1.6v-4.2c0-6-0.1-16.8-0.1-27.5c0-10.7-0.1-21.4-0.1-27.3c0.5-24.7,25.9-44.5,56.6-44.5
		c0.2,0,0.3,0,0.5,0c29.8,0,54.4,18.8,56,42.8l0,0.3V561.5z M193,551.4l95.7,1.4v-53.2c-1.3-19.1-22.5-34.6-47.4-34.6
		c-0.1,0-0.3,0-0.4,0c-25.7,0-47.6,16.4-48.1,36c0,5.8,0.1,16.5,0.1,27.2C193,536.6,193,545.2,193,551.4z"/>
</g>
<g>
	<path class="st6" d="M94.8,415.3c-22.3,1.4-24.7-10.8-24.7-10.8c0.4-1.2,0.7-2.4,1-3.6l1.5-4.6c1.1-4.2,2-7.2,4.1-14.3
		c2-4.8,5.5-29.4,19.3-39.6h0.1l-1,53.8l-0.1,8.5L94.8,415.3"/>
	<path class="st1" d="M91.3,420.4c-22.9,0-26-14.3-26.2-14.9l-0.3-1.3l0.4-1.3c0.3-1,0.6-2.1,0.9-3.2l0.1-0.4l1.5-4.5
		c1-3.9,1.9-6.9,3.6-12.7l0.6-2.1c0.3-0.7,0.8-2.6,1.3-4.5c2.5-9.8,7.3-28,19.7-37.2l1.3-1h6.8l-1.1,58.9l-0.1,8.5L99.7,420
		l-4.6,0.3C93.8,420.4,92.5,420.4,91.3,420.4z M75.4,404.3c1,1.8,4.4,5.7,14.5,6.1l0.1-5.8l0.1-8.5l0.7-39.8
		c-4.1,7.4-6.3,16.1-7.8,21.7c-0.6,2.5-1.1,4.3-1.6,5.6L81,385c-1.8,6-2.6,8.8-3.6,12.6l-0.1,0.3l-1.4,4.4
		C75.7,403,75.6,403.6,75.4,404.3z"/>
</g>
<g>
	<path class="st0" d="M93.1,491.1c-6.7,10.5-5.8,23.6-12.5,34.1c-6.2-4-18.7-12.1-21.7-18.9c-7-15.6,10.2-99.3,11.2-101.8l24.7,10.8
		L92.2,485C92.6,487,92.9,489,93.1,491.1z"/>
	<path class="st1" d="M82.1,532.1l-4.2-2.7c-10.4-6.7-20.4-13.9-23.6-21.1c-7.9-17.6,9.8-102.3,11.1-105.7l1.9-4.8l32.5,14.2
		l-2.7,72.5c0.4,2,0.7,4,0.9,6l0.2,1.7l-0.9,1.5c-2.9,4.6-4.2,9.9-5.6,15.6c-1.5,6.2-3.1,12.6-6.9,18.5L82.1,532.1z M73.6,411.5
		c-4.2,19.7-15.2,81.5-10.1,92.8c1.8,4.2,9.6,9.9,15.3,13.7c1.4-3.4,2.3-7.1,3.3-11c1.4-5.7,2.8-11.5,6-17c-0.2-1.3-0.4-2.6-0.6-4
		l-0.1-0.6l2.5-66.9L73.6,411.5z"/>
</g>
<g>
	
		<rect x="90.5" y="404.4" transform="matrix(0.4786 -0.878 0.878 0.4786 -305.7864 295.0728)" class="st1" width="10" height="1.3"/>
</g>
<g>
	<path class="st0" d="M190.4,588.6v26.7H70c-2.6-2.7-4.1-6.3-4.3-10c-0.1-8,7.1-16,18.3-18.6v-1.2c-0.1-11.6-0.2-41.8-0.2-53.3
		c0.5-21.8,25-39.3,53.8-39c27.8,0.1,51.4,16.6,52.8,37.7V587"/>
	<path class="st1" d="M195.4,620.3H67.9l-1.5-1.5c-3.4-3.5-5.4-8.2-5.7-13.2l0-0.2c-0.1-9.7,7.2-18.5,18.3-22.4
		c-0.1-13.1-0.2-40.4-0.2-50.8l0-0.1c0.6-24.3,26.5-43.9,58.1-43.9c0.3,0,0.5,0,0.8,0c30.8,0.1,56.2,18.7,57.7,42.4l0,0.3V587h-10
		v-55.9c-1.3-18.1-22.7-32.8-47.8-32.9c-0.2,0-0.4,0-0.7,0c-25.7,0-47.6,15.5-48.1,34.1c0,11.1,0.1,41.5,0.2,53.2v5.2l-3.9,0.9
		c-9.5,2.2-14.4,8.5-14.4,13.6c0.1,1.9,0.7,3.6,1.7,5.2h113v-21.7h10V620.3z"/>
</g>
<g>
	<path class="st5" d="M190.4,499v56L84,553.6c-0.1-11.6-0.2-41.8-0.2-53.3c0.5-21.8,25-39.3,53.8-39
		C165.4,461.3,189,477.9,190.4,499z"/>
	<path class="st1" d="M194.7,559.4l-115-1.5l0-4.2c-0.1-11.7-0.2-42.3-0.2-53.3c0.6-24.1,26.2-43.3,57.4-43.3c0.3,0,0.5,0,0.8,0
		c30.4,0,55.5,18.3,57.1,41.7l0,0.3V559.4z M88.3,549.3l97.8,1.3v-51.5c-1.3-18.5-23-33.5-48.5-33.5c-26.4-0.2-49.1,15.7-49.5,34.8
		C88.1,510.2,88.2,535.7,88.3,549.3z"/>
</g>
<g>
	<path class="st0" d="M293,587.9v27.4H172.6c-2.6-2.8-4.1-6.5-4.3-10.2c-0.1-8.2,7.1-16.4,18.3-19.1l3.8-0.1h2.4"/>
	<path class="st1" d="M298.1,620.4H170.4l-1.5-1.6c-3.4-3.6-5.4-8.4-5.6-13.4l0-0.2c-0.1-11,9-20.9,22.2-24.1l0.5-0.1l4.5-0.1h2.4
		V591h-2.3l-3.2,0.1c-9.2,2.4-13.9,8.7-13.9,13.9c0.1,1.9,0.7,3.7,1.7,5.3h112.9v-22.3h10.1V620.4z"/>
</g>
<g>
	<path class="st0" d="M309.4,402.2l11.3,102.1c-0.8,1.3-13.1,21.3-36.3,21.7c-17.1,0.3-28.3-10.3-30.6-12.5
		c-2.5-11.7-17.3-89.3-19.8-101c14.7,4,16.3,1.8,31.4-0.3C275.5,410.9,300,406.3,309.4,402.2z"/>
	<path class="st1" d="M283.7,531c-16.3,0-27.9-8.7-33.3-13.9l-1.1-1.1l-0.3-1.5c-1.3-5.9-5.7-28.6-9.9-50.6
		c-4.2-21.9-8.6-44.6-9.9-50.4l-1.7-8l7.9,2.2c10.3,2.8,12.9,2.3,20.8,1c2.4-0.4,5.1-0.9,8.6-1.4c10-1.3,34-5.8,42.7-9.6l6.2-2.7
		l12.2,110.6l-0.9,1.5c-2.4,3.9-15.8,23.7-40.5,24.1C284.2,531,283.9,531,283.7,531z M258.4,510.9c4.8,4.3,13.8,10.3,25.9,10.1
		c17.4-0.3,28-13.4,31.2-17.9l-10.4-94c-12.3,3.8-31.6,7.2-39.1,8.1c-3.3,0.5-5.9,0.9-8.2,1.3c-6.4,1.1-10.4,1.8-17.4,0.6
		c2,10,5.2,26.7,8.4,42.9C252.7,482.4,256.8,503.3,258.4,510.9z"/>
</g>
<g>
	<path class="st0" d="M278.8,240.1c7.8-6.3,36-10,36,5.4s1.3,26.9-13.1,32s-24.7,1.6-24.7,1.6L278.8,240.1z"/>
	<path class="st1" d="M286.2,285.3c-6.4,0-10.5-1.3-10.8-1.4l-3.6-1.2l2.1-45l1.7-1.4c7.2-5.8,25.4-9,35.5-4.1
		c5.6,2.7,8.6,7.4,8.6,13.4c0,1.2,0,2.4,0,3.5c0.1,14.1,0.2,27.3-16.4,33.2C296.7,284.6,290.8,285.3,286.2,285.3z M282.2,275
		c3.7,0.4,10.1,0.5,17.8-2.3c9.5-3.4,9.9-9.3,9.8-23.7c0-1.2,0-2.4,0-3.6c0-2.1-0.9-3.4-3-4.4c-6-2.9-17.7-1-23.2,1.8L282.2,275z"/>
</g>
<g>
	<polygon class="st6" points="129.2,344.7 168.5,347.2 168.5,396.2 168.5,437 167.1,514.3 83.8,514.3 98.9,333.5 112.1,343 	"/>
	<path class="st1" d="M172,519.3H78.4l16.3-195l19.3,13.9l15.7,1.6l43.9,2.8V437L172,519.3z M89.2,509.3h73l1.3-72.4l0-85l-34.8-2.2
		l-18.4-1.8l-7.1-5.1L89.2,509.3z"/>
</g>
<g>
	<path class="st6" d="M168.5,347.2v14.3v34.7l-1.4,118.1l86.7-0.7l-19.6-99.7l-5.6-34.3c0,0-0.8-8.6,2.1-19.5s2.9-10.9,2.9-10.9
		L168.5,347.2z"/>
	<path class="st1" d="M162,519.3l1.5-123.2l0-54.1l76.6,2.4l-4.5,17c-2.4,9.1-2,16.5-2,17.6l5.6,34l20.7,105.5L162,519.3z
		 M173.5,352.4v43.8l-1.3,113.1l75.6-0.6l-18.5-93.9l-5.6-34.6c0-0.4-0.8-9.6,2.2-21.2l1.3-4.8L173.5,352.4z"/>
</g>
<g>
	<polygon class="st0" points="112.1,343 151.9,371.2 186.4,371.2 233.6,349.2 235.1,346.3 	"/>
	<path class="st1" d="M187.5,376.2h-37.2l-54.5-38.6l147.4,4l-5.9,11.5L187.5,376.2z M153.5,366.2h31.8l32.9-15.4l-89.8-2.4
		L153.5,366.2z"/>
</g>
<g>
	<path class="st0" d="M176.7,161.5c-12.5-1-25.8-1.5-39.8-1.6c-16,0-31,0.6-44.9,1.6c-17.2,12.3-28.3,31.6-30.2,52.7l4.4,63.3
		l5.4,22.7L112,343c24.7,2.7,49.4,4.3,74.2,5l0.3,0.3h19.6l27.5,1c0,0,0.2-0.1,0.4-0.2c4.4,0.3,7.2-0.5,9.5-1.6
		c8-0.3,15.9-0.7,23.6-1.3l-5.2-9.8c1.6-2.1,3.1-4.4,4.8-6.7c1.3-1.2,2.4-2.5,3.3-3.8c0.2-0.3,0.5-0.7,0.7-1
		c1.6-1.9,2.7-4.4,3.6-7.3c3.9-11.1,2.6-23.4,2.6-29.4c0-0.1,0-0.2,0-0.2c0-0.7,0-1.4,0-2.1c0.1-8.3,0.4-23.8,0.2-34.8l0.2-8.4
		c0.7-11.6,2.8-25.9-0.1-33.2c0-0.1,0-0.2-0.1-0.3l-10.4-13.8c-0.2-0.3-15.9,0.3-19.5-4.6c-0.3-0.4-0.6-2.5-0.7-5.4
		c-0.8-13-11.6-23.2-24.6-23.2h-9.8L176.7,161.5z"/>
	<path class="st1" d="M234.7,354.3l-28.7-1h-21.6l-0.4-0.4c-24.9-0.8-49.3-2.4-72.6-5l-1.8-0.2L67,302.7l-5.8-24.4l-4.5-64.1l0-0.4
		c2-22.6,13.8-43.1,32.3-56.3l1.1-0.8l1.4-0.1c14.9-1.1,30.1-1.6,45.3-1.6c14.7,0.1,27.8,0.6,40,1.6l35.2,0.7l9.7,0
		c15.6,0,28.6,12.3,29.6,27.9l0,0.1c0,1.3,0.1,2.3,0.2,2.9c1.1,0.7,4.4,1.8,13.4,2.1c2.1,0.1,4.1,0.2,5.6,2.2l10.3,13.6
		c0.4,0.5,0.8,1.2,1.1,2.1c2.5,6.9,1.6,17.3,0.8,27.3c-0.2,2.6-0.4,5-0.6,7.4l-0.2,8.2c0.2,9,0,20.9-0.1,29.6c0,1.9-0.1,3.7-0.1,5.2
		v2.2c0,1,0,2.2,0.1,3.5c0.2,6.9,0.6,17.4-2.9,27.4c-1.2,3.8-2.6,6.5-4.4,8.7c-0.1,0.1-0.2,0.3-0.3,0.4c-0.1,0.1-0.2,0.3-0.3,0.4
		c-1.1,1.6-2.3,3.1-3.7,4.4c-0.7,0.9-1.3,1.8-1.9,2.7c-0.3,0.4-0.5,0.8-0.8,1.1l7.3,13.8l-7.6,0.6c-6.7,0.5-14.2,0.9-22.8,1.3
		c-2.9,1.2-6,1.8-9.6,1.7L234.7,354.3z M188.6,343.3l17.7,0l26.2,1l0.5-0.2l1.4,0.1c3.6,0.2,5.6-0.4,7-1.1l0.9-0.4l1,0
		c5.7-0.2,10.9-0.5,15.8-0.8l-3.1-5.8l1.9-2.5c0.8-1.1,1.6-2.2,2.5-3.4c0.7-1.1,1.5-2.1,2.3-3.2l0.3-0.4l0.3-0.3
		c1-0.9,1.8-1.9,2.6-3c0.1-0.1,0.2-0.3,0.4-0.6c0.1-0.1,0.2-0.3,0.3-0.4l0.3-0.5c1-1.2,1.8-3,2.6-5.6l0.1-0.2
		c2.9-8.3,2.6-17.7,2.4-23.9c0-1.5-0.1-2.8-0.1-3.9v-2.3c0-1.6,0-3.4,0.1-5.3c0.1-8.7,0.3-20.5,0.1-29.4l0-0.1l0.2-8.7
		c0.2-2.5,0.4-5.1,0.6-7.7c0.7-8.6,1.5-18.3-0.2-23.1l-8.6-11.4c-8.7-0.4-17.2-1.5-20.9-6.5c-0.6-0.7-1.4-1.9-1.7-8.1
		c-0.7-10.3-9.3-18.4-19.6-18.4h-9.8l-35.8-0.7c-12-1-24.9-1.5-39.4-1.6c-14.4,0-28.9,0.5-43.1,1.5c-15.4,11.5-25.1,28.8-27,47.9
		l4.3,62.5l5,21l38.2,40.5c23.1,2.5,47.3,4.1,72,4.8l2,0.1L188.6,343.3z M262.7,198.4C262.7,198.4,262.7,198.4,262.7,198.4
		L262.7,198.4z"/>
</g>
<g>
	<path class="st7" d="M70.5,199.4h27.6c5.9,0,11.7,1.2,17,3.6c4.1,1.8,9,4.2,12.8,6.5c8.2,4.9,17.7,6.3,28.8,0
		c11.2-6.3,35.2-12.2,47.2-10.1c10.3,1.8,23.2,8.4,24.8,20.8c0.3,2,44.8,5.9,44.4,8.2c-0.3,1.6-45.2,1.5-45.4,3.1
		c-2.3,14.7-3,26.7-17.4,25.9c-15.8-0.9-39.9,5.1-47.6-8.7c-7.7-13.7-16.2-18.5-21.4-17.2c-15.3,4-12.6,14-20.5,19.8
		c-9.9,7.2-30.5,4.5-43.5,3.2S64.2,207.1,70.5,199.4z"/>
</g>
<g>
	<path class="st6" d="M234.2,414l-0.2-1.4l0,0c-0.9-5.8-11.4-40.8-0.4-63.2c1.9-3.8,2.6-9.6,23.4-14.5c22.8-5.4,28.9,5,32.1,7.7
		c15.4,13.3,16.4,40.2,17.5,45.7c0.2,0.8,0.4,1.5,0.6,2.2l0.3,0.9l1.9,9.8C309.4,401.2,287.7,413.7,234.2,414z"/>
	<path class="st1" d="M229.9,419l-0.8-5.7c-0.1-0.6-0.4-2-0.8-3.6c-2.6-11.4-9.4-41.7,0.8-62.5c0.2-0.3,0.3-0.6,0.4-1
		c2.5-5.7,6.7-11.6,26.3-16.2c22.7-5.4,31.6,3.8,35.5,7.8c0.4,0.4,0.8,0.8,1,1c14.6,12.6,17.5,35.4,18.7,45.2
		c0.2,1.4,0.3,2.6,0.4,3.2c0.2,0.7,0.3,1.2,0.5,1.8l0.4,1.4l2.6,13.3l-3.1,1.8c-0.9,0.5-23.5,13.2-77.7,13.5L229.9,419z
		 M268.9,338.4c-3,0-6.5,0.4-10.7,1.4c-16.5,3.9-18.2,7.8-19.5,10.6c-0.2,0.5-0.4,0.9-0.6,1.3c-8.7,17.7-2.4,45.4,0,55.9
		c0.1,0.5,0.2,1,0.3,1.4c37.5-0.7,58-7.6,65.4-10.6l-1.1-5.7l-0.3-0.8c-0.2-0.8-0.4-1.5-0.6-2.4l-0.1-0.2c-0.2-1-0.4-2.3-0.6-4.1
		c-1.1-8.6-3.6-28.7-15.3-38.8c-0.5-0.5-1.1-1-1.7-1.6C281.7,342.2,277.9,338.4,268.9,338.4z"/>
</g>
<g>
	<ellipse class="st1" cx="183.5" cy="229.4" rx="5.1" ry="7.6"/>
	<path class="st1" d="M183.5,242c-5.7,0-10.1-5.5-10.1-12.6s4.4-12.6,10.1-12.6s10.1,5.5,10.1,12.6S189.2,242,183.5,242z
		 M183.5,228.3c-0.1,0.3-0.1,0.7-0.1,1.1s0,0.8,0.1,1.1c0.1-0.3,0.1-0.7,0.1-1.1S183.6,228.6,183.5,228.3z"/>
</g>
<g>
	<ellipse class="st1" cx="103.6" cy="229.4" rx="5.1" ry="7.6"/>
	<path class="st1" d="M103.6,242c-5.7,0-10.1-5.5-10.1-12.6s4.4-12.6,10.1-12.6s10.1,5.5,10.1,12.6S109.3,242,103.6,242z
		 M103.6,228.3c-0.1,0.3-0.1,0.7-0.1,1.1s0,0.8,0.1,1.1c0.1-0.3,0.1-0.7,0.1-1.1S103.7,228.6,103.6,228.3z"/>
</g>
<g>
	<path class="st2" d="M251,138.7c0,3.5,0,10.1-2,21.2c-2,11.1-10,9-13.9,18.7c-4,9.7,1.3,26.2,0,26.2c-0.9,0-7.5,0.9-14.9,0
		c-3.2-0.4-6.6-9-9.7-10.3c-3.7-1.5-7.5,6-11.5,6s-8.2-13.6-12.5-13.1c-3.3,0.4-6.8,14.8-10.2,14.8c-3.3,0-6.1-45.4-9.3-45.3
		c-6.4,0.1-13.2,45.6-19.2,45.5c-2.1,0-4.2-11-6.3-11.1c-4.9-0.2-11.4,9.4-19.5,8.4c-4.6-0.6-9.7-15.7-15.4-15.9
		c-4-0.2-8.2,14.4-12.7,14.6c-2.1,0.1,0.4-27.5-1.8-27.3c-3.1,0.3-10.2,28.2-12.5,28.2c-16.3,0.1-13.1-6-13.2-10.8
		c0-5.4,6.4-33.3,6.4-33.3s3.8-13.7,3.5-19.8"/>
	<path class="st1" d="M227.2,210.2c-2.3,0-4.9-0.1-7.6-0.4c-4-0.5-6.4-4-8.7-7.4c-0.5-0.7-1.2-1.7-1.7-2.4c-0.5,0.4-1,0.8-1.3,1.2
		c-2.2,2-5,4.4-8.8,4.4c-4.7,0-7.5-4.4-10.2-8.7c-0.4-0.7-1-1.6-1.6-2.4c-0.4,0.9-0.9,1.8-1.2,2.5c-2.5,5.3-4.9,10.4-9.8,10.4
		c-5.3,0-6.4-6-7.3-11.3c-0.8-4.4-1.6-10.3-2.3-16c-0.4-2.9-0.9-6.4-1.3-9.7c-1.2,3.8-2.4,8.1-3.4,11.3
		c-5.1,17.9-7.7,25.8-14.1,25.8c0,0-0.1,0-0.1,0c-4.4,0-6.1-4.5-7.8-8.8c-0.1-0.4-0.3-0.8-0.5-1.3c-0.7,0.5-1.5,1.1-2.2,1.5
		c-3.9,2.8-9.3,6.6-15.9,5.8c-4.4-0.6-7.3-4.9-10.3-9.5c-1-1.6-2.7-4.1-4-5.5c-0.7,1.1-1.6,2.6-2.2,3.6c-2.8,4.9-5.7,9.9-10.7,10.1
		c-1.4,0.1-2.8-0.5-3.9-1.5c-1.6-1.5-2.1-3.5-2.2-8.5c-2.9,8.1-4.5,10.9-8.4,10.9c-8,0.1-12.9-1.3-15.7-4.4c-3-3.2-2.7-7.1-2.5-9.7
		c0-0.6,0.1-1.2,0.1-1.7l0-0.1c0-5.7,5.4-29.7,6.5-34.4l0.1-0.2c1.4-5,3.5-14.4,3.3-18.2l10-0.5c0.3,6.6-3.1,19.3-3.6,21.3
		c-2.6,11.3-6.2,28.6-6.2,32c0,0.9-0.1,1.8-0.1,2.5c-0.1,0.7-0.1,1.7-0.1,2.1c0.3,0.2,1.7,0.9,5.7,1.1c1-2.3,2.4-6.3,3.4-9.2
		c4.9-14,6.7-18.5,11.3-18.9c1.5-0.1,3,0.4,4.1,1.4c2.4,2.2,2.5,5.5,2.3,17.5c0,0.1,0,0.1,0,0.2c2.3-3.6,4.9-6.6,8.8-6.4
		c5.6,0.2,9.1,5.6,12.6,10.9c1.1,1.7,2.8,4.2,3.7,5.1c0,0,0,0,0,0c2.6,0,5.5-2.1,8.3-4.1c3.2-2.2,6.4-4.6,10.2-4.4
		c3.4,0.2,5.1,2.8,6.5,6c1.4-4.1,2.9-9.4,4.1-13.5c4.9-17.3,7.7-26.8,14.6-26.9c5.3-0.2,6.4,5.8,7.3,11.1c0.8,4.3,1.5,10.1,2.3,15.7
		c0.5,3.5,1,7.8,1.6,11.6c2-4.1,4.1-7.3,7.7-7.8c5.4-0.6,8.6,4.5,11.4,9c0.6,1,1.5,2.4,2.3,3.4c0.5-0.4,1.1-0.9,1.5-1.3
		c2.4-2.1,6.4-5.7,11.3-3.7c2.8,1.2,4.7,3.9,6.7,6.8c0.7,1,1.8,2.6,2.5,3.3c3,0.3,5.9,0.3,8.2,0.2c-1-6.3-2.3-16,0.8-23.5
		c2.3-5.7,5.8-8.3,8.6-10.4c2.8-2.1,4.3-3.2,5-7.3c1.9-10.7,1.9-16.9,1.9-20.3h10c0,3.7,0,10.5-2.1,22.1c-1.4,8-5.6,11.1-8.9,13.5
		c-2.3,1.8-4,3-5.3,6.1c-2.2,5.3-0.7,14.3,0,19.1c0.7,4.3,1,6.4-0.7,8.4c-1,1.1-2.3,1.8-3.8,1.8c-0.2,0-0.4,0-0.7,0.1
		C233,210,230.4,210.2,227.2,210.2z M221.8,200.2L221.8,200.2L221.8,200.2z M235.1,199.8c-0.1,0-0.2,0-0.3,0
		C234.9,199.8,235,199.8,235.1,199.8z M141.5,196.3L141.5,196.3L141.5,196.3z M198.6,195.6L198.6,195.6L198.6,195.6z M123.4,195
		L123.4,195L123.4,195z M79.6,194.3C79.6,194.3,79.5,194.3,79.6,194.3C79.5,194.3,79.6,194.3,79.6,194.3z M106,188.7L106,188.7
		C106,188.7,106,188.7,106,188.7z"/>
</g>
<g>
	<path class="st1" d="M103.5,618.9H83.1v-8.6h11.8v-5.7l-7.4-13.8c-0.7,0-1.6,0-3,0.2l-0.9-8.6c5-0.5,7.4,0.1,8.6,0.6l1.2,0.6
		l10.1,18.9V618.9z"/>
</g>
<g>
	<polygon class="st1" points="164.8,392.9 164.4,392.9 105.2,388.7 97.9,343.1 106.5,341.7 112.6,380.5 164.6,384.3 221.9,378.4 
		224.3,355.1 232.9,355.9 229.7,386.2 	"/>
</g>
<g>
	<path class="st8" d="M115.5,401.1C115.4,401.1,115.4,401.2,115.5,401.1c-3.4-2.1-7.9-1.5-10.6,1.5c-2.7,3.1-2.7,7.6-0.1,10.6
		c0,0,0,0-0.1,0.1c-3,3.4-2.6,8.5,0.7,11.5c3.4,3,8.5,2.6,11.5-0.7c0,0,0-0.1,0.1-0.1c0.3,0.3,0.5,0.6,0.8,0.9
		c3.4,3,8.5,2.6,11.5-0.7c3-3.4,2.6-8.5-0.7-11.5c-0.3-0.3-0.6-0.5-1-0.7c0,0,0,0,0.1-0.1c3-3.4,2.6-8.5-0.7-11.5
		C123.6,397.4,118.4,397.8,115.5,401.1z"/>
	<path class="st1" d="M123.1,429.4c-2.2,0-4.4-0.7-6.2-2c-4,2.7-9.4,2.6-13.2-0.7c-3.9-3.5-4.6-9.2-2-13.5
		c-2.2-3.8-1.8-8.7,1.3-12.2c3.1-3.4,7.9-4.5,12-2.9c1.7-1.3,3.7-2.1,5.9-2.2c2.9-0.2,5.6,0.8,7.7,2.6c3.7,3.4,4.6,8.8,2.3,13
		c3.7,4,3.8,10.2,0.2,14.3C129,428.2,126.1,429.4,123.1,429.4z M119.5,423.1c2.3,2,5.8,1.8,7.9-0.6c2-2.3,1.8-5.8-0.5-8l-0.1-0.1
		c-0.1-0.1-0.1-0.1-0.4-0.2l-3.1-1.5l2.5-2.5c2-2.3,1.8-5.8-0.6-7.9c-1.1-1-2.6-1.5-4.1-1.4c-1.3,0.1-2.4,0.5-3.3,1.3l-0.6,0.6
		l-0.7,0.8h-0.1l-0.6,0.6l-2.7-1.5c-2.2-0.8-4.8-0.2-6.4,1.5c-1.8,2.1-1.9,5.2-0.1,7.3l1.5,1.8l-1.7,1.7c-2,2.3-1.8,5.8,0.6,7.9
		c2.3,2,5.6,1.8,7.8-0.3c0.5-0.7,1.2-1.1,2.1-1.1h1l0.7,0.7c0.2,0.2,0.4,0.4,0.6,0.6C119.4,423,119.4,423,119.5,423.1z"/>
</g>
<g>
	<path class="st8" d="M134.2,446.2C134.2,446.2,134.2,446.3,134.2,446.2c-3.8,1.2-6.3,5-5.7,9s4.1,6.9,8,6.9v0.1
		c0.6,4.4,4.8,7.5,9.2,6.9c4.4-0.6,7.5-4.8,6.9-9.2v-0.1c0.4,0,0.8,0,1.2-0.1c4.4-0.6,7.5-4.8,6.9-9.2c-0.6-4.4-4.8-7.5-9.2-6.9
		c-0.4,0.1-0.8,0.2-1.2,0.3v-0.1c-0.6-4.4-4.8-7.5-9.2-6.9C136.6,437.6,133.5,441.8,134.2,446.2z"/>
	<path class="st1" d="M144.6,471.6c-4.6,0-8.7-3-10.1-7.3c-4.3-0.9-7.8-4.4-8.4-8.8c-0.7-4.5,1.7-8.9,5.6-11c0.1-2.1,0.8-4.1,2-5.8
		c1.7-2.3,4.2-3.9,7.1-4.3c2.8-0.4,5.6,0.3,7.9,2c1.6,1.2,2.8,2.8,3.5,4.6c2.5-0.1,4.9,0.6,6.9,2.1c2.3,1.7,3.8,4.2,4.2,7
		c0.4,2.8-0.3,5.6-2,7.9c-1.5,2-3.6,3.4-6,4c-0.4,4.8-4.1,8.9-9.1,9.6C145.6,471.6,145.1,471.6,144.6,471.6z M139,462
		c0.5,2.9,3.4,5,6.4,4.6c3-0.4,5.2-3.3,4.8-6.4l0-0.4v-2.5h2.5c0.2,0,0.5,0,0.6,0l0.3-0.1c1.5-0.2,2.8-1,3.7-2.2
		c0.9-1.2,1.3-2.7,1.1-4.2c-0.2-1.5-1-2.8-2.2-3.7c-1.2-0.9-2.6-1.3-4.1-1.1l-4.2,1v-3.1c-0.2-1.4-1-2.6-2.2-3.5
		c-1.2-0.9-2.7-1.3-4.2-1.1c-1.5,0.2-2.8,1.1-3.8,2.3c-0.5,0.7-0.8,1.4-1,2.2v2.3h-2.5l0.7,2.3c-2.7,0.8-4.4,3.5-4,6.2
		c0.4,2.7,2.8,4.8,5.5,4.8h2.5V462z"/>
</g>
<g>
	<path class="st8" d="M122.4,494.3C122.4,494.3,122.3,494.3,122.4,494.3c3.2-2.4,4.3-6.7,2.5-10.4c-1.9-3.6-6.1-5.3-9.8-4v-0.1
		c-2-4-6.9-5.6-10.9-3.6s-5.6,6.9-3.6,10.9v0.1c-0.4,0.1-0.8,0.3-1.1,0.5c-4,2-5.6,6.9-3.6,10.9s6.9,5.6,10.9,3.6
		c0.4-0.2,0.7-0.4,1-0.6v0.1c2,4,6.9,5.6,10.9,3.6C122.8,503.2,124.4,498.3,122.4,494.3z"/>
	<path class="st1" d="M115.1,508.7c-1.1,0-2.2-0.2-3.3-0.5c-1.9-0.6-3.6-1.8-4.8-3.2c-2.3,0.9-4.8,0.9-7.1,0.1
		c-2.7-0.9-4.9-2.8-6.2-5.3c-1.3-2.5-1.5-5.4-0.6-8.1c0.8-2.4,2.4-4.4,4.5-5.7c-0.5-1.9-0.4-3.9,0.2-5.8c0.9-2.7,2.8-4.9,5.3-6.2
		c4.7-2.3,10.2-0.9,13.2,3.1c4.3-0.5,8.7,1.7,10.8,5.7c2,4.2,1.2,9-1.8,12.3c1.4,4.8-0.8,10.1-5.5,12.5
		C118.4,508.3,116.7,508.7,115.1,508.7z M110.3,501.1c1.5,2.4,4.7,3.3,7.3,2c2.9-1.5,4-4.8,2.6-7.6l2.2-1.1v-0.1l-1.5-1.9
		c2.3-1.7,3-4.7,1.8-7.3c-1.3-2.4-4.2-3.6-6.7-2.7l-3.3,1.2v-3c-0.7-1.1-1.7-1.9-3-2.3c-1.4-0.5-3-0.4-4.3,0.3
		c-1.3,0.7-2.3,1.8-2.8,3.2c-0.5,1.4-0.4,3,0.3,4.3l0.3,0.5v2.6l-1.9,0.5c-0.1,0-0.2,0.1-0.3,0.2l-0.3,0.2c-1.3,0.7-2.3,1.8-2.8,3.2
		c-0.5,1.4-0.4,3,0.3,4.3c0.7,1.3,1.8,2.3,3.2,2.8c1.4,0.5,3,0.4,4.3-0.3c0.3-0.1,0.5-0.3,0.7-0.4l3.9-2.6V501.1z"/>
</g>
<g>
	<path class="st8" d="M257.5,378.5c1.1,4.4,5.5,7,9.9,5.9h0.1c0,0.4,0.1,0.8,0.2,1.2c1.1,4.4,5.5,7,9.9,5.9s7-5.5,5.9-9.9
		c-0.1-0.4-0.2-0.8-0.4-1.1h0.1c4.4-1.1,7-5.5,5.9-9.9s-5.5-7-9.9-5.9h-0.1c-1.5-3.7-5.5-5.8-9.5-4.8s-6.5,4.7-6.1,8.7h-0.1
		C259,369.8,256.4,374.2,257.5,378.5z"/>
	<path class="st1" d="M275.6,394.3c-1.9,0-3.8-0.5-5.4-1.5c-2.2-1.3-3.8-3.3-4.6-5.6c-2,0-3.9-0.5-5.6-1.5c-2.4-1.4-4.2-3.8-4.9-6.5
		c-1.3-5.1,1.3-10.2,5.9-12.3c0.4-4.5,3.5-8.2,8-9.3c4.5-1.1,9.1,0.7,11.5,4.5c2.2-0.1,4.3,0.3,6.2,1.5c2.4,1.5,4.2,3.8,4.9,6.6
		c1.2,4.9-1.1,9.8-5.4,12c0.8,5.4-2.6,10.5-7.9,11.9C277.3,394.1,276.4,394.3,275.6,394.3z M267.1,381.9h2.8l0.1,2.5
		c0,0.1,0.1,0.4,0.1,0.6c0.4,1.5,1.3,2.7,2.6,3.5c1.3,0.8,2.8,1,4.3,0.6c3.1-0.8,4.9-3.8,4.1-6.9c0-0.1-0.1-0.3-0.1-0.4l-2.5-3.8
		h4.4c2.9-0.9,4.6-3.8,3.8-6.8c-0.4-1.5-1.3-2.7-2.6-3.5c-1.3-0.8-2.8-1-4.3-0.6l-0.3,0.1h-2.1l-0.6-1.6c-1.1-2.6-3.8-4-6.6-3.3
		c-2.7,0.7-4.5,3.2-4.2,6l0.3,2.7h-2.5c-2.9,0.9-4.6,3.9-3.8,6.8l0,0c0.4,1.5,1.3,2.7,2.6,3.5c1.3,0.8,2.8,1,4.3,0.6L267.1,381.9z"
		/>
</g>
<g>
	<path class="st8" d="M204.7,473.7c-4.4-0.6-8.6,2.4-9.2,6.9v0.1c-0.4-0.1-0.8-0.2-1.2-0.3c-4.4-0.6-8.6,2.4-9.2,6.9
		c-0.6,4.4,2.4,8.6,6.9,9.2c0.4,0.1,0.8,0.1,1.2,0.1v0.1c-0.6,4.4,2.4,8.6,6.9,9.2c4.4,0.6,8.6-2.4,9.2-6.9v-0.1c4,0,7.4-2.9,8-6.9
		s-1.9-7.8-5.7-8.9V483C212.2,478.5,209.1,474.4,204.7,473.7z"/>
	<path class="st1" d="M201.2,508.5c-0.5,0-1,0-1.4-0.1c-2.8-0.4-5.2-1.8-6.9-4c-1.2-1.6-2-3.5-2.2-5.5c-2.4-0.5-4.5-1.9-5.9-3.9
		c-1.7-2.3-2.5-5.2-2.1-8c0.4-2.8,1.8-5.2,4-6.9c2-1.5,4.5-2.3,7-2.2c0.7-1.8,1.9-3.3,3.4-4.5c2.3-1.7,5.2-2.5,8-2.1l0.1,0
		c5.2,0.8,8.9,5.1,9.1,10.2c3.9,2,6.3,6.4,5.6,10.9c-0.7,4.5-4.1,8-8.4,8.8c-0.7,2-1.9,3.8-3.6,5.1
		C205.9,507.7,203.6,508.5,201.2,508.5z M193.2,482.8c-1.3,0-2.5,0.4-3.5,1.2c-1.2,0.9-1.9,2.2-2.1,3.6c-0.2,1.5,0.2,3.1,1.1,4.3
		c0.9,1.2,2.2,1.9,3.6,2.1l0.3,0.1c0.1,0,0.4,0,0.6,0h2.5l0,2.9c-0.2,1.5,0.2,3.1,1.1,4.3c0.9,1.2,2.2,1.9,3.6,2.1
		c1.5,0.2,3.1-0.2,4.3-1.1c1.1-0.9,1.9-2.1,2.1-3.5v-2.4h2.5c2.8,0,5.1-2,5.5-4.8c0.4-2.7-1.3-5.4-3.9-6.1l-1.8-0.5l0-2.3
		c0.4-3.1-1.7-6-4.8-6.5c-1.5-0.2-3,0.2-4.2,1.1c-1.1,0.9-1.9,2.1-2.1,3.5v3.1l-4.2-1C193.7,482.9,193.5,482.8,193.2,482.8z"/>
</g>
<g>
	<path class="st8" d="M208.4,437.3c-3.5,2.7-4.3,7.8-1.5,11.4l0.1,0.1c-0.4,0.2-0.7,0.4-1.1,0.6c-3.5,2.7-4.3,7.8-1.5,11.4
		c2.7,3.5,7.8,4.3,11.4,1.5c0.4-0.2,0.6-0.5,0.9-0.8l0.1,0.1c2.7,3.5,7.8,4.3,11.4,1.5c3.5-2.7,4.3-7.8,1.5-11.4l-0.1-0.1
		c2.8-2.8,3.1-7.3,0.7-10.5c-2.4-3.2-6.9-4.1-10.3-2.2l-0.1-0.1C217.1,435.3,212,434.6,208.4,437.3z"/>
	<path class="st1" d="M223.3,467.3c-0.4,0-0.9,0-1.4-0.1c-2-0.3-3.9-1.1-5.5-2.4c-2.1,1.3-4.5,1.8-6.9,1.5c-2.8-0.4-5.4-1.9-7.2-4.1
		c-1.7-2.2-2.5-5-2.1-7.7c0.3-2.5,1.5-4.8,3.3-6.5c-0.8-1.7-1.1-3.7-0.8-5.6c0.4-2.8,1.9-5.4,4.1-7.2l0,0c4.2-3.1,9.9-2.7,13.6,0.7
		c4.2-1.4,9,0,11.7,3.7c2.8,3.7,2.8,8.5,0.4,12.2c1,1.9,1.3,4,1.1,6.1c-0.4,2.8-1.9,5.4-4.1,7.2
		C227.8,466.6,225.6,467.3,223.3,467.3z M216.6,458l2.1,2.1c0.9,1.2,2.3,2,3.8,2.2c1.5,0.2,2.9-0.2,4.1-1.1c1.2-0.9,2-2.3,2.2-3.8
		c0.2-1.4-0.2-2.8-1-3.9l-1.7-1.7l1.8-1.8c2-2,2.2-5,0.5-7.3c-1.7-2.2-4.7-2.9-7.1-1.5l-1.6,0.9l-1.6-1.6c-1.9-2.5-5.4-3-8-1.2
		c-1.2,0.9-2,2.3-2.2,3.8c-0.2,1.4,0.2,2.8,1,3.9l2.2,2.2l-3.7,2.2c-1.2,0.9-1.9,2.3-2.1,3.8c-0.2,1.5,0.2,2.9,1.1,4.1
		c0.9,1.2,2.3,2,3.8,2.2c1.5,0.2,2.9-0.2,4.1-1.1l0.2-0.2c0.1-0.1,0.3-0.2,0.4-0.4L216.6,458z"/>
</g>
<g>
	<path class="st8" d="M208.8,408.4c-1.5-4.2-6.2-6.4-10.4-4.9h-0.1c-0.1-0.4-0.2-0.8-0.3-1.2c-1.5-4.2-6.2-6.4-10.4-4.9
		s-6.4,6.2-4.9,10.4c0.1,0.4,0.3,0.7,0.5,1.1h-0.1c-4.2,1.5-6.4,6.2-4.9,10.4c1.5,4.2,6.2,6.4,10.4,4.9h0.1c1.9,3.5,6.1,5.2,9.9,3.8
		c3.8-1.4,6-5.4,5.2-9.2h0.1C208.2,417.3,210.4,412.6,208.8,408.4z"/>
	<path class="st1" d="M195.9,431c-3.2,0-6.2-1.4-8.3-3.9c-5,0.8-10-2-11.8-6.9c-1.7-4.7,0.2-9.9,4.2-12.5
		c-1.3-5.2,1.5-10.7,6.7-12.6c2.7-1,5.5-0.8,8.1,0.4c2.3,1.1,4.1,2.9,5.1,5.1c4.8-0.5,9.5,2.3,11.1,6.9c1,2.7,0.9,5.5-0.3,8.1
		c-0.9,2-2.5,3.7-4.4,4.7c0,4.3-2.7,8.4-7,10C198.3,430.8,197.1,431,195.9,431z M188.2,421.7h2l0.7,1.3c1.3,2.5,4.3,3.6,6.8,2.6
		c2.6-1,4.2-3.7,3.6-6.3l-0.6-3h2.7c1.3-0.5,2.3-1.5,2.9-2.8c0.6-1.3,0.7-2.9,0.2-4.2l0,0c-1-2.9-4.3-4.4-7.2-3.4l-0.4,0.1h-2.4
		l-0.6-1.9l-0.3-1.1c-0.5-1.3-1.5-2.4-2.9-3.1c-1.4-0.6-2.9-0.7-4.3-0.2c-1.4,0.5-2.5,1.5-3.2,2.9c-0.6,1.4-0.7,2.9-0.2,4.3l0.1,0.2
		c0,0.1,0.1,0.1,0.1,0.2c0.1,0.1,0.1,0.2,0.2,0.3l1.8,3.6h-3.7c-2.7,1.2-4,4.3-3,7.1c1,2.9,4.3,4.4,7.2,3.4L188.2,421.7z"/>
</g>
<g>
	<path class="st8" d="M90.6,76.2c1-7,2.6-14,5-20.7c4.4-12.3,5.8-21.7,16.1-28.4c13.2-8.5,101-8,118.8,0s38.8,4.4,46.4,16.1
		s22,56.1,27.8,69.7s20.5,14.6,34.1,18.2c13.6,3.6,44.2,53.3,15.8,53.6c-22.7,0.2-38.3,5.7-38.3,5.7s4.2-36.7-56.5-45.8
		c-20-3-59.7-7-73.5-8.9s-53.8,0-77.6,0S73,155.4,73,155.4s-2.1,27.1-15.8,19.1c-13.6-8.1-58.8-43.7-19-49.5
		C68.9,120.4,88.9,88.4,90.6,76.2z"/>
	<path class="st1" d="M310.4,197.7l0.9-7.9c0.1-1.3,2.5-32.1-52.3-40.3c-11.8-1.8-30.5-3.9-46.9-5.8c-11.2-1.3-20.9-2.4-26.5-3.1
		c-8.9-1.2-30.8-0.8-50-0.4c-9.8,0.2-19.1,0.4-26.9,0.4c-18,0-28.4,12.9-30.8,16.4c-0.5,5-2.7,18.4-10.7,22.6
		c-2.6,1.4-6.9,2.3-12.5-0.9c-0.5-0.3-41.1-25.8-37.2-45.2c1.4-7.3,8.2-11.8,20-13.5c27.8-4.2,46.6-33.5,48.2-44.5l0,0
		c1.1-7.8,2.9-15.1,5.2-21.7c0.7-2.1,1.4-4.1,2-6c3.2-9.9,6.1-18.4,16-24.9c10.3-6.6,48.8-7,60.4-7c23.5,0.1,52.5,1.8,63.2,6.6
		c6.7,3,14,4.3,21.1,5.5c11.2,1.9,21.8,3.7,27.5,12.5c5.4,8.2,13.2,29.8,20.1,48.9c3.3,9.2,6.2,17.1,8.1,21.6
		c3.9,9,13.2,11.2,23.9,13.7c2.2,0.5,4.6,1,6.8,1.7c12.8,3.4,33.1,33.4,31.1,50.2c-1,8.3-7,13.1-16.5,13.2
		c-21.5,0.2-36.5,5.4-36.7,5.4L310.4,197.7z M165.3,129.9c9.1,0,16.9,0.2,21.7,0.9c5.5,0.8,15.1,1.8,26.3,3.1
		c16.5,1.9,35.3,4,47.3,5.8c26.7,4,45,13.6,54.5,28.6c3.7,5.9,5.3,11.5,5.9,15.6c6.8-1.7,18.7-4,33.6-4.2c6.1-0.1,6.4-2.8,6.6-4.5
		c1.5-12.1-16.2-37.3-23.7-39.3c-2.1-0.6-4.4-1.1-6.5-1.6c-11.7-2.7-25-5.8-30.9-19.5c-2-4.7-4.9-12.8-8.3-22.1
		c-6.1-16.7-14.4-39.6-19.1-46.9c-3.3-5.1-11.4-6.5-20.8-8.1c-7.3-1.3-15.6-2.7-23.5-6.2c-16.4-7.4-102.7-7.6-114-0.4
		c-7,4.6-9,10.6-12,19.6c-0.7,2-1.3,4.1-2.1,6.2c-2.1,6-3.7,12.6-4.8,19.7C94.4,85,87.8,97,79,106.8c-8.1,9-21.6,20.4-40.1,23.2
		c-6.9,1-11.2,3-11.7,5.6c-1.6,7.8,18.7,26.4,32.5,34.7c1.2,0.7,2.2,0.9,2.7,0.6c2.6-1.4,5-9.4,5.5-15.8l0.1-1.2l0.6-1
		c0.5-0.9,13.7-22.1,40-22.1c7.7,0,16.9-0.2,26.7-0.4C145.7,130.1,156.2,129.9,165.3,129.9z"/>
</g>
<g>
	<path class="st5" d="M83.1,102.9c0,0,17.4-3.2,43.1-3.8s37-4.7,60.3-1.7c23.4,3,48.7,4.5,67.8,7.5s20.2,1.9,37.6,5.7
		c15.4,3.4,24.6,14.3,24.6,14.3s-22.2-18.9-20.6-27.2s-9.3-5.6-24-8.6c-10.3-2.1-45.2-6.7-65.4-9.3c-9.4-1.2-18.9-1.4-28.4-0.7
		c-9.7,0.7-22.5,1.5-31.3,1.3c-7.5-0.2-28.9,1.7-40.1,2.7C98.8,83.8,88,87.8,88,87.8L83.1,102.9z"/>
	<path class="st1" d="M313.7,128.2c-1.7-1.4-3.9-3.4-6.3-5.7c-3.8-2.9-9.5-6.1-16.4-7.7c-10.2-2.2-14.5-2.7-20.6-3.4
		c-4.2-0.5-9-1-16.7-2.2c-10.5-1.6-22.8-2.8-35.9-4.1c-10.5-1-21.3-2.1-31.8-3.4c-14.2-1.8-23.5-1-35.4,0.1
		c-6.8,0.6-14.6,1.4-24.3,1.6c-25.1,0.6-42.3,3.7-42.4,3.7l-7.1,1.3l7.8-24l2-0.7c0.5-0.2,11.4-4.2,19.8-5
		c10.6-0.9,32.8-2.9,40.6-2.7c8.9,0.2,21.9-0.6,30.9-1.3c9.9-0.7,19.8-0.5,29.3,0.7c24.6,3.2,55.9,7.3,65.7,9.4
		c4.3,0.9,8.2,1.2,11.7,1.6c6.5,0.6,11.6,1.1,14.3,4.7c1.5,2,1.9,4.4,1.4,7.4c-0.4,2.5,5.3,10,13,17.5c4.1,3.2,6.4,5.8,6.6,6.1
		L313.7,128.2z M170.1,92c5.1,0,10.6,0.3,16.9,1.1c10.4,1.3,21.1,2.4,31.5,3.4c13.2,1.3,25.7,2.5,36.4,4.2
		c7.6,1.2,12.3,1.7,16.4,2.2c6.1,0.7,10.9,1.2,21.5,3.6c0.5,0.1,0.9,0.2,1.4,0.3c-2-3.5-3.1-6.9-2.5-9.8c0.1-0.3,0.1-0.5,0.1-0.6
		c-1.2-0.6-5.2-1-8.1-1.3c-3.5-0.3-7.9-0.7-12.6-1.7c-7.5-1.5-30.6-4.8-65.1-9.2c-8.9-1.1-18.2-1.4-27.5-0.7
		c-9.2,0.7-22.5,1.5-31.7,1.3c-7.4-0.2-29.1,1.7-39.6,2.7c-5.3,0.5-12.3,2.6-15.6,3.8l-2.1,6.4c7.5-1,20.4-2.4,36.7-2.8
		c9.4-0.2,16.7-0.9,23.7-1.6C156.7,92.6,163,92,170.1,92z"/>
</g>
<g>
	<path class="st1" d="M152,611.2c-0.5-7-8.5-11.9-13.2-14.3c-7.4-3.7-15.2-5.3-20.1-5.4l-16.6,15.2l-5.8-6.4l18.9-17.3l1.5-0.1
		c14.3-0.8,42.5,9.3,43.8,27.7L152,611.2z"/>
</g>
<g>
	<polygon class="st1" points="207,618.9 186.6,618.9 186.6,610.3 198.4,610.3 198.4,604.9 186.9,589.4 193.9,584.2 207,602.1 	"/>
</g>
<g>
	<path class="st1" d="M265.3,614.1c-6.7-13.5-16.7-21.4-29.9-23.4c-7.8-1.2-14.3,0.1-16.8,0.8L206,606.3l-6.5-5.6l14.4-16.7l1.2-0.4
		c0.4-0.1,39-12.1,58.1,26.7L265.3,614.1z"/>
</g>
<g>
	<path class="st9" d="M143.2,293.7l5.5-6.5c3.2-3.8,8.9-4.1,12.6-0.7l8.7,8l-5.8,10.7c-4.1,5-10.4,7.7-16.9,7.2l-14.7-0.9
		c-4.2-0.3-7.9-2.8-9.8-6.6l-5.9-11.8l6.8-6.2c3.4-3.1,8.6-3.1,12,0L143.2,293.7z"/>
	<path class="st1" d="M148.9,316.1c-0.6,0-1.2,0-1.8-0.1l-14.6-0.9c-5.5-0.4-10.3-3.7-12.7-8.5l-7.1-14.2l8.8-8
		c4.8-4.4,12-4.4,16.8,0l4.7,4.3l3.1-3.7c2.2-2.6,5.3-4.1,8.6-4.3c3.4-0.2,6.6,0.9,9.1,3.2l10.8,9.9l-7.3,13.5l-0.2,0.3
		C162.6,313,155.9,316.1,148.9,316.1z M121.5,294l4.7,9.4c1.3,2.6,3.9,4.4,6.8,4.6l14.6,0.9c5.2,0.4,10.3-1.7,13.7-5.6l4.3-8
		l-6.6-6.1c-1-1-2.4-1.4-3.8-1.4c-1.4,0.1-2.7,0.7-3.6,1.8l-7.9,9.3l-10.2-9.3c-2-1.8-5.1-1.8-7.1,0L121.5,294z"/>
</g>
<g>
	<polyline class="st10" points="110.2,297.7 125.1,297.7 135.2,297.4 146.1,297.7 165.8,298.1 179,295.5 	"/>
	<polygon class="st1" points="166.2,303.1 146,302.7 135.2,302.4 125.1,302.7 110.2,302.7 110.2,292.7 125,292.7 135.2,292.4 
		146.2,292.7 165.4,293.1 178,290.6 180,300.4 	"/>
</g>
</svg>
