<?xml version="1.0" encoding="utf-8"?>
<!-- Generator: Adobe Illustrator 25.2.0, SVG Export Plug-In . SVG Version: 6.00 Build 0)  -->
<svg version="1.1" id="Layer_1" xmlns="http://www.w3.org/2000/svg" xmlns:xlink="http://www.w3.org/1999/xlink" x="0px" y="0px"
	 viewBox="0 0 1213.2 503" style="enable-background:new 0 0 1213.2 503;" xml:space="preserve">
<style type="text/css">
	.st0{opacity:0.3;enable-background:new    ;}
	.st1{fill:#FBB03B;}
	.st2{opacity:0.34;enable-background:new    ;}
	.st3{fill:#00A99D;}
	.st4{fill:#C1272D;}
</style>
<g id="Layer_2_1_">
	<g id="Layer_1-2">
		<g class="st0">
			<path class="st1" d="M977.5,208.1c0,39.7-36.7,71.9-82,71.9H659.9c-50.9,0-92.2-36.2-92.2-80.9c0-35.3,25.7-65.3,61.6-76.4
				c-0.1-1.5-0.1-3-0.1-4.6c0-49.7,45.9-89.9,102.5-89.9c38,0,71.1,18.1,88.8,45.1c9.7-5.7,21.5-9.1,34.1-9.1
				c33.9,0,61.5,24.2,61.5,53.9c0,6.9-1.5,13.4-4.1,19.4C949.3,144.3,977.5,173.4,977.5,208.1z"/>
		</g>
		<path d="M236.9,217.5v-0.4c0-7.1,4.4-14.1,14.2-21.5c7.4-5.6,9.5-7.4,9.5-12.5c0-4.6-2.4-8-7.8-8c-5.5,0-8,3-9,8.4h-6.9
			c0.8-8.1,6-14.2,15.9-14.2c10.9,0,15.1,6.9,15.1,13.6c0,7.1-3,10-11.8,16.7c-6.4,4.9-9.7,8.4-10.8,11.8h24.4l-1,6.1L236.9,217.5z"
			/>
		<path d="M278.2,217.5v-11h7.5v11H278.2z"/>
		<path d="M321.5,167.5v50h-7.4v-50H321.5z"/>
		<path d="M332.4,190.1c0-3.2,0-6.4-0.1-9.2h6.9c0.2,1.9,0.3,3.8,0.3,5.8c1.4-3,4.4-6.6,11.4-6.6c7,0,12.2,4.4,12.2,14v23.5H356
			v-22.7c0-5.3-2-8.9-7.4-8.9c-6.4,0-9.1,4.7-9.1,11.9v19.6h-7.1V190.1z"/>
		<path d="M377,206.9c1,3.8,3.9,6,8.6,6c5.1,0,7-2.1,7-5.2s-1.7-4.7-8.3-6.3c-10.8-2.6-12.9-5.9-12.9-10.9c0-5.2,3.8-10.5,13.6-10.5
			c9.7,0,13.6,5.6,14.1,10.7h-6.8c-0.5-2.2-2.1-5.3-7.6-5.3c-4.8,0-6.2,2.3-6.2,4.5c0,2.6,1.4,3.8,8,5.4
			c11.3,2.7,13.5,6.5,13.5,11.9c0,6.4-5,11.2-14.5,11.2c-9.8,0-14.4-4.9-15.4-11.5L377,206.9z"/>
		<path d="M402.9,180.9h6.2v-10.6h7.1v10.6h7.9v5.6h-7.9v20.8c0,3.4,0.9,5.1,4.1,5.1c1,0,2-0.1,3-0.3v5.2c-1.9,0.5-3.8,0.8-5.8,0.7
			c-6,0-8.5-3.1-8.5-9.3v-22.2h-6.2L402.9,180.9z"/>
		<path d="M458.7,209.2c0,2.8,0.2,5.5,0.5,8.3h-6.8c-0.4-1.5-0.6-3-0.6-4.6c-1.3,2.4-4.1,5.4-11.1,5.4c-8.7,0-12.4-5.7-12.4-11.3
			c0-8.2,6.5-12,17.4-12h6v-2.9c0-3.1-1-6.8-7.4-6.8c-5.8,0-6.8,2.8-7.4,5.6H430c0.5-5.3,3.8-11.1,14.4-11c9.1,0,14.2,3.7,14.2,12.1
			L458.7,209.2z M451.8,199.9h-5.6c-7.1,0-10.7,2-10.7,6.8c0,3.6,2.4,6.2,6.8,6.2c8.4,0,9.5-5.7,9.5-12V199.9z"/>
		<path d="M469.2,190.1c0-3.2,0-6.4-0.1-9.2h6.9c0.2,1.9,0.3,3.8,0.3,5.8c1.4-3,4.4-6.6,11.4-6.6s12.2,4.4,12.2,14v23.5h-7.1v-22.7
			c0-5.3-2-8.9-7.4-8.9c-6.4,0-9.1,4.7-9.1,11.9v19.6h-7.1L469.2,190.1z"/>
		<path d="M505.3,180.9h6.2v-10.6h7.1v10.6h7.9v5.6h-7.9v20.8c0,3.4,0.9,5.1,4.1,5.1c1,0,2-0.1,3-0.3v5.2c-1.9,0.5-3.8,0.8-5.7,0.7
			c-6,0-8.5-3.1-8.5-9.3v-22.2h-6.2L505.3,180.9z"/>
		<path d="M551.4,190.8c0-4.8,0-7.8-0.1-10h6.9c0.1,1,0.2,4,0.2,7.3c1.9-4.8,6.1-8,12.2-8.1v7c-7.5,0.1-12.2,3.7-12.2,13.1v17.4
			h-7.1V190.8z"/>
		<path d="M581.4,200.5c0,6.9,3.5,12,9.5,12c5.5,0,7.2-2.7,8.4-5.3h7.1c-1.4,4.6-5.4,11.1-15.7,11.1c-11.6,0-16.4-9.3-16.4-18.8
			c0-11,5.6-19.6,16.8-19.6c12,0,15.9,9.4,15.9,17.5c0,1,0,2-0.1,3L581.4,200.5z M599.8,195.7c-0.1-5.7-2.8-10.3-8.8-10.3
			s-8.8,4.3-9.4,10.3H599.8z"/>
		<path d="M642.7,209.2c0,2.8,0.2,5.5,0.5,8.3h-6.8c-0.4-1.5-0.6-3-0.6-4.6c-1.3,2.4-4.1,5.4-11.1,5.4c-8.7,0-12.4-5.7-12.4-11.3
			c0-8.2,6.5-12,17.4-12h6v-2.9c0-3.1-1-6.8-7.5-6.8c-5.8,0-6.8,2.8-7.4,5.6h-6.8c0.5-5.3,3.8-11.1,14.5-11
			c9.1,0,14.2,3.7,14.2,12.1V209.2z M635.8,199.9h-5.6c-7.1,0-10.7,2-10.7,6.8c0,3.6,2.4,6.2,6.8,6.2c8.4,0,9.5-5.7,9.5-12V199.9z"
			/>
		<path d="M682.7,206.2c-1.5,6.3-5.8,12.2-15.4,12.2c-10.3,0-16.5-7.4-16.5-19c0-10.5,6-19.4,17-19.4s14.5,7.8,14.9,12.4h-7
			c-0.9-3.6-3.1-6.6-8.1-6.6c-6.1,0-9.6,5.3-9.6,13.4c0,8.2,3.4,13.4,9.4,13.4c4.4,0,6.9-2.4,8.3-6.4L682.7,206.2z"/>
		<path d="M686.3,180.9h6.2v-10.6h7.1v10.6h7.9v5.6h-7.9v20.8c0,3.4,0.9,5.1,4.1,5.1c1,0,2-0.1,3-0.3v5.2c-1.9,0.5-3.8,0.8-5.8,0.7
			c-6,0-8.5-3.1-8.5-9.3v-22.2h-6.2L686.3,180.9z"/>
		<path d="M714,164.7h7.1v8.1H714V164.7z M714,180.9h7.1v36.7H714V180.9z"/>
		<path d="M763.6,199.1c0,10.7-6.2,19.3-17.5,19.3c-10.7,0-17.1-8.1-17.1-19.1s6.3-19.2,17.5-19.2
			C756.8,180,763.6,187.6,763.6,199.1z M736.3,199.2c0,7.9,3.8,13.4,10.1,13.4c6.3,0,9.9-5.3,9.9-13.4s-3.6-13.4-10.1-13.4
			S736.3,190.9,736.3,199.2z"/>
		<path d="M771.5,190.1c0-3.2,0-6.4-0.1-9.2h6.9c0.2,1,0.3,4.6,0.3,5.8c1.4-3,4.4-6.6,11.4-6.6s12.2,4.4,12.2,14v23.5h-7.1v-22.7
			c0-5.3-2-8.9-7.4-8.9c-6.4,0-9.1,4.7-9.1,11.9v19.6h-7.1L771.5,190.1z"/>
		<path d="M816.1,206.9c1,3.8,3.8,6,8.6,6c5.1,0,7-2.1,7-5.2s-1.7-4.7-8.3-6.3c-10.8-2.6-12.9-5.9-12.9-10.9
			c0-5.2,3.8-10.5,13.5-10.5s13.6,5.6,14.1,10.7h-6.8c-0.5-2.2-2.1-5.3-7.6-5.3c-4.8,0-6.2,2.3-6.2,4.5c0,2.6,1.4,3.8,8,5.4
			c11.3,2.7,13.5,6.5,13.5,11.9c0,6.4-5,11.2-14.5,11.2c-9.8,0-14.5-4.9-15.4-11.5L816.1,206.9z"/>
		<g class="st2">
			<path class="st3" d="M490.1,304.9l-24.8,42.8c-0.6,1.1-1.7,1.7-2.9,1.7c-2.2,0-3.8-2-3.3-4.1l6.5-27.4H449c-2,0-3.6-1.8-3.3-3.8
				l4.5-33.8c0.2-1.7,1.7-2.9,3.3-2.9h20.2c2.2,0,3.8,2.1,3.3,4.2l-6,18.3h16.2C489.8,299.8,491.4,302.6,490.1,304.9z"/>
		</g>
		<g class="st2">
			<path class="st4" d="M812.6,331.6l-26.1,55.1c-0.7,1.4-1.8,2.2-3.1,2.2c-2.3,0-4-2.6-3.5-5.3l6.8-35.2h-17.6
				c-2.2,0-3.8-2.3-3.5-4.9l4.8-43.5c0.2-2.2,1.8-3.8,3.5-3.8h21.4c2.3,0,4,2.7,3.4,5.5l-6.3,23.5h17.1
				C812.3,325.1,814,328.7,812.6,331.6z"/>
		</g>
		<g class="st2">
			<path class="st1" d="M678.3,402l-46.5,96.8c-1.2,2.4-3.3,3.8-5.5,3.8c-4,0-7.1-4.6-6.2-9.4l12.2-61.9h-31.4
				c-3.8,0-6.8-4.1-6.3-8.7l8.5-76.4c0.4-3.8,3.1-6.6,6.3-6.6h38.1c4.2,0,7.2,4.8,6.1,9.6l-11.3,41.3h30.5
				C677.7,390.6,680.8,397,678.3,402z"/>
		</g>
	</g>
</g>
</svg>
