<?xml version="1.0" encoding="utf-8"?>
<!-- Generator: Adobe Illustrator 25.2.0, SVG Export Plug-In . SVG Version: 6.00 Build 0)  -->
<svg version="1.1" id="Layer_1" xmlns="http://www.w3.org/2000/svg" xmlns:xlink="http://www.w3.org/1999/xlink" x="0px" y="0px"
	 viewBox="0 0 1213.2 497.4" style="enable-background:new 0 0 1213.2 497.4;" xml:space="preserve">
<style type="text/css">
	.st0{opacity:0.3;}
	.st1{fill:#E6E6E6;}
	.st2{fill:#39B54A;}
	.st3{opacity:0.35;}
	.st4{opacity:0.39;}
	.st5{fill:none;stroke:#000000;stroke-miterlimit:10;}
	.st6{fill:#B3B3B3;}
</style>
<g id="Layer_2_1_">
	<g id="Layer_1-2">
		<g class="st0">
			<path class="st1" d="M98.5,334.4h332c35.3,0,64,28.7,64,64l0,0c0,35.3-28.7,64-64,64h-332c-35.3,0-64-28.7-64-64l0,0
				C34.5,363,63.2,334.4,98.5,334.4z"/>
			<path class="st2" d="M311,341.4h118c31.2,0,56.5,25.3,56.5,56.5l0,0c0,31.2-25.3,56.5-56.5,56.5H311c-31.2,0-56.5-25.3-56.5-56.5
				l0,0C254.5,366.7,279.8,341.4,311,341.4z"/>
		</g>
		<g class="st3">
			<path class="st1" d="M321.4,50.4L321.4,50.4c3.4,31-19,58.9-50,62.3l0,0c-31,3.4-58.9-19-62.3-50l0,0c-3.4-31,19-58.9,50-62.3
				l0,0C290.2-3,318,19.4,321.4,50.4z"/>
		</g>
		<g class="st4">
			<path class="st5" d="M755.5,101.4c25.7,15,95.1,60,135,150c31.1,70.2,29,133.6,26,164"/>
			<circle class="st2" cx="723" cy="56.9" r="56.5"/>
			<circle class="st1" cx="876" cy="236.9" r="56.5"/>
			<path class="st1" d="M918,384.4L918,384.4c31.2,0,56.5,25.3,56.5,56.5l0,0c0,31.2-25.3,56.5-56.5,56.5l0,0
				c-31.2,0-56.5-25.3-56.5-56.5l0,0C861.5,409.7,886.8,384.4,918,384.4z"/>
			<path class="st6" d="M816.6,67.9c1.5,6.7,6,10.7,14.3,10.7c9.2,0,12.7-4.6,12.7-10.1c0-5.7-2.5-9.2-13.6-12
				c-10.7-2.7-15.3-6.1-15.3-13.4c0-6.6,4.8-12.8,15.6-12.8c11.1,0,15.8,6.8,16.4,12.9h-4c-1.2-5.4-4.7-9.3-12.6-9.3
				c-7.3,0-11.2,3.4-11.2,9s3.3,7.7,12.6,10c14.2,3.5,16.3,9.2,16.3,15.3c0,7.4-5.4,13.8-17.1,13.8c-12.6,0-17.2-7.3-18.1-14.1
				L816.6,67.9z"/>
			<path class="st6" d="M852.2,45.5h6.7V34.2h3.6v11.2h8.6v3.4h-8.6v23.4c0,4,0.9,6.3,4.3,6.3c1.3,0,2.5-0.1,3.8-0.4v3.2
				c-1.4,0.5-3,0.7-4.5,0.6c-4.6,0-7.2-2.3-7.2-8.1V48.8h-6.7L852.2,45.5z"/>
			<path class="st6" d="M877.8,55.2c0-6-0.1-8.6-0.1-9.8h3.5c0.1,1.2,0.2,3.5,0.2,8.1c1.9-5.3,6.9-8.8,12.5-8.9v3.9
				c-7.5,0.5-12.5,5.7-12.5,14.3v18.7h-3.6L877.8,55.2z"/>
			<path class="st6" d="M929.7,63.4c0,10-5.5,18.9-16.3,18.9c-9.7,0-15.8-8-15.8-18.9c0-10.3,5.7-18.9,16.1-18.9
				C923.3,44.6,929.7,52.1,929.7,63.4z M901.4,63.5c0,8.6,4.6,15.5,12.2,15.5s12.2-6.4,12.2-15.5c0-8.5-4.3-15.5-12.3-15.5
				C905.3,48,901.4,54.8,901.4,63.5L901.4,63.5z"/>
			<path class="st6" d="M938.6,54.5c0-3.2,0-6.2-0.1-9.1h3.5c0.2,1.2,0.2,5.8,0.2,6.8c1.6-3.7,4.5-7.7,12-7.7
				c6.4,0,12.1,3.6,12.1,13.5v23.3h-3.6V58.7c0-6.4-2.7-10.6-8.9-10.6c-8.6,0-11.5,7.1-11.5,15v18.3h-3.6L938.6,54.5z"/>
			<path class="st6" d="M1005.5,79c0,11.5-5.1,17.6-15.6,17.6c-9.4,0-13.2-5.2-14.1-10.7h3.7c1.3,5,5.4,7.3,10.6,7.3
				c9.4,0,12-6,12-15.2v-3.7c-1.9,4.7-5.5,7.2-12,7.2c-8.4,0-14.9-6.8-14.9-18c0-12.1,6.9-18.9,15.4-18.9c7.3,0,10.5,3.5,11.5,6.3
				c0.1-2.1,0.1-4.6,0.2-5.5h3.4c0,1.3-0.1,7-0.1,10.4L1005.5,79z M979,63.3c0,8.6,4.5,14.8,11.5,14.8c9,0,11.7-6,11.7-15.3
				c0-9.5-2.9-14.8-11.5-14.8C982.4,48,979,55.1,979,63.3z"/>
			<path class="st6" d="M969.6,208.1h16.7c13.8,0,23.4,9.6,23.4,24.8s-9.4,25.6-23.5,25.6h-16.6V208.1z M973.5,255h12.2
				c13.3,0,19.9-9.4,19.9-21.8c0-11.1-5.9-21.4-19.9-21.4h-12.2V255z"/>
			<path class="st6" d="M1020.4,241c0.1,9.3,4.7,15,11.7,15c6.9,0,9.1-3.8,10.4-6.8h3.7c-1.5,4.8-5.3,10.1-14.2,10.1
				c-11,0-15.2-9.4-15.2-18.6c0-10.3,5.1-19.1,15.6-19.1c11.1,0,14.6,9.6,14.6,16.4c0,1,0,2-0.1,2.9L1020.4,241z M1043.3,237.8
				c-0.1-7.1-4-12.7-11-12.7c-7.4,0-10.8,5.2-11.6,12.7H1043.3z"/>
			<path class="st6" d="M1057.7,258.5v-32.6h-6.1v-3.4h6.2v-5.1c0-6.1,1.7-12.7,9.8-12.7c1.2,0,2.4,0.2,3.5,0.5v3.5
				c-1.3-0.3-2.6-0.4-3.9-0.4c-4.2,0-5.8,3-5.8,9.3v5h7.8v3.4h-7.8v32.6L1057.7,258.5z"/>
			<path class="st6" d="M1099.1,251.7c0,2.3,0.1,4.6,0.5,6.8h-3.5c-0.4-1.8-0.7-3.7-0.7-5.6c-1.2,2.7-4.4,6.4-11.8,6.4
				c-8.4,0-12-5.4-12-10.8c0-7.9,6.1-11.5,16.9-11.5h6.9v-3.7c0-3.6-1.1-8.4-9.3-8.4c-7.3,0-8.4,3.8-9.2,6.8h-3.6
				c0.4-4,2.9-10.1,12.8-10.1c8.2,0,12.8,3.5,12.8,11.4L1099.1,251.7z M1095.6,240.2h-7.1c-8,0-13,2.1-13,8.3c0,4.5,3.2,7.6,8.3,7.6
				c10.3,0,11.7-6.8,11.7-14.6L1095.6,240.2z"/>
			<path class="st6" d="M1137.5,248c0,3.5,0.1,9.1,0.1,10.5h-3.4c-0.2-2.1-0.3-4.2-0.2-6.3c-1.5,4.2-5.2,7.1-11.6,7.1
				c-5.2,0-11.8-2-11.8-13v-23.8h3.5v23c0,5.2,1.7,10.4,8.8,10.4c8.1,0,11.1-4.5,11.1-14.8v-18.5h3.6V248z"/>
			<path class="st6" d="M1149.3,258.5v-53.1h3.6v53.1H1149.3z"/>
			<path class="st6" d="M1159.8,222.5h6.7v-11.2h3.6v11.2h8.6v3.4h-8.6v23.4c0,4,0.9,6.3,4.3,6.3c1.3,0,2.5-0.1,3.8-0.4v3.2
				c-1.4,0.5-3,0.7-4.5,0.6c-4.6,0-7.2-2.3-7.2-8.1v-25.1h-6.7V222.5z"/>
			<path class="st6" d="M1011.1,470.2v-50.4h5.8c7.8,12.1,26.3,40.3,29.4,45.7h0.1c-0.4-7.3-0.4-14.7-0.4-22.9v-22.8h4v50.4h-5.3
				c-7.5-11.7-26.2-41-29.8-46.5h-0.1c0.4,6.6,0.3,14,0.3,23.1v23.4H1011.1z"/>
			<path class="st6" d="M1092.1,452.2c0,10-5.6,18.9-16.3,18.9c-9.7,0-15.8-8-15.8-18.9c0-10.3,5.7-18.9,16.1-18.9
				C1085.8,433.4,1092.1,440.8,1092.1,452.2z M1063.9,452.2c0,8.6,4.6,15.5,12.2,15.5c7.8,0,12.2-6.4,12.2-15.5
				c0-8.5-4.3-15.5-12.3-15.5C1067.8,436.7,1063.9,443.6,1063.9,452.2z"/>
			<path class="st6" d="M1101,443.3c0-3.2,0-6.2-0.1-9.1h3.5c0.2,1.1,0.2,5.8,0.2,6.8c1.6-3.7,4.5-7.7,11.9-7.7
				c6.4,0,12.1,3.6,12.1,13.5v23.3h-3.6v-22.7c0-6.4-2.7-10.6-8.9-10.6c-8.6,0-11.5,7.1-11.5,15v18.4h-3.6L1101,443.3z"/>
			<path class="st6" d="M1141.3,452.7c0.1,9.3,4.8,15,11.7,15c6.8,0,9.1-3.8,10.4-6.8h3.7c-1.5,4.8-5.3,10.1-14.2,10.1
				c-10.9,0-15.2-9.4-15.2-18.6c0-10.3,5.1-19.2,15.6-19.2c11.1,0,14.6,9.6,14.6,16.4c0,1,0,2-0.1,3H1141.3z M1164.1,449.5
				c-0.1-7.1-4-12.7-11-12.7c-7.4,0-10.8,5.2-11.6,12.7H1164.1z"/>
		</g>
		<path d="M166.1,222.4c0.7-5.8,4.9-12.1,15-12.1c9.8,0,14.3,6,14.3,12.3c0,5.8-3.4,8.7-6.3,9.8v0.2c4.2,1.4,8.4,4.9,8.4,12
			c0,7.5-4.7,14.9-16.4,14.9c-10.9,0-15.5-6.8-16.2-13.1h6.3c1,4.2,4.1,7.9,10.2,7.9c6.8,0,9.6-4.5,9.6-9.6c0-6.3-3.9-9.1-10.3-9.1
			h-3.4v-5.2h2.9c6.2,0,8.9-2.4,8.9-7.4c0-4.3-2.8-7.2-8.1-7.2c-5.7,0-7.8,3.1-8.7,6.9L166.1,222.4z"/>
		<path d="M205.4,258.5v-10.6h6.6v10.6L205.4,258.5z"/>
		<path d="M280.5,244.3c-2.2,8.5-8.6,14.8-19.9,14.8c-15,0-22.6-11.4-22.6-25.5c0-13.6,7.6-25.9,22.8-25.9
			c11.8,0,18.2,6.7,19.7,15.1h-6.6c-1.8-5.5-5.4-9.6-13.3-9.6c-11,0-15.6,10-15.6,20.2c0,9.8,4.3,20.2,15.9,20.2
			c7.7,0,11.1-4.4,13-9.3L280.5,244.3z"/>
		<path d="M320.6,240.2c0,10.5-6,19.2-17.2,19.2c-10.5,0-16.8-8.1-16.8-19.1c0-10.8,6.2-19.2,17.2-19.2
			C314,221.2,320.6,228.8,320.6,240.2z M293.1,240.3c0,8,4,13.9,10.6,13.9s10.4-5.5,10.4-13.8s-3.7-13.9-10.6-13.9
			S293.1,232,293.1,240.3L293.1,240.3z"/>
		<path d="M328.8,231.2c0-3.2,0-6.4-0.1-9.2h6.1c0.2,1.1,0.3,4.9,0.2,6c1.5-3.1,4.4-6.9,11.5-6.9c6.8,0,12.2,4.2,12.2,13.9v23.5
			h-6.3v-22.7c0-5.5-2.2-9.2-7.7-9.2c-6.9,0-9.7,5.2-9.7,12.6v19.3h-6.3L328.8,231.2z"/>
		<path d="M364.5,222h6.3v-10.7h6.3V222h8.1v5.1h-8.1v21.4c0,3.5,0.9,5.4,4.2,5.4c1.1,0,2.1-0.1,3.2-0.3v4.7
			c-1.8,0.5-3.6,0.7-5.5,0.7c-5.7,0-8.2-2.9-8.2-9v-22.8h-6.3V222z"/>
		<path d="M391.5,232c0-5.1,0-8-0.1-9.9h6.2c0.1,1,0.2,3.9,0.2,7.5c1.9-5,6.3-8.1,12.3-8.3v6.3c-7.5,0.2-12.3,4.1-12.3,13.4v17.7
			h-6.3V232z"/>
		<path d="M447.7,240.2c0,10.5-6,19.2-17.2,19.2c-10.5,0-16.8-8.1-16.8-19.1c0-10.8,6.2-19.2,17.2-19.2
			C441.1,221.2,447.7,228.8,447.7,240.2z M420.2,240.3c0,8,4,13.9,10.6,13.9s10.4-5.5,10.4-13.8s-3.7-13.9-10.6-13.9
			S420.2,232,420.2,240.3L420.2,240.3z"/>
		<path d="M455.9,258.5v-52.9h6.3v52.9H455.9z"/>
		<path d="M494.3,222c4.5,17.1,7.1,26.9,7.8,30.7h0.1c0.7-3.4,3.2-12.5,8.4-30.7h6.2c5.7,20.7,7.4,26.7,8,30h0.1
			c0.9-3.9,2.4-9.4,8.1-30h6.4L528,258.5h-6.8c-3.6-13.3-7.1-25.6-7.8-29.6h-0.1c-0.7,4-3.9,15.1-8,29.6h-7L487.6,222H494.3z"/>
		<path d="M552.2,205.7v21.7c1.9-3.2,5.2-6.2,11.4-6.2c5.8,0,12.3,3.2,12.3,14.1v23.3h-6.3v-22.3c0-6.2-2.6-9.6-8-9.6
			c-6.6,0-9.5,4.3-9.5,11.9v20h-6.3v-52.9H552.2z"/>
		<path d="M613.4,250.6c0,2.7,0.1,5.3,0.5,8h-6c-0.4-1.6-0.6-3.2-0.6-4.8c-1.3,2.4-4.2,5.6-11.3,5.6c-8.6,0-12.3-5.6-12.3-11.2
			c0-8.1,6.4-11.9,17.2-11.9h6.2v-3.1c0-3.2-1-7.1-7.9-7.1c-6.1,0-7.1,3-7.8,5.9h-6.1c0.5-5,3.6-10.9,14.1-10.8
			c8.9,0,13.9,3.7,13.9,12L613.4,250.6z M607.3,240.7h-5.9c-7.3,0-11.2,2-11.2,7.2c0,3.8,2.6,6.6,7.1,6.6c8.8,0,10-5.9,10-12.6
			L607.3,240.7z"/>
		<path d="M619.1,222h6.3v-10.7h6.3V222h8.1v5.1h-8.1v21.4c0,3.5,0.9,5.4,4.2,5.4c1.1,0,2.1-0.1,3.2-0.3v4.7
			c-1.8,0.5-3.6,0.7-5.5,0.7c-5.7,0-8.2-2.9-8.2-9v-22.8h-6.3V222z"/>
		<path d="M667.2,222c5.9,17.5,9.1,27.2,10.1,30.9h0.1c1.2-4.1,3.8-12.5,9.8-30.9h6.4l-13.1,38.2c-3.7,10.7-6.5,13.4-13.9,13.4
			c-1.3,0-2.6-0.1-3.9-0.2v-5.5c1,0.1,2,0.2,3,0.2c4.6,0,6.4-2,8.5-8.1L660.4,222H667.2z"/>
		<path d="M731.1,240.2c0,10.5-6,19.2-17.2,19.2c-10.5,0-16.8-8.1-16.8-19.1c0-10.8,6.2-19.2,17.2-19.2
			C724.5,221.2,731.1,228.8,731.1,240.2z M703.6,240.3c0,8,4,13.9,10.6,13.9s10.4-5.5,10.4-13.8s-3.7-13.9-10.6-13.9
			S703.6,232,703.6,240.3L703.6,240.3z"/>
		<path d="M768.6,247.9c0,3.6,0,8.5,0.1,10.6h-6.1c-0.1-1-0.2-3.2-0.2-5.5c-1.8,4-5.3,6.3-11.1,6.3c-6.2,0-12.1-3.1-12.1-13.4V222
			h6.3v22.7c0,4.8,1.5,9.2,7.6,9.2c6.7,0,9.3-3.7,9.3-12.9V222h6.3V247.9z"/>
		<path d="M800.7,248.1c1,4,4,6.3,9,6.3c5.4,0,7.5-2.3,7.5-5.6s-1.7-5-8.7-6.7c-10.4-2.5-12.6-5.7-12.6-10.7
			c0-5.2,3.8-10.3,13.2-10.3s13.3,5.4,13.8,10.5h-6.1c-0.5-2.4-2.3-5.6-7.9-5.6c-5.1,0-6.6,2.5-6.6,4.9c0,2.7,1.5,4.1,8.2,5.7
			c11.1,2.6,13.3,6.3,13.3,11.8c0,6.4-5.1,11.1-14.2,11.1c-9.5,0-14.1-4.8-15-11.3H800.7z"/>
		<path d="M835.6,241.4c0,7.4,3.8,12.7,10,12.7c5.8,0,7.7-3,8.8-5.6h6.4c-1.4,4.7-5.4,10.9-15.4,10.9c-11.5,0-16.2-9.3-16.2-18.7
			c0-10.9,5.5-19.5,16.6-19.5c11.8,0,15.6,9.4,15.6,17.2c0,1,0,2-0.1,3L835.6,241.4z M855,237c-0.1-6-3.1-10.8-9.3-10.8
			c-6.4,0-9.2,4.5-9.9,10.8H855z"/>
		<path d="M873.7,241.4c0,7.4,3.8,12.7,10,12.7c5.8,0,7.6-3,8.8-5.6h6.3c-1.4,4.7-5.3,10.9-15.4,10.9c-11.5,0-16.2-9.3-16.2-18.7
			c0-10.9,5.5-19.5,16.6-19.5c11.8,0,15.6,9.4,15.6,17.2c0,1,0,2-0.1,3L873.7,241.4z M893.1,237c-0.1-6-3.1-10.8-9.3-10.8
			c-6.4,0-9.2,4.5-9.9,10.8H893.1z"/>
	</g>
</g>
</svg>
