<?xml version="1.0" encoding="utf-8"?>
<!-- Generator: Adobe Illustrator 25.2.0, SVG Export Plug-In . SVG Version: 6.00 Build 0)  -->
<svg version="1.1" id="Layer_1" xmlns="http://www.w3.org/2000/svg" xmlns:xlink="http://www.w3.org/1999/xlink" x="0px" y="0px"
	 viewBox="0 0 700.6 288.8" style="enable-background:new 0 0 700.6 288.8;" xml:space="preserve">
<style type="text/css">
	.st0{fill:#EA5455;}
	.st1{fill:#F07B3F;}
	.st2{fill:none;stroke:#00B8A9;stroke-miterlimit:10;}
	.st3{fill:#00B8A9;}
</style>
<g id="Layer_2_1_">
	<g id="Layer_1-2">
		<path class="st0" d="M137.7,2.7h16.7c13.8,0,23.4,9.7,23.4,24.8s-9.4,25.6-23.5,25.6h-16.6V2.7z M141.6,49.5h12.2
			c13.3,0,19.9-9.4,19.9-21.8c0-11.1-5.9-21.4-19.9-21.4h-12.2V49.5z"/>
		<path class="st0" d="M188.5,35.5c0.1,9.3,4.8,15,11.7,15s9.1-3.8,10.4-6.8h3.7c-1.5,4.8-5.3,10.2-14.2,10.2
			c-10.9,0-15.2-9.4-15.2-18.6c0-10.3,5.1-19.2,15.6-19.2c11.1,0,14.6,9.6,14.6,16.4c0,1,0,2-0.1,3L188.5,35.5z M211.4,32.3
			c-0.1-7.1-4-12.7-11-12.7c-7.4,0-10.8,5.2-11.6,12.7H211.4z"/>
		<path class="st0" d="M250.7,42.5c-1.7,6.3-5.9,11.5-14,11.5c-9,0-15.4-6.7-15.4-18.7c0-9.9,5.3-19,15.8-19
			c9.1,0,12.9,6.5,13.5,11.5H247c-1.1-4.2-3.8-8.1-9.9-8.1c-7.6,0-11.9,6.5-11.9,15.5c0,8.6,4,15.5,11.6,15.5
			c5.3,0,8.4-2.7,10.3-8.1L250.7,42.5z"/>
		<path class="st0" d="M260,0h3.6v7H260V0z M260,17.1h3.6v36H260V17.1z"/>
		<path class="st0" d="M275.1,43.1c1.2,4.7,4.5,7.5,10.2,7.5c6.4,0,9-3,9-7s-1.7-6.1-9.8-8.1c-9.3-2.2-11.6-5-11.6-9.8
			c0-5,3.8-9.6,11.9-9.6s12,5,12.6,10.1h-3.6c-0.6-3-3-6.8-9.1-6.8s-8.1,3.1-8.1,6c0,3.3,1.7,5,8.9,6.7c10.2,2.5,12.7,5.8,12.7,11.2
			c0,6.5-5.3,10.6-12.9,10.6c-8.2,0-12.8-4.3-13.8-10.8L275.1,43.1z"/>
		<path class="st0" d="M307,0h3.6v7H307V0z M307,17.1h3.6v36H307V17.1z"/>
		<path class="st0" d="M351.6,35c0,10-5.5,18.9-16.3,18.9c-9.7,0-15.8-8-15.8-18.9c0-10.3,5.7-18.9,16.1-18.9
			C345.3,16.2,351.6,23.7,351.6,35z M323.4,35.1c0,8.6,4.6,15.5,12.2,15.5s12.2-6.4,12.2-15.5c0-8.5-4.3-15.5-12.3-15.5
			C327.3,19.6,323.4,26.4,323.4,35.1L323.4,35.1z"/>
		<path class="st0" d="M360.5,26.1c0-3.2,0-6.2-0.1-9.1h3.5c0.1,1.1,0.2,5.8,0.1,6.8c1.6-3.7,4.5-7.7,12-7.7
			c6.4,0,12.1,3.6,12.1,13.5v23.3h-3.6V30.3c0-6.4-2.7-10.6-8.9-10.6c-8.6,0-11.5,7.1-11.5,15v18.3h-3.6L360.5,26.1z"/>
		<path class="st1" d="M282.9,220.4h30.5v3.6h-26.6v19h25v3.6h-25v24.2h-3.9V220.4z"/>
		<path class="st1" d="M322.2,253.2c0.1,9.3,4.8,15.1,11.7,15.1s9.1-3.8,10.4-6.8h3.7c-1.5,4.8-5.3,10.1-14.2,10.1
			c-11,0-15.2-9.4-15.2-18.6c0-10.3,5.1-19.1,15.6-19.1c11.1,0,14.6,9.6,14.6,16.4c0,1,0,2-0.1,3L322.2,253.2z M345,250.1
			c-0.1-7.1-4-12.7-11-12.7c-7.4,0-10.8,5.2-11.6,12.7H345z"/>
		<path class="st1" d="M358.7,253.2c0.1,9.3,4.8,15.1,11.7,15.1s9.1-3.8,10.4-6.8h3.7c-1.5,4.8-5.3,10.1-14.2,10.1
			c-10.9,0-15.2-9.4-15.2-18.6c0-10.3,5.1-19.1,15.6-19.1c11.1,0,14.6,9.6,14.6,16.4c0,1,0,2-0.1,3L358.7,253.2z M381.5,250.1
			c-0.1-7.1-4-12.7-11-12.7c-7.4,0-10.8,5.2-11.6,12.7H381.5z"/>
		<path class="st1" d="M422.2,217.8v42.7c0,3.5,0,6.8,0.1,10.4h-3.5c-0.1-0.9-0.2-4.2-0.2-6c-1.8,4.4-5.8,6.9-12.1,6.9
			c-9.4,0-15-7.6-15-18.4c0-11.1,6.1-19.3,15.9-19.3c7.2,0,10.1,3.1,11.2,5.4v-21.7H422.2z M395.3,253.1c0,9.9,5.1,15.2,11.3,15.2
			c9.5,0,12.1-6.5,12.1-16.4c0-9.3-2.2-14.6-11.5-14.6C400.1,237.3,395.3,243,395.3,253.1z"/>
		<path class="st1" d="M434,217.8h3.6v23.1c1.7-3.6,5.3-6.9,12.3-6.9c8.5,0,14.8,7,14.8,18.1c0,11.4-5.6,19.7-15.7,19.7
			c-6,0-9.5-2.5-11.4-6.5c0,2.3-0.1,4.7-0.1,5.7h-3.5c0.1-4.1,0.1-8.2,0.1-12.3V217.8z M460.9,252.1c0-9-4.5-14.8-11.3-14.8
			c-9,0-12.2,6.1-12.2,15.6c0,8.5,2.8,15.4,11.7,15.4C456.4,268.3,460.9,262.2,460.9,252.1L460.9,252.1z"/>
		<path class="st1" d="M498.3,264c0,2.3,0.1,4.6,0.5,6.8h-3.5c-0.4-1.8-0.6-3.7-0.6-5.5c-1.2,2.7-4.4,6.4-11.8,6.4
			c-8.4,0-12-5.4-12-10.8c0-7.9,6.1-11.5,16.9-11.5h6.8v-3.7c0-3.6-1.1-8.4-9.3-8.4c-7.3,0-8.4,3.8-9.1,6.8h-3.6
			c0.4-4,2.9-10.1,12.8-10.1c8.2,0,12.8,3.5,12.8,11.4L498.3,264z M494.8,252.5h-7.1c-8,0-13,2.1-13,8.3c0,4.5,3.2,7.6,8.3,7.6
			c10.3,0,11.7-6.8,11.7-14.6L494.8,252.5z"/>
		<path class="st1" d="M536.7,260.2c-1.7,6.3-5.9,11.5-14,11.5c-9,0-15.4-6.7-15.4-18.7c0-9.9,5.3-19,15.9-19
			c9.1,0,12.9,6.5,13.5,11.5H533c-1.1-4.2-3.8-8.1-9.9-8.1c-7.6,0-12,6.5-12,15.5c0,8.6,4,15.5,11.6,15.5c5.3,0,8.4-2.7,10.3-8.1
			L536.7,260.2z"/>
		<path class="st1" d="M548.6,253.4c3.3-3.5,13.4-13.8,18.2-18.6h4.6l-14.3,14.3l16.1,21.7h-4.5l-14.2-19.4l-6,5.8v13.6H545v-53h3.6
			L548.6,253.4z"/>
		<g>
			<g>
				<path class="st2" d="M457.7,27.9c113.3-48.5,219.6,1.7,239,67c12.8,43.3-11.3,97.4-54.5,137.9"/>
				<g>
					<path class="st3" d="M620.1,253.5c6.8-13.6,13.5-32.2,14.9-46.6l10,23.2l22.5,11.5C653.1,242.1,634.1,247.6,620.1,253.5z"/>
				</g>
			</g>
		</g>
		<g>
			<g>
				<path class="st2" d="M235.9,275.1C119.3,315.3,17,257.4,2.4,190.9c-9.6-44.1,18.4-96.3,64.4-133.6"/>
				<g>
					<path class="st3" d="M90.3,38.3c-7.7,13-15.8,31.1-18.3,45.4l-8.3-23.9L42.1,46.7C56.6,47.2,75.9,43.1,90.3,38.3z"/>
				</g>
			</g>
		</g>
	</g>
</g>
</svg>
