<?xml version="1.0" encoding="utf-8"?>
<!-- Generator: Adobe Illustrator 25.2.0, SVG Export Plug-In . SVG Version: 6.00 Build 0)  -->
<svg version="1.1" id="Layer_1" xmlns="http://www.w3.org/2000/svg" xmlns:xlink="http://www.w3.org/1999/xlink" x="0px" y="0px"
	 viewBox="0 0 1215.5 478" style="enable-background:new 0 0 1215.5 478;" xml:space="preserve">
<style type="text/css">
	.st0{opacity:0.28;}
	.st1{fill:none;stroke:#BFDFFF;stroke-width:3;stroke-miterlimit:10;}
	.st2{fill:#B4E4FF;}
	.st3{enable-background:new    ;}
	.st4{fill:#29ABE2;}
	.st5{fill:#C9DEFF;}
	.st6{fill:none;stroke:#29ABE2;stroke-width:6;stroke-miterlimit:10;}
</style>
<g id="Layer_2_1_">
	<g id="Layer_1-2">
		<g class="st0">
			<polyline class="st1" points="220,146.5 516,339 666.9,359.4 1115,427.5 			"/>
			<path class="st2" d="M227,285h573c10.8,0,19.5,8.7,19.5,19.5v89c0,10.8-8.7,19.5-19.5,19.5H227c-10.8,0-19.5-8.7-19.5-19.5v-89
				C207.5,293.7,216.2,285,227,285z"/>
			<path class="st2" d="M691.4,292h105.1c7.7,0,13.9,6.2,13.9,13.9v85.1c0,7.7-6.2,13.9-13.9,13.9H691.4c-7.7,0-13.9-6.2-13.9-13.9
				v-85.1C677.5,298.2,683.7,292,691.4,292z"/>
			<g class="st3">
				<path d="M778.1,381.1l-4,4c-1.3,1.3-3.4,1.3-4.8,0l-14-14c-0.6-0.6-1-1.5-1-2.4v-2.3c-5,3.9-11.2,6.2-18,6.2
					c-16.2,0-29.2-13.1-29.2-29.2s13.1-29.2,29.2-29.2c16.2,0,29.2,13.1,29.2,29.2c0,6.8-2.3,13-6.2,18h2.3c0.9,0,1.8,0.4,2.4,1
					l14,14C779.4,377.6,779.4,379.7,778.1,381.1z M754.3,343.3c0-10-8.1-18-18-18c-10,0-18,8.1-18,18c0,10,8.1,18,18,18
					C746.3,361.3,754.3,353.2,754.3,343.3z"/>
			</g>
			<circle class="st4" cx="166.5" cy="83" r="83"/>
			<circle class="st4" cx="1165" cy="427.5" r="50.5"/>
			<circle class="st5" cx="45" cy="349" r="45"/>
			<circle class="st6" cx="1000" cy="232.5" r="22.5"/>
		</g>
		<path d="M138.5,257.1v-39c-3,1.8-6.2,3-9.6,3.7v-5.6c4.3-1.3,8.3-3.6,11.5-6.7h5.3v47.6L138.5,257.1z"/>
		<path d="M155.7,257.1v-11h7.5v11H155.7z"/>
		<path d="M199,242.7l-5.1,14.3h-7.4l17.7-50h9.2l18.4,50h-7.9l-5.3-14.3L199,242.7z M216.8,236.5c-4.5-12.7-7.1-19.6-8.2-23.5h-0.1
			c-1.2,4.4-4.1,12.7-7.7,23.5H216.8z"/>
		<path d="M238.3,257.1v-52.8h7.1v52.8H238.3z"/>
		<path d="M255.9,257.1v-52.8h7.1v52.8H255.9z"/>
		<path d="M287,220.4h6.2v-10.6h7.1v10.6h7.9v5.6h-7.9v20.8c0,3.4,0.9,5.1,4.1,5.1c1,0,2-0.1,3-0.3v5.2c-1.9,0.5-3.8,0.8-5.7,0.7
			c-6,0-8.5-3.1-8.5-9.3v-22.2H287V220.4z"/>
		<path d="M321.8,204.3v21.3c1.8-3,5.1-6.1,11.3-6.1s12.3,3.4,12.3,14.1v23.4h-7v-22.3c0-5.9-2.5-9.2-7.6-9.2c-6.4,0-9,4.3-9,11.6
			v19.9h-7.1v-52.8L321.8,204.3z"/>
		<path d="M360.5,240.1c0,6.9,3.5,12,9.5,12c5.5,0,7.2-2.7,8.4-5.3h7.1c-1.4,4.7-5.4,11.1-15.7,11.1c-11.6,0-16.4-9.3-16.4-18.8
			c0-11,5.6-19.6,16.8-19.6c12,0,15.9,9.4,15.9,17.5c0,1,0,2-0.1,3.1L360.5,240.1z M379,235.3c-0.1-5.7-2.9-10.3-8.9-10.3
			s-8.8,4.3-9.4,10.3H379z"/>
		<path d="M411.7,229.7c0-3.2,0-6.4-0.1-9.2h6.9c0.2,1.1,0.3,4.7,0.3,5.8c1.4-3,4.4-6.6,11.4-6.6s12.2,4.4,12.2,14v23.5h-7.1v-22.6
			c0-5.3-2-8.9-7.4-8.9c-6.4,0-9.1,4.7-9.1,11.9v19.6h-7.1L411.7,229.7z"/>
		<path d="M457.4,240.1c0,6.9,3.5,12,9.5,12c5.5,0,7.2-2.7,8.4-5.3h7.1c-1.4,4.7-5.4,11.2-15.7,11.2c-11.6,0-16.4-9.3-16.4-18.8
			c0-11,5.6-19.6,16.8-19.6c12,0,15.9,9.4,15.9,17.5c0,1,0,2-0.1,3.1L457.4,240.1z M475.9,235.3c-0.1-5.7-2.9-10.3-8.9-10.3
			s-8.8,4.3-9.4,10.3L475.9,235.3z"/>
		<path d="M494.9,220.4c4.3,16.7,6.8,26.3,7.4,30.2h0.1c0.7-3.5,3-12,8-30.2h6.8c5.4,20.2,7,26.1,7.6,29.5h0.1
			c0.9-3.9,2.3-9.4,7.7-29.5h7.1l-11.2,36.7h-7.6c-3.5-13.5-6.6-24.9-7.4-29h-0.1c-0.7,4.1-3.7,14.7-7.6,29H498l-10.6-36.7H494.9z"
			/>
		<path d="M550.2,246.5c1,3.8,3.8,6,8.6,6c5.1,0,7-2.1,7-5.2s-1.7-4.7-8.3-6.3c-10.8-2.6-12.9-5.9-12.9-10.9
			c0-5.2,3.8-10.5,13.5-10.5s13.6,5.6,14.1,10.7h-6.8c-0.5-2.2-2.1-5.3-7.6-5.3c-4.8,0-6.2,2.3-6.2,4.5c0,2.6,1.4,3.8,8,5.4
			c11.3,2.7,13.5,6.5,13.5,11.9c0,6.4-5,11.2-14.5,11.2c-9.8,0-14.5-4.9-15.4-11.5L550.2,246.5z"/>
		<path d="M599,204.3h7v8.1h-7V204.3z M599,220.4h7v36.7h-7V220.4z"/>
		<path d="M616.5,229.7c0-3.2,0-6.4-0.1-9.2h6.9c0.2,1.1,0.3,4.7,0.3,5.8c1.4-3,4.4-6.6,11.4-6.6s12.2,4.4,12.2,14v23.5h-7.1v-22.6
			c0-5.3-2-8.9-7.4-8.9c-6.4,0-9.1,4.7-9.1,11.9v19.6h-7.1L616.5,229.7z"/>
		<path d="M707.7,238.7c0,10.7-6.2,19.3-17.5,19.3c-10.7,0-17.1-8.1-17.1-19.1s6.3-19.3,17.5-19.3
			C701,219.6,707.7,227.2,707.7,238.7z M680.4,238.8c0,7.9,3.8,13.4,10.1,13.4s9.9-5.3,9.9-13.4s-3.6-13.4-10.1-13.4
			S680.4,230.5,680.4,238.8L680.4,238.8z"/>
		<path d="M715.7,229.7c0-3.2,0-6.4-0.1-9.2h6.9c0.2,1.1,0.3,4.7,0.3,5.8c1.4-3,4.4-6.6,11.4-6.6s12.2,4.4,12.2,14v23.5h-7.1v-22.6
			c0-5.3-2-8.9-7.4-8.9c-6.4,0-9.1,4.7-9.1,11.9v19.6h-7.1L715.7,229.7z"/>
		<path d="M761.4,240.1c0,6.9,3.5,12,9.5,12c5.5,0,7.2-2.7,8.4-5.3h7.1c-1.4,4.7-5.4,11.2-15.7,11.2c-11.6,0-16.4-9.3-16.4-18.8
			c0-11,5.6-19.6,16.8-19.6c12,0,15.9,9.4,15.9,17.5c0,1,0,2-0.1,3.1L761.4,240.1z M779.9,235.3c-0.1-5.7-2.9-10.3-8.9-10.3
			s-8.8,4.3-9.4,10.3L779.9,235.3z"/>
		<path d="M813.7,257.1v-31h-5.8v-5.6h5.8v-4.2c0-6.9,2.8-12.7,10.9-12.7c1.4,0,2.8,0.1,4.2,0.5v5.9c-1-0.2-2-0.3-3-0.3
			c-3.6,0-5,2-5,7.1v3.7h7.2v5.6h-7.2v31L813.7,257.1z"/>
		<path d="M837.8,240.1c0,6.9,3.5,12,9.5,12c5.5,0,7.2-2.7,8.4-5.3h7.1c-1.4,4.7-5.4,11.1-15.7,11.1c-11.6,0-16.4-9.3-16.4-18.8
			c0-11,5.6-19.6,16.8-19.6c12,0,15.9,9.4,15.9,17.5c0,1,0,2-0.1,3.1L837.8,240.1z M856.3,235.3c-0.1-5.7-2.8-10.3-8.9-10.3
			s-8.8,4.3-9.4,10.3H856.3z"/>
		<path d="M876.4,240.1c0,6.9,3.5,12,9.5,12c5.5,0,7.2-2.7,8.4-5.3h7.1c-1.4,4.7-5.4,11.2-15.7,11.2c-11.6,0-16.4-9.3-16.4-18.8
			c0-11,5.6-19.6,16.8-19.6c12,0,15.9,9.4,15.9,17.5c0,1,0,2-0.1,3.1L876.4,240.1z M894.8,235.3c-0.1-5.7-2.8-10.3-8.8-10.3
			s-8.8,4.3-9.4,10.3L894.8,235.3z"/>
		<path d="M941.5,204.3v42.5c0,3.4,0,6.8,0.1,10.3h-6.8c-0.2-1-0.3-3.6-0.3-4.9c-1.8,3.6-5.4,5.8-11.3,5.8
			c-9.4,0-15.2-7.6-15.2-18.8s6.2-19.6,16.4-19.6c6.3,0,9.1,2.5,10.1,4.4v-19.7H941.5z M915.2,238.9c0,8.5,3.9,13.1,9.5,13.1
			c8.3,0,9.9-6.2,9.9-13.7c0-7.8-1.5-12.9-9.5-12.9C918.9,225.5,915.2,230.4,915.2,238.9z"/>
	</g>
</g>
</svg>
