<?xml version="1.0" encoding="utf-8"?>
<!-- Generator: Adobe Illustrator 25.2.0, SVG Export Plug-In . SVG Version: 6.00 Build 0)  -->
<svg version="1.1" id="Layer_1" xmlns="http://www.w3.org/2000/svg" xmlns:xlink="http://www.w3.org/1999/xlink" x="0px" y="0px"
	 viewBox="0 0 363.3 144.7" style="enable-background:new 0 0 363.3 144.7;" xml:space="preserve">
<style type="text/css">
	.st0{fill:#C1272D;}
	.st1{fill:#FBB03B;}
	.st2{fill:#009245;}
	.st3{fill:#0071BC;}
	.st4{fill:#D4145A;}
</style>
<g id="Layer_2_1_">
	<g id="Layer_1-2">
		<path class="st0" d="M0,35.8c8-0.9,16-1.4,24-1.4c12.4,0,21.5,2.1,27.2,5.8c5.3,3.3,8.5,8.5,8.5,14.7c0.2,5.9-2.7,11.6-7.5,15
			c-6.6,5.1-17.4,7.7-29.7,7.7c-3.4,0.1-6.7-0.1-10.1-0.6v28.2H0V35.8z M12.5,69.7c3.4,0.8,6.9,1.1,10.4,1
			c15.1,0,24.3-7.3,24.3-20.7c0-12.8-9.1-19-22.9-19c-4-0.1-7.9,0.2-11.8,1V69.7z"/>
		<path class="st1" d="M89.1,21.7v57.5c0,21.7,9.6,31,22.6,31c14.4,0,23.6-9.5,23.6-31V21.7H148v56.6c0,29.8-15.7,42-36.7,42
			c-19.9,0-34.8-11.4-34.8-41.5V21.7H89.1z"/>
		<path class="st2" d="M169.8,0h12.5v125.2h41.5v15.2h-54V0z"/>
		<path class="st3" d="M236,103.5c6.8,4.1,14.5,6.3,22.5,6.3c12.8,0,20.3-6.8,20.3-16.6c0-9.1-5.2-14.2-18.3-19.3
			c-15.8-5.6-25.6-13.8-25.6-27.5c0-15.1,12.5-26.4,31.4-26.4c9.9,0,17.1,2.3,21.5,4.8l-3.4,10.2c-5.7-3-12-4.6-18.4-4.6
			c-13.2,0-18.3,7.9-18.3,14.5c0,9.1,5.9,13.5,19.3,18.7c16.4,6.3,24.8,14.3,24.8,28.5c0,15-11.1,27.9-34,27.9
			c-9.4,0-19.6-2.7-24.8-6.2L236,103.5z"/>
		<path class="st4" d="M359,72.3h-37.7v25.3h42v7.6h-54.6V35h52.4v7.6h-39.9v22.2H359V72.3z"/>
	</g>
</g>
</svg>
