<svg xmlns="http://www.w3.org/2000/svg" viewBox="0 0 25.19 41.98"><defs><style>.cls-1{fill:#3e4347;}.cls-2{fill:#ae8fc2;}.cls-3{fill:#71549f;}.cls-4{fill:#f8c5ce;}.cls-5{fill:#ffdd67;}.cls-6{fill:#eba353;}.cls-7{fill:#f9b215;}.cls-8{fill:#937237;}</style></defs><g id="Layer_2" data-name="Layer 2"><g id="Layer_1-2" data-name="Layer 1"><path class="cls-1" d="M15.07,42.54a2.06,2.06,0,0,0,0,2.19h2v-.8s.33.8,3.39.8c1.06,0,1.17-1,.06-1.1s-1-.84-2-2.18Z" transform="translate(-9.8 -2.74)"/><path class="cls-1" d="M27.1,42.54a2.06,2.06,0,0,0,0,2.19h2v-.8s.33.8,3.39.8c1.06,0,1.18-1,.06-1.1s-1-.84-2-2.18Z" transform="translate(-9.8 -2.74)"/><path class="cls-2" d="M29.33,35.07c-.33-1.75-3-3-4.68-6.4a26.59,26.59,0,0,0-7-.86s-1.83.92-.83,5.09c.61,2.53-.67,6.79-2.67,9.9a9.38,9.38,0,0,0,6,0s-.92-2.17.65-6.37c.51-1.35-.66-2.7.52-5.69,0,0,.58,1.27,4.86,5.08a15.71,15.71,0,0,0,.15,7,8.73,8.73,0,0,0,2.95.29,13.87,13.87,0,0,0,3.24-.29S30.44,40.89,29.33,35.07Z" transform="translate(-9.8 -2.74)"/><path class="cls-3" d="M20.38,28.51c-1.48-.73-2.38-.79-2.92-.57a2.65,2.65,0,0,0-.85,1.59,7.29,7.29,0,0,0,3.19.59A4.06,4.06,0,0,0,20.38,28.51Z" transform="translate(-9.8 -2.74)"/><path class="cls-2" d="M23,16.39s5.06-1.52,7.23-5.64c0,0,.34,1.58,2.9,3.12a42.42,42.42,0,0,1-6.46,4.07,31.4,31.4,0,0,0,1.88,10.41s-.18.61-5,.61C23.62,29,26.09,24.58,23,16.39Z" transform="translate(-9.8 -2.74)"/><path class="cls-2" d="M19.53,16.63s-2.35-1.38-3.51-.47c-6.22,4.91-6.59,6.11-5.85,10,0,0,1.28-.93,3.51.12,0,0-1-3.83,3.47-5.86a24.24,24.24,0,0,1-1.47,7.83s1,1.36,3.85,1.36A16.6,16.6,0,0,0,19.53,16.63Z" transform="translate(-9.8 -2.74)"/><path class="cls-3" d="M30.85,10.05s2.7,1.48,2.7,3.76H32a2.82,2.82,0,0,0-.81-1.73C30.54,11.59,30.85,10.05,30.85,10.05Z" transform="translate(-9.8 -2.74)"/><path class="cls-4" d="M30.85,10.05a26.2,26.2,0,0,0-2,1.87,3.43,3.43,0,0,0,.76,1.51l1.73-.89-1.27,1.63a3.38,3.38,0,0,0,1.46,1.13,8.54,8.54,0,0,0,2-1.49A6.16,6.16,0,0,1,30.85,10.05Z" transform="translate(-9.8 -2.74)"/><path class="cls-5" d="M33.55,10.13s1.33-1.12,1-1.5-.63-.4-1,0c-.13.16-.4.44-.88.93-.5-.4-.7,0-.83.17a5.21,5.21,0,0,0-.41,1.09,4.55,4.55,0,0,0,1.86,2.32C34,12.71,35,12,35,11.72,35,11.06,33.55,10.13,33.55,10.13Z" transform="translate(-9.8 -2.74)"/><path class="cls-6" d="M31.85,10.57a1.29,1.29,0,0,1,.92.13l-.14.11A1.31,1.31,0,0,0,31.85,10.57Z" transform="translate(-9.8 -2.74)"/><path class="cls-3" d="M10.06,26.85s1.14.79,4,.13A3.91,3.91,0,0,0,10.06,26.85Z" transform="translate(-9.8 -2.74)"/><path class="cls-5" d="M10.81,26.14a3.23,3.23,0,0,0,.49,3.24,2,2,0,0,0,2.29.38c1-.42.14-.8-.24-1.61.23-.26.47-.5.34-.77a1.87,1.87,0,0,0-.84-.7S13.19,26,10.81,26.14Z" transform="translate(-9.8 -2.74)"/><path class="cls-6" d="M13.69,27.38a.39.39,0,0,0-.06-.11c.09.23-.19.59-.36.43s-.6-.57-.6-.57a3.88,3.88,0,0,1,.68,1C13.59,27.89,13.82,27.65,13.69,27.38Z" transform="translate(-9.8 -2.74)"/><path class="cls-4" d="M9.8,24.51a10.18,10.18,0,0,1,.26,2.34,6.43,6.43,0,0,1,4,.13,4.06,4.06,0,0,1,.07-2.47s-.26-.61-1.46-.78l-.48,2-.47-1.95A1.86,1.86,0,0,0,9.8,24.51Z" transform="translate(-9.8 -2.74)"/><path class="cls-6" d="M34,12.26c-.21.19-.61.54-1.22-.1s-.23-1.07,0-1.41a.89.89,0,0,0,.29-.63c0-.3-.6-.58-.32-.34,0,0,.4.18-.18,1-.23.32-.51.71-.2,1.17s.76,1,1.45.61S34.34,11.93,34,12.26Z" transform="translate(-9.8 -2.74)"/><polygon class="cls-6" points="13.24 13.42 10.19 13.42 12.65 17.38 13.24 13.42"/><path class="cls-4" d="M25.15,16.82c-.38-.4-1.22-.19-1.22-.19l1-1.32a5,5,0,0,1-2.05.68,9.38,9.38,0,0,0-.44,4A7.18,7.18,0,0,0,20,16a6.89,6.89,0,0,0-2.32.15l1.85.94-1.39.58a7.07,7.07,0,0,1,2.06.77A22.47,22.47,0,0,1,20,28.49l3.82.19s2-3.91-.15-10.51A7,7,0,0,1,25.15,16.82Z" transform="translate(-9.8 -2.74)"/><path class="cls-3" d="M23.62,29s4-1.46,5-.61C28.59,28.35,28.53,29,23.62,29Z" transform="translate(-9.8 -2.74)"/><path class="cls-2" d="M22.45,20.38a13.14,13.14,0,0,1-.57,7.36A9.33,9.33,0,0,0,22.45,20.38Z" transform="translate(-9.8 -2.74)"/><path class="cls-5" d="M20,6.9c-5.49,0-4.85-1.4-4.85,5.56,0,3.3,3,4.26,6,4.2S26,15.91,26,12.6C26,7.11,24.53,6.9,20,6.9Z" transform="translate(-9.8 -2.74)"/><path class="cls-7" d="M17.5,16.25c-.06.52-.11,1.41-2.08,1.09,0,0,.28-3.36-1.23-5.23s-1.84-3.56-.63-4.92c0,0-1.39-3.07,5-3.89,3.2-.41,6,.79,9-.56,0,0,2.64,5.24-2.36,5.89s-5.07-1.09-8-.71a21,21,0,0,0,1.2,5,.88.88,0,0,1-.54.93s-.62-2.72-1.6-3.37-1,.92-.48,1.77.86.7.86.7A6,6,0,0,1,17.5,16.25Z" transform="translate(-9.8 -2.74)"/><path class="cls-8" d="M19.5,9.72a1,1,0,1,1-1,1A1,1,0,0,1,19.5,9.72Z" transform="translate(-9.8 -2.74)"/><path class="cls-8" d="M24.46,9.72a1,1,0,1,1,0,2,1,1,0,0,1,0-2Z" transform="translate(-9.8 -2.74)"/><path class="cls-8" d="M23.6,13.83a2.48,2.48,0,0,1-3.24,0c-.13-.1-.24.07-.16.22A2.07,2.07,0,0,0,22,15.15a2,2,0,0,0,1.77-1.1C23.84,13.9,23.73,13.73,23.6,13.83Z" transform="translate(-9.8 -2.74)"/></g></g></svg>