<svg xmlns="http://www.w3.org/2000/svg" viewBox="0 0 228.53 54.69"><defs><style>.cls-1{fill:#575756;}.cls-2{fill:#1d1d1b;}</style></defs><g id="Layer_2" data-name="Layer 2"><g id="Layer_1-2" data-name="Layer 1"><polygon class="cls-1" points="1.3 54.56 44.59 54.65 43.64 38.01 36.46 32.27 38.89 30.2 32.01 23.89 28.46 29.49 25.55 32.27 19.36 32.27 12.57 23.89 5.84 29.63 8.37 32.37 0.61 39.49 1.3 54.56"/><path class="cls-2" d="M31,54.65c.16-.46,1.58-3.9,1.81-4.34.43-1.07.87-2.14,1.33-3.2.2-.46.35-.93.56-1.37.46-1.07.88-2.15,1.36-3.21.16-.43.33-.87.53-1.29a1.55,1.55,0,0,0-.11-1.58c-.19-.22-.41-.4-.6-.62a8.59,8.59,0,0,0-.79-.91,2,2,0,0,0-.48-.38l-.84-1c-.11-.2-.14-.45-.34-.61s0-.43.2-.57c.39-.24.78-.48,1.16-.73a17.45,17.45,0,0,0,1.67-1.13c1,.78,3.08,2.24,3.23,2.31a8.38,8.38,0,0,1,1.17.66c.17.13.31.28.48.41a4.75,4.75,0,0,1,.87,1,6.19,6.19,0,0,1,.28.58A5.31,5.31,0,0,1,43,40.2c0,.2.08.4.1.61a3.21,3.21,0,0,0,.07.82,24.76,24.76,0,0,1,.17,3.55c-.09,1.11,0,2.23,0,3.33,0,1.54-.07,3.08,0,4.62,0,.3-.21.62,0,.9a1.24,1.24,0,0,0,1.22.66.75.75,0,0,0,.8-.79l0-2c.1-.23,0-10.11-.05-10.78a14.74,14.74,0,0,0-.38-2c-.12-.22-.63-1.48-.82-1.87A10.17,10.17,0,0,0,43,35.69a10.87,10.87,0,0,0-1.61-1.24c-.11-.34-2-1.22-3.12-1.91l1.39-.89c.71-.46.82-.74.59-1.57,0-.23-.24-.28-.38-.41-.27-.28-1.9-1.88-2.18-2.14-.12-.26-4.13-3.45-4.44-3.68a2.43,2.43,0,0,0-.4-.51c-.31-.64,0-1.27,0-1.91v-.55c0-.25.12-.35.34-.36a5,5,0,0,1,.77-.13A19,19,0,0,0,36,20a4.33,4.33,0,0,0,1.37-.53,12.94,12.94,0,0,0,2.5-1.24,2,2,0,0,0,1-2.27c.07-.22-.91-1-1.25-1.3-.06-.28-1.41-.68-1.86-.87-.16-.28-1.49-.44-1.89-.54a11.38,11.38,0,0,0-2.42-.53,6.05,6.05,0,0,0-1.81-.24c-.29,0-.39-.15-.35-.43s-.49-1.59-.56-2.15c0-.2-.49-1.59-.56-2.15.12-.28-.41-1.56-.51-2-.05-.24-.51-1.68-.65-2.18a7.86,7.86,0,0,0-.71-1.7A6.17,6.17,0,0,0,27,.37C26.8,0,26.37.15,26,0L24.46.15c-.53-.1-.85.27-1.2.57-1,.92-1,.92-2.05,0A7.63,7.63,0,0,0,18.53,0a3.2,3.2,0,0,0-2.44,2c-.15.34-.32.68-.49,1A3.23,3.23,0,0,0,15,4.22c-.24.83-.45,1.68-.67,2.53a10.47,10.47,0,0,1-.29,1.1c-.25.83-.42,1.69-.65,2.53-.08.36-.17.72-.27,1.07s-.19.86-.75.86l-1.33.2c-.74.12-1.48.28-2.21.45-.33.09-.66.19-1,.26a12,12,0,0,0-3.25,1.36c-.35.32-.84.52-.92,1.08a1.81,1.81,0,0,0,0,1.72.6.6,0,0,0,.36.44c.37.27,1.46,1,1.64,1.07.45.18,1.93.67,2.2.79a10.5,10.5,0,0,0,1.85.43,15.58,15.58,0,0,0,2.29.39,18.89,18.89,0,0,1,2.48.45c.62,0,1.22.13,1.84.16a5.31,5.31,0,0,1,1.49.07,6.22,6.22,0,0,0,1.06.06c.24,0,.48,0,.72,0h5.19a10,10,0,0,0,1.73,0,3.85,3.85,0,0,1,1.27-.08c.68,0,1.33-.17,2-.16s.69-.07.54.62a13.53,13.53,0,0,1-.17,1.56,5,5,0,0,1-.21,1,12.52,12.52,0,0,1-1.19,3.17,8.39,8.39,0,0,1-4.33,4.29,5.6,5.6,0,0,1-2.42.45,2.34,2.34,0,0,1-.7-.06,6.17,6.17,0,0,1-1.4-.38,6.28,6.28,0,0,1-.59-.27,4.11,4.11,0,0,1-1-.66,6.14,6.14,0,0,0-.47-.42,2.88,2.88,0,0,1-.87-.9,2.87,2.87,0,0,1-.44-.55,6.68,6.68,0,0,1-.65-1.06c-.12-.24-.25-.48-.36-.73A12.26,12.26,0,0,1,15,25.73a3,3,0,0,1-.22-.72,11.07,11.07,0,0,1-.32-1.26,3.36,3.36,0,0,0-.28-.68,1.27,1.27,0,0,0-1.37-.39,17.55,17.55,0,0,0-3.29,2.59C7.91,26.7,6.28,28.09,4.8,29.66a2.75,2.75,0,0,0-.57.82.49.49,0,0,0,.15.68c.32.25,1.29,1,1.47,1.08l1.09.68,0,0c-1,.81-2.56,2.2-2.89,2.38A8.24,8.24,0,0,0,.61,39.52a23.77,23.77,0,0,0-.56,3.23,21.77,21.77,0,0,0,0,2.7,21.6,21.6,0,0,0,0,2.69,21.78,21.78,0,0,0,0,2.7c-.11.22.13,2.86.13,3.53-.1.23,2,.37,2,0,0-3.4.11-7.53.11-10.94a3.32,3.32,0,0,1,.07-.94c.09-.45.06-.91.17-1.36a4.3,4.3,0,0,1,.35-1.26c.52-1.42,3.9-4.6,5.22-5.24a2,2,0,0,0,.63-.43l.49.31c.36.2.7.44,1.05.67.15.1.3.2.46.29.69.44.71.45.19,1.07s-1.13,1.27-1.67,1.92a5.24,5.24,0,0,0-1.36,1.81,1.46,1.46,0,0,0,0,.59c.16.46.35.91.54,1.36a4.66,4.66,0,0,1,.26.61c.18.43.34.87.55,1.3.09.2.16.41.24.61a7.51,7.51,0,0,0,.92,1.81,12.32,12.32,0,0,0,.83,2c.22.43.62,1.75.79,1.89.15.36.46,1.71.8,1.89.15.39.3.78.46,1.17.11.22.53.94.54,1,.18.24,2.48.24,2.35-.06-.19-.46-.68-1.5-.89-1.94-.1-.2-.17-.41-.25-.61-.14-.35-.29-.7-.44-1s-.24-.57-.35-.86-.35-.74-.47-1.13A7.26,7.26,0,0,1,13.4,48c-.14-.35-.27-.7-.42-1.05s-.17-.46-.28-.69c-.2-.39-.33-.81-.53-1.2-.1-.22-.17-.46-.27-.69-.18-.44-.35-.88-.54-1.31a3.16,3.16,0,0,1-.25-.6c-.18-.43-.34-.87-.55-1.29a.58.58,0,0,1,.1-.73c.7-.76,1.33-1.6,2.07-2.33.42-.49.86-1,1.27-1.46a1.32,1.32,0,0,0,.05-1.83,4.48,4.48,0,0,0-.47-.33c-.41-.2-.78-.48-1.16-.71a4.17,4.17,0,0,1-.61-.38c-.35-.21-.69-.46-1.05-.67a3,3,0,0,1-.44-.28c-.37-.25-.77-.44-1.13-.7l-.59-.39c-.36-.23-.74-.42-1.07-.68s-.17-.43,0-.63a42.71,42.71,0,0,1,4-3.49c1-.77,1-.77,1.34.33.11.25.25.49.36.74s.39.76.57,1.15c.12.21.25.41.38.61s.46.7.71,1a3.47,3.47,0,0,1,.39.47,7.25,7.25,0,0,0,.84.91c.15.14.29.3.45.44s.61.39.75.76c.28.14.89.4,1.5.64a2.41,2.41,0,0,0-.29,1.14L19.92,53.1c0,1.27,1,1.59,2.29,1.59s2.36-.32,2.36-1.53l1.36-18.48a2.31,2.31,0,0,0-.31-1.13l2-1.16a12.77,12.77,0,0,0,2.58-2.91c.33-.59.67-1.18,1-1.79a12.46,12.46,0,0,0,.58-1.35c.22-.62.23-.61.81-.21.18.12.34.27.51.4.36.23.64.57,1,.79.17.13.31.29.47.43a7.3,7.3,0,0,1,1,.9c.18.15.39.26.56.43s.53.53.79.8a3.05,3.05,0,0,1,.43.45c0,.23-.21.25-.33.36-.71.43-1.4.91-2.12,1.33-1.33.81-2.63,1.67-4,2.49-.72.44-.85.91-.55,1.76a4,4,0,0,0,.45.61A8.76,8.76,0,0,1,31.79,38l.44.45c.28.28.47.63.76.89a4.68,4.68,0,0,1,.43.46c.16.43.78.57.73,1.14-.22.49-.42,1-.64,1.48-.43,1.06-.87,2.13-1.33,3.19a11.38,11.38,0,0,1-.55,1.36c-.46,1.06-.88,2.14-1.35,3.2a4.85,4.85,0,0,0-.42,1.39c-.37.9-.71,2.24-1.07,3.14"/><path class="cls-2" d="M52.35.9h4.54c3.08,0,4.59,1.71,4.59,4.84V7.68c0,3.13-1.51,4.84-4.59,4.84H55.43v8H52.35Zm4.54,8.82c1,0,1.51-.45,1.51-1.85V5.55c0-1.4-.53-1.85-1.51-1.85H55.43v6Z"/><path class="cls-2" d="M62.74,15.85V14.73h2.91v1.35c0,1.4.62,1.9,1.6,1.9s1.59-.5,1.59-2c0-1.62-.61-2.66-2.63-4.42-2.58-2.27-3.42-3.87-3.42-6.11,0-3.08,1.6-4.87,4.6-4.87s4.48,1.79,4.48,4.93v.81H69v-1c0-1.4-.56-1.93-1.54-1.93S65.87,4,65.87,5.3s.65,2.46,2.66,4.22c2.58,2.27,3.39,3.84,3.39,6.28,0,3.19-1.62,5-4.65,5S62.74,19,62.74,15.85Z"/><path class="cls-2" d="M73.15,15.85V14.73h2.92v1.35c0,1.4.61,1.9,1.59,1.9s1.6-.5,1.6-2c0-1.62-.62-2.66-2.63-4.42-2.58-2.27-3.42-3.87-3.42-6.11,0-3.08,1.6-4.87,4.59-4.87s4.48,1.79,4.48,4.93v.81H79.37v-1c0-1.4-.56-1.93-1.54-1.93S76.29,4,76.29,5.3,76.93,7.76,79,9.52c2.58,2.27,3.39,3.84,3.39,6.28,0,3.19-1.63,5-4.65,5S73.15,19,73.15,15.85Z"/><path class="cls-2" d="M86.51,3.7H83.29V.9h9.52V3.7H89.59V20.5H86.51Z"/><path class="cls-2" d="M94.55,9.08V.9h3.08V9.08l-.4,6.24H94.94Zm0,8.45h3v3h-3Z"/><path class="cls-2" d="M51.94,29.5h2V42.1h-2Z"/><path class="cls-2" d="M56.05,31.41H55.4V29.5h1.91v1.71l-1.1,2.36h-.92Z"/><path class="cls-2" d="M58.44,29.5h2l1.29,9.77h0l1.3-9.77h1.81L63,42.1H60.35Z"/><path class="cls-2" d="M65.84,29.5h5.4v1.8H67.82v3.33h2.72v1.8H67.82V40.3h3.42v1.8h-5.4Z"/><path class="cls-2" d="M75.11,39.11V32.49c0-2,1-3.17,3-3.17s3,1.15,3,3.17v1.08H79.14V32.36c0-.9-.4-1.24-1-1.24s-1,.34-1,1.24v6.9c0,.9.39,1.22,1,1.22s1-.32,1-1.22V36.79h-1V35H81v4.12c0,2-1,3.17-3,3.17S75.11,41.13,75.11,39.11Z"/><path class="cls-2" d="M82.14,39.11V32.49c0-2,1.07-3.17,3-3.17s3,1.15,3,3.17v6.62c0,2-1.06,3.17-3,3.17S82.14,41.13,82.14,39.11Zm4,.13V32.36c0-.9-.4-1.24-1-1.24s-1,.34-1,1.24v6.88c0,.9.4,1.24,1,1.24S86.18,40.14,86.18,39.24Z"/><path class="cls-2" d="M91,31.3H88.89V29.5H95v1.8H92.94V42.1H91Z"/><path class="cls-2" d="M98.51,39.11v-.72h1.87v.87c0,.9.39,1.22,1,1.22s1-.32,1-1.26-.4-1.71-1.69-2.85c-1.66-1.45-2.2-2.48-2.2-3.92,0-2,1-3.13,2.95-3.13s2.88,1.15,2.88,3.17V33H102.5v-.65c0-.9-.36-1.24-1-1.24s-1,.34-1,1.2.42,1.59,1.71,2.72c1.66,1.46,2.18,2.47,2.18,4,0,2.05-1,3.2-3,3.2S98.51,41.13,98.51,39.11Z"/><path class="cls-2" d="M105.4,39.11V32.49c0-2,1.06-3.17,3-3.17s3,1.15,3,3.17v6.62c0,2-1.06,3.17-3,3.17S105.4,41.13,105.4,39.11Zm4,.13V32.36c0-.9-.39-1.24-1-1.24s-1,.34-1,1.24v6.88c0,.9.4,1.24,1,1.24S109.43,40.14,109.43,39.24Z"/><path class="cls-2" d="M112.74,29.5h2.83l1.26,9h0l1.26-9H121V42.1h-1.87V32.56h0L117.6,42.1H116l-1.44-9.54h0V42.1h-1.73Z"/><path class="cls-2" d="M122.43,29.5h5.4v1.8h-3.42v3.33h2.72v1.8h-2.72V40.3h3.42v1.8h-5.4Z"/><path class="cls-2" d="M131.84,29.5h3c2,0,2.95,1.09,2.95,3.11V39c0,2-1,3.11-2.95,3.11h-3Zm3,10.8c.63,0,1-.32,1-1.22V32.52c0-.9-.38-1.22-1-1.22h-1v9Z"/><path class="cls-2" d="M140.64,29.5h2.69l2,12.6h-2L143,39.6v0h-2.25l-.36,2.47h-1.84Zm2.16,8.42-.88-6.23h0L141,37.92Z"/><path class="cls-2" d="M147.05,31.3H145V29.5h6.12v1.8H149V42.1h-2Z"/><path class="cls-2" d="M152.76,29.5h2.68l2.05,12.6h-2l-.36-2.5v0H152.9l-.36,2.47H150.7Zm2.16,8.42L154,31.69h0l-.87,6.23Z"/><path class="cls-2" d="M158.62,40.19h1.91V42.1h-1.91Z"/><path class="cls-2" d="M164.76,39.18V32.41c0-1.94,1-3.09,2.92-3.09s2.91,1.15,2.91,3.09v1.34h-1.87V32.29c0-.83-.39-1.17-1-1.17s-1,.34-1,1.17v7c0,.83.4,1.15,1,1.15s1-.32,1-1.15V37.4h1.87v1.78c0,2-1,3.1-2.91,3.1S164.76,41.13,164.76,39.18Z"/><path class="cls-2" d="M171.78,29.5h2V40.3H177v1.8h-5.24Z"/><path class="cls-2" d="M178,29.5h2V42.1h-2Z"/><path class="cls-2" d="M181.3,39.18V32.41c0-1.94,1-3.09,2.92-3.09s2.92,1.15,2.92,3.09v1.34h-1.88V32.29c0-.83-.39-1.17-1-1.17s-1,.34-1,1.17v7c0,.83.4,1.15,1,1.15s1-.32,1-1.15V37.4h1.88v1.78c0,2-1,3.1-2.92,3.1S181.3,41.13,181.3,39.18Z"/><path class="cls-2" d="M188.32,29.5h2v5.31l2.52-5.31h2l-2.35,4.62,2.39,8h-2.07l-1.67-5.62-.8,1.6v4h-2Z"/><path class="cls-2" d="M198.65,29.5h2v5.13h2.13V29.5h2V42.1h-2V36.43h-2.13V42.1h-2Z"/><path class="cls-2" d="M206.21,29.5h5.41v1.8H208.2v3.33h2.71v1.8H208.2V40.3h3.42v1.8h-5.41Z"/><path class="cls-2" d="M212.75,29.5h2.93c2.06,0,2.94.95,2.94,2.9v.77c0,1.3-.42,2.12-1.3,2.48v0c1,.31,1.32,1.24,1.32,2.67v2.21a3.69,3.69,0,0,0,.21,1.53h-2a3.82,3.82,0,0,1-.18-1.55v-2.3c0-1.17-.35-1.55-1.25-1.55h-.68v5.4h-2Zm2.7,5.4c.74,0,1.19-.33,1.19-1.33v-1c0-.9-.31-1.29-1-1.29h-.9v3.6Z"/><path class="cls-2" d="M220,29.5h5.4v1.8H222v3.33h2.72v1.8H222V40.3h3.42v1.8H220Z"/><path class="cls-2" d="M226.63,40.19h1.9V42.1h-1.9Z"/></g></g></svg>