<svg xmlns="http://www.w3.org/2000/svg" viewBox="0 0 206.02 54.69"><defs><style>.cls-1{font-size:20px;font-family:BebasNeue-Regular, Bebas Neue;}.cls-1,.cls-8{fill:#1d1d1b;}.cls-2{letter-spacing:-0.01em;}.cls-3{letter-spacing:-0.05em;}.cls-4{letter-spacing:-0.04em;}.cls-5{font-size:18px;}.cls-6{letter-spacing:0em;}.cls-7{fill:#575756;}</style></defs><g id="Layer_2" data-name="Layer 2"><g id="Layer_1-2" data-name="Layer 1"><text class="cls-1" transform="translate(32.49 22.9)"><tspan class="cls-2">W</tspan><tspan x="10.86" y="0">ant more De</tspan><tspan class="cls-3" x="90.56" y="0">t</tspan><tspan x="96.92" y="0">ai</tspan><tspan class="cls-4" x="108.78" y="0">l</tspan><tspan x="114.76" y="0">? </tspan><tspan class="cls-5"><tspan x="56.9" y="21.6">Click her</tspan><tspan class="cls-6" x="112.01" y="21.6">e</tspan><tspan x="118.63" y="21.6">.</tspan></tspan></text><polygon class="cls-7" points="161.86 54.56 205.16 54.65 204.2 38.01 197.03 32.27 199.46 30.2 192.57 23.89 189.03 29.49 186.12 32.27 179.93 32.27 173.14 23.89 166.4 29.63 168.93 32.37 161.17 39.49 161.86 54.56"/><path class="cls-8" d="M191.56,54.65c.17-.46,1.59-3.9,1.81-4.34.44-1.07.87-2.14,1.34-3.2.19-.46.35-.93.56-1.37.46-1.07.87-2.15,1.36-3.21.16-.43.33-.87.52-1.29a1.5,1.5,0,0,0-.11-1.58c-.18-.22-.4-.4-.6-.62a8.5,8.5,0,0,0-.78-.91,2,2,0,0,0-.49-.38l-.83-1c-.11-.2-.14-.45-.34-.61s0-.43.19-.57c.39-.24.79-.48,1.17-.73A18.81,18.81,0,0,0,197,33.76c1.05.78,3.07,2.24,3.23,2.31a9,9,0,0,1,1.17.66c.17.13.31.28.47.41a4.24,4.24,0,0,1,.87,1,6.27,6.27,0,0,1,.29.58,5.29,5.29,0,0,1,.46,1.46,4.09,4.09,0,0,1,.1.61,4.47,4.47,0,0,0,.07.82,24.76,24.76,0,0,1,.18,3.55c-.1,1.11,0,2.23,0,3.33,0,1.54-.07,3.08,0,4.62,0,.3-.22.62.05.9a1.23,1.23,0,0,0,1.22.66.76.76,0,0,0,.8-.79c0-.68,0-1.35,0-2,.11-.23,0-10.11,0-10.78a16.8,16.8,0,0,0-.39-2c-.11-.22-.62-1.48-.81-1.87a10.17,10.17,0,0,0-1.19-1.53,11.57,11.57,0,0,0-1.62-1.24c-.11-.34-2-1.22-3.11-1.91l1.38-.89c.72-.46.82-.74.6-1.57,0-.23-.25-.28-.38-.41-.28-.28-1.9-1.88-2.18-2.14-.12-.26-4.13-3.45-4.44-3.68a3.33,3.33,0,0,0-.4-.51c-.32-.64,0-1.27,0-1.91,0-.19,0-.37,0-.55s.11-.35.34-.36a4.83,4.83,0,0,1,.76-.13A18.1,18.1,0,0,0,196.6,20a4.16,4.16,0,0,0,1.37-.53,13,13,0,0,0,2.51-1.24,2,2,0,0,0,1-2.27c.07-.22-.92-1-1.25-1.3-.07-.28-1.42-.68-1.86-.87-.16-.28-1.49-.44-1.89-.54a11.52,11.52,0,0,0-2.42-.53,6.05,6.05,0,0,0-1.81-.24c-.3,0-.4-.15-.36-.43s-.48-1.59-.55-2.15c0-.2-.49-1.59-.56-2.15a8.41,8.41,0,0,0-.52-2c0-.24-.5-1.68-.64-2.18a8.4,8.4,0,0,0-.71-1.7A6.64,6.64,0,0,0,187.6.37c-.24-.39-.66-.22-1-.34L185,.15c-.54-.1-.85.27-1.2.57-1,.92-1,.92-2.05,0A7.69,7.69,0,0,0,179.1,0a3.2,3.2,0,0,0-2.44,2l-.49,1a3.25,3.25,0,0,0-.57,1.22c-.24.83-.45,1.68-.67,2.53a10.42,10.42,0,0,1-.28,1.1c-.26.83-.42,1.69-.66,2.53-.08.36-.16.72-.26,1.07s-.19.86-.76.86l-1.33.2c-.74.12-1.47.28-2.2.45-.33.09-.66.19-1,.26a12,12,0,0,0-3.25,1.36c-.36.32-.85.52-.92,1.08a1.84,1.84,0,0,0,0,1.72.61.61,0,0,0,.37.44,19.14,19.14,0,0,0,1.64,1.07c.45.18,1.92.67,2.2.79a10.42,10.42,0,0,0,1.84.43,15.67,15.67,0,0,0,2.3.39,19.2,19.2,0,0,1,2.48.45c.61,0,1.22.13,1.83.16a5.4,5.4,0,0,1,1.5.07,6.11,6.11,0,0,0,1.05.06c.24,0,.48,0,.72,0h5.19a10,10,0,0,0,1.73,0,3.93,3.93,0,0,1,1.28-.08c.67,0,1.33-.17,2-.16s.68-.07.53.62a11.63,11.63,0,0,1-.17,1.56,4.41,4.41,0,0,1-.2,1,13.33,13.33,0,0,1-1.19,3.17,8.41,8.41,0,0,1-4.34,4.29,5.58,5.58,0,0,1-2.42.45,2.28,2.28,0,0,1-.69-.06,6,6,0,0,1-1.4-.38,5.3,5.3,0,0,1-.59-.27,4.17,4.17,0,0,1-1-.66,6.14,6.14,0,0,0-.47-.42,2.88,2.88,0,0,1-.87-.9,3.26,3.26,0,0,1-.43-.55,6.68,6.68,0,0,1-.65-1.06c-.13-.24-.25-.48-.36-.73a9.15,9.15,0,0,1-.56-1.29,3.56,3.56,0,0,1-.23-.72c-.11-.42-.24-.83-.31-1.26a2.9,2.9,0,0,0-.29-.68,1.27,1.27,0,0,0-1.37-.39,17.55,17.55,0,0,0-3.29,2.59c-1.61,1.43-3.24,2.82-4.71,4.39a2.43,2.43,0,0,0-.57.82.48.48,0,0,0,.14.68c.32.25,1.3,1,1.48,1.08l1.08.68s0,0,0,0c-1,.81-2.57,2.2-2.89,2.38a8.21,8.21,0,0,0-3.48,4.18,25.67,25.67,0,0,0-.55,3.23,19.69,19.69,0,0,0,0,2.7,23.76,23.76,0,0,0,0,2.69,24,24,0,0,0,0,2.7c-.1.22.14,2.86.14,3.53-.11.23,2,.37,2,0,0-3.4.11-7.53.11-10.94a3.31,3.31,0,0,1,.06-.94c.09-.45.06-.91.17-1.36a4.65,4.65,0,0,1,.36-1.26c.52-1.42,3.89-4.6,5.21-5.24a1.9,1.9,0,0,0,.64-.43l.49.31c.36.2.7.44,1,.67l.46.29c.7.44.71.45.2,1.07s-1.13,1.27-1.68,1.92a5.34,5.34,0,0,0-1.35,1.81,1.46,1.46,0,0,0,0,.59c.15.46.35.91.53,1.36a3,3,0,0,1,.26.61c.18.43.35.87.55,1.3.1.2.16.41.25.61a7.18,7.18,0,0,0,.91,1.81,13.27,13.27,0,0,0,.83,2c.22.43.63,1.75.8,1.89.14.36.46,1.71.79,1.89.16.39.31.78.46,1.17.12.22.53.94.55,1,.18.24,2.48.24,2.35-.06-.19-.46-.68-1.5-.9-1.94-.1-.2-.16-.41-.25-.61-.13-.35-.28-.7-.44-1s-.24-.57-.34-.86-.36-.74-.48-1.13A9.28,9.28,0,0,1,174,48c-.15-.35-.28-.7-.42-1.05s-.18-.46-.29-.69c-.19-.39-.33-.81-.52-1.2-.1-.22-.18-.46-.28-.69-.18-.44-.34-.88-.53-1.31a4,4,0,0,1-.26-.6c-.18-.43-.34-.87-.54-1.29a.58.58,0,0,1,.09-.73c.7-.76,1.33-1.6,2.08-2.33.41-.49.86-1,1.27-1.46a1.32,1.32,0,0,0,0-1.83,3.63,3.63,0,0,0-.47-.33c-.41-.2-.77-.48-1.16-.71a4.67,4.67,0,0,1-.6-.38c-.35-.21-.69-.46-1-.67a2.52,2.52,0,0,1-.44-.28c-.37-.25-.77-.44-1.14-.7l-.59-.39c-.35-.23-.73-.42-1.07-.68s-.16-.43,0-.63a42.71,42.71,0,0,1,4-3.49c1-.77,1-.77,1.34.33l.37.74c.19.38.39.76.57,1.15.11.21.25.41.38.61s.46.7.7,1a3.55,3.55,0,0,1,.4.47,7.17,7.17,0,0,0,.83.91l.45.44c.28.22.61.39.75.76.28.14.9.4,1.51.64a2.3,2.3,0,0,0-.29,1.14l1.34,18.36c0,1.27,1,1.59,2.29,1.59s2.37-.32,2.37-1.53l1.35-18.48a2.31,2.31,0,0,0-.31-1.13l2-1.16a12.54,12.54,0,0,0,2.58-2.91c.33-.59.68-1.18,1-1.79a12.52,12.52,0,0,0,.59-1.35c.21-.62.22-.61.81-.21.18.12.33.27.51.4.36.23.63.57,1,.79.17.13.31.29.47.43a6.71,6.71,0,0,1,1,.9,5.93,5.93,0,0,1,.56.43c.27.26.54.53.8.8a3,3,0,0,1,.42.45c0,.23-.2.25-.32.36-.72.43-1.4.91-2.13,1.33-1.33.81-2.62,1.67-4,2.49a1.25,1.25,0,0,0-.56,1.76,3.48,3.48,0,0,0,.46.61,8.76,8.76,0,0,1,1,1.07l.44.45c.28.28.47.63.76.89a3.64,3.64,0,0,1,.42.46c.16.43.78.57.73,1.14-.21.49-.41,1-.63,1.48-.44,1.06-.87,2.13-1.33,3.19a13.4,13.4,0,0,1-.56,1.36c-.45,1.06-.88,2.14-1.34,3.2a4.87,4.87,0,0,0-.43,1.39c-.36.9-.7,2.24-1.07,3.14"/></g></g></svg>