<svg xmlns="http://www.w3.org/2000/svg" viewBox="0 0 45.46 54.69"><defs><style>.cls-1{fill:#575756;}.cls-2{fill:#1d1d1b;}</style></defs><g id="Layer_2" data-name="Layer 2"><g id="Layer_1-2" data-name="Layer 1"><polygon class="cls-1" points="1.3 54.56 44.59 54.65 43.64 38.01 36.46 32.27 38.89 30.2 32.01 23.89 28.46 29.49 25.55 32.27 19.36 32.27 12.57 23.89 5.84 29.63 8.37 32.37 0.61 39.49 1.3 54.56"/><path class="cls-2" d="M31,54.65c.16-.46,1.58-3.9,1.81-4.34.43-1.07.87-2.14,1.33-3.2.2-.46.35-.93.56-1.37.46-1.07.88-2.15,1.36-3.21.16-.43.33-.87.53-1.29a1.55,1.55,0,0,0-.11-1.58c-.19-.22-.41-.4-.6-.62a8.59,8.59,0,0,0-.79-.91,2,2,0,0,0-.48-.38l-.84-1c-.11-.2-.14-.45-.34-.61s0-.43.2-.57c.39-.24.78-.48,1.16-.73a17.45,17.45,0,0,0,1.67-1.13c1,.78,3.08,2.24,3.23,2.31a8.38,8.38,0,0,1,1.17.66c.17.13.31.28.48.41a4.75,4.75,0,0,1,.87,1,6.19,6.19,0,0,1,.28.58A5.31,5.31,0,0,1,43,40.2c0,.2.08.4.1.61a3.21,3.21,0,0,0,.07.82,24.76,24.76,0,0,1,.17,3.55c-.09,1.11,0,2.23,0,3.33,0,1.54-.07,3.08,0,4.62,0,.3-.21.62,0,.9a1.24,1.24,0,0,0,1.22.66.75.75,0,0,0,.8-.79l0-2c.1-.23,0-10.11-.05-10.78a14.74,14.74,0,0,0-.38-2c-.12-.22-.63-1.48-.82-1.87A10.17,10.17,0,0,0,43,35.69a10.87,10.87,0,0,0-1.61-1.24c-.11-.34-2-1.22-3.12-1.91l1.39-.89c.71-.46.82-.74.59-1.57,0-.23-.24-.28-.38-.41-.27-.28-1.9-1.88-2.18-2.14-.12-.26-4.13-3.45-4.44-3.68a2.43,2.43,0,0,0-.4-.51c-.31-.64,0-1.27,0-1.91v-.55c0-.25.12-.35.34-.36a5,5,0,0,1,.77-.13A19,19,0,0,0,36,20a4.33,4.33,0,0,0,1.37-.53,12.94,12.94,0,0,0,2.5-1.24,2,2,0,0,0,1-2.27c.07-.22-.91-1-1.25-1.3-.06-.28-1.41-.68-1.86-.87-.16-.28-1.49-.44-1.89-.54a11.38,11.38,0,0,0-2.42-.53,6.05,6.05,0,0,0-1.81-.24c-.29,0-.39-.15-.35-.43s-.49-1.59-.56-2.15c0-.2-.49-1.59-.56-2.15.12-.28-.41-1.56-.51-2-.05-.24-.51-1.68-.65-2.18a7.86,7.86,0,0,0-.71-1.7A6.17,6.17,0,0,0,27,.37C26.8,0,26.37.15,26,0L24.46.15c-.53-.1-.85.27-1.2.57-1,.92-1,.92-2.05,0A7.63,7.63,0,0,0,18.53,0a3.2,3.2,0,0,0-2.44,2c-.15.34-.32.68-.49,1A3.23,3.23,0,0,0,15,4.22c-.24.83-.45,1.68-.67,2.53a10.47,10.47,0,0,1-.29,1.1c-.25.83-.42,1.69-.65,2.53-.08.36-.17.72-.27,1.07s-.19.86-.75.86l-1.33.2c-.74.12-1.48.28-2.21.45-.33.09-.66.19-1,.26a12,12,0,0,0-3.25,1.36c-.35.32-.84.52-.92,1.08a1.81,1.81,0,0,0,0,1.72.6.6,0,0,0,.36.44c.37.27,1.46,1,1.64,1.07.45.18,1.93.67,2.2.79a10.5,10.5,0,0,0,1.85.43,15.58,15.58,0,0,0,2.29.39,18.89,18.89,0,0,1,2.48.45c.62,0,1.22.13,1.84.16a5.31,5.31,0,0,1,1.49.07,6.22,6.22,0,0,0,1.06.06c.24,0,.48,0,.72,0h5.19a10,10,0,0,0,1.73,0,3.85,3.85,0,0,1,1.27-.08c.68,0,1.33-.17,2-.16s.69-.07.54.62a13.53,13.53,0,0,1-.17,1.56,5,5,0,0,1-.21,1,12.52,12.52,0,0,1-1.19,3.17,8.39,8.39,0,0,1-4.33,4.29,5.6,5.6,0,0,1-2.42.45,2.34,2.34,0,0,1-.7-.06,6.17,6.17,0,0,1-1.4-.38,6.28,6.28,0,0,1-.59-.27,4.11,4.11,0,0,1-1-.66,6.14,6.14,0,0,0-.47-.42,2.88,2.88,0,0,1-.87-.9,2.87,2.87,0,0,1-.44-.55,6.68,6.68,0,0,1-.65-1.06c-.12-.24-.25-.48-.36-.73A12.26,12.26,0,0,1,15,25.73a3,3,0,0,1-.22-.72,11.07,11.07,0,0,1-.32-1.26,3.36,3.36,0,0,0-.28-.68,1.27,1.27,0,0,0-1.37-.39,17.55,17.55,0,0,0-3.29,2.59C7.91,26.7,6.28,28.09,4.8,29.66a2.75,2.75,0,0,0-.57.82.49.49,0,0,0,.15.68c.32.25,1.29,1,1.47,1.08l1.09.68,0,0c-1,.81-2.56,2.2-2.89,2.38A8.24,8.24,0,0,0,.61,39.52a23.77,23.77,0,0,0-.56,3.23,21.77,21.77,0,0,0,0,2.7,21.6,21.6,0,0,0,0,2.69,21.78,21.78,0,0,0,0,2.7c-.11.22.13,2.86.13,3.53-.1.23,2,.37,2,0,0-3.4.11-7.53.11-10.94a3.32,3.32,0,0,1,.07-.94c.09-.45.06-.91.17-1.36a4.3,4.3,0,0,1,.35-1.26c.52-1.42,3.9-4.6,5.22-5.24a2,2,0,0,0,.63-.43l.49.31c.36.2.7.44,1.05.67.15.1.3.2.46.29.69.44.71.45.19,1.07s-1.13,1.27-1.67,1.92a5.24,5.24,0,0,0-1.36,1.81,1.46,1.46,0,0,0,0,.59c.16.46.35.91.54,1.36a4.66,4.66,0,0,1,.26.61c.18.43.34.87.55,1.3.09.2.16.41.24.61a7.51,7.51,0,0,0,.92,1.81,12.32,12.32,0,0,0,.83,2c.22.43.62,1.75.79,1.89.15.36.46,1.71.8,1.89.15.39.3.78.46,1.17.11.22.53.94.54,1,.18.24,2.48.24,2.35-.06-.19-.46-.68-1.5-.89-1.94-.1-.2-.17-.41-.25-.61-.14-.35-.29-.7-.44-1s-.24-.57-.35-.86-.35-.74-.47-1.13A7.26,7.26,0,0,1,13.4,48c-.14-.35-.27-.7-.42-1.05s-.17-.46-.28-.69c-.2-.39-.33-.81-.53-1.2-.1-.22-.17-.46-.27-.69-.18-.44-.35-.88-.54-1.31a3.16,3.16,0,0,1-.25-.6c-.18-.43-.34-.87-.55-1.29a.58.58,0,0,1,.1-.73c.7-.76,1.33-1.6,2.07-2.33.42-.49.86-1,1.27-1.46a1.32,1.32,0,0,0,.05-1.83,4.48,4.48,0,0,0-.47-.33c-.41-.2-.78-.48-1.16-.71a4.17,4.17,0,0,1-.61-.38c-.35-.21-.69-.46-1.05-.67a3,3,0,0,1-.44-.28c-.37-.25-.77-.44-1.13-.7l-.59-.39c-.36-.23-.74-.42-1.07-.68s-.17-.43,0-.63a42.71,42.71,0,0,1,4-3.49c1-.77,1-.77,1.34.33.11.25.25.49.36.74s.39.76.57,1.15c.12.21.25.41.38.61s.46.7.71,1a3.47,3.47,0,0,1,.39.47,7.25,7.25,0,0,0,.84.91c.15.14.29.3.45.44s.61.39.75.76c.28.14.89.4,1.5.64a2.41,2.41,0,0,0-.29,1.14L19.92,53.1c0,1.27,1,1.59,2.29,1.59s2.36-.32,2.36-1.53l1.36-18.48a2.31,2.31,0,0,0-.31-1.13l2-1.16a12.77,12.77,0,0,0,2.58-2.91c.33-.59.67-1.18,1-1.79a12.46,12.46,0,0,0,.58-1.35c.22-.62.23-.61.81-.21.18.12.34.27.51.4.36.23.64.57,1,.79.17.13.31.29.47.43a7.3,7.3,0,0,1,1,.9c.18.15.39.26.56.43s.53.53.79.8a3.05,3.05,0,0,1,.43.45c0,.23-.21.25-.33.36-.71.43-1.4.91-2.12,1.33-1.33.81-2.63,1.67-4,2.49-.72.44-.85.91-.55,1.76a4,4,0,0,0,.45.61A8.76,8.76,0,0,1,31.79,38l.44.45c.28.28.47.63.76.89a4.68,4.68,0,0,1,.43.46c.16.43.78.57.73,1.14-.22.49-.42,1-.64,1.48-.43,1.06-.87,2.13-1.33,3.19a11.38,11.38,0,0,1-.55,1.36c-.46,1.06-.88,2.14-1.35,3.2a4.85,4.85,0,0,0-.42,1.39c-.37.9-.71,2.24-1.07,3.14"/></g></g></svg>